{
.appVersion = "1189";
DisplayStrings = (
"/sinBha",
"ABCDEFCOGHIJKLMNOPQRSTUVWXYZabcdefgh/idotless ijk/k.001 lmnopqrstuunmununumvwxyszsxaZs\012examples",
r,
"ea/jdotless",
Aabcdefghijklmnopqrstuvwxyz,
"/Ygrave",
"¼½¾",
"·/periodcentered.loclCAT/bulletoperator/bullet",
"/Hbar",
"/einvertedbreve",
"/Acircumflexacute",
"Ð",
"/Gdotaccent",
"zs/lira 910",
"ð/Germandbls/dzcaron",
"/Odotaccentmacron/odotaccentmacron/f_f/fi/fl/f_f_i/f_f_l Rkt\012A&E@*©®/trademark ^"
);
copyright = "Copyright (c) 2016 Pathum Egodawatta";
customParameters = (
{
name = licenseURL;
value = "http://scripts.sil.org/OFL";
},
{
name = license;
value = "This Font Software is licensed under the SIL Open Font License, Version 1.1. This license is available with a FAQ at: http://scripts.sil.org/OFL";
},
{
name = fsType;
value = (
);
},
{
name = vendorID;
value = mnik;
}
);
date = "2016-12-26 08:57:20 +0000";
designer = "Pathum Egodawatta";
disablesAutomaticAlignment = 1;
disablesNiceNames = 1;
familyName = Maname;
featurePrefixes = (
{
code = "languagesystem DFLT dflt;\012languagesystem latn dflt;\012languagesystem sinh dflt;\012languagesystem latn CAT;\012languagesystem latn ROM;\012languagesystem latn MOL;\012languagesystem latn KAZ;\012languagesystem latn TAT;\012languagesystem latn TRK;\012languagesystem latn CRT;\012languagesystem latn AZE;";
name = Languagesystems;
}
);
features = (
{
code = "feature locl;\012feature sups;\012feature frac;\012feature ordn;\012feature c2sc;\012feature akhn;\012feature rphf;\012feature vatu;\012feature pstf;\012feature abvs;\012feature blws;\012feature psts;\012feature ss01;\012feature ss02;\012feature salt;\012";
name = aalt;
},
{
automatic = 1;

glyphs = (
{
glyphname = A;
lastChange = "2019-01-05 05:21:47 +0000";
layers = (
{
layerId = "51BB9282-3B82-4DF1-A67A-294D3E37D73A";
paths = (
{
closed = 1;
nodes = (
"263 0 LINE",
"255 39 LINE",
"251 39 LINE",
"222 39 OFFCURVE",
"179 40 OFFCURVE",
"179 87 CURVE SMOOTH",
"179 113 OFFCURVE",
"181 126 OFFCURVE",
"309 527 CURVE",
"333 415 LINE",
"405 227 OFFCURVE",
"452 98 OFFCURVE",
"452 80 CURVE SMOOTH",
"452 49 OFFCURVE",
"423 44 OFFCURVE",
"376 44 CURVE",
"383 0 LINE",
"634 0 LINE",
"627 38 LINE",
"574 38 OFFCURVE",
"558 80 OFFCURVE",
"545 116 CURVE",
"368 624 LINE",
"338 614 OFFCURVE",
"301 604 OFFCURVE",
"271 600 CURVE",
"104 105 LINE SMOOTH",
"91 66 OFFCURVE",
"61 50 OFFCURVE",
"15 47 CURVE",
"23 0 LINE"
);
},
{
closed = 1;
nodes = (
"446 216 LINE",
"446 275 LINE",
"197 269 LINE",
"197 214 LINE"
);
}
);
width = 650;
}
);
unicode = 0041;
},
{
glyphname = Acircumflexhookabove;
lastChange = "2019-01-05 04:56:58 +0000";
layers = (
{
components = (
{
name = A;
},
{
name = circumflexcomb;
transform = "{1, 0, 0, 1, 310, -41}";
}
);
layerId = "51BB9282-3B82-4DF1-A67A-294D3E37D73A";
paths = (
{
closed = 1;
nodes = (
"460 775 LINE",
"471 829 OFFCURVE",
"504 830 OFFCURVE",
"504 887 CURVE SMOOTH",
"504 946 OFFCURVE",
"463 956 OFFCURVE",
"429 956 CURVE SMOOTH",
"401 956 OFFCURVE",
"371 946 OFFCURVE",
"358 940 CURVE",
"352 930 OFFCURVE",
"350 918 OFFCURVE",
"350 906 CURVE SMOOTH",
"350 901 OFFCURVE",
"350 896 OFFCURVE",
"351 892 CURVE",
"366 899 OFFCURVE",
"383 904 OFFCURVE",
"393 904 CURVE SMOOTH",
"423 904 OFFCURVE",
"437 891 OFFCURVE",
"437 864 CURVE SMOOTH",
"437 826 OFFCURVE",
"408 833 OFFCURVE",
"407 772 CURVE"
);
}
);
width = 650;
}
);
unicode = 1EA8;
},
{
glyphname = AE;
lastChange = "2019-01-05 04:56:58 +0000";
layers = (
{
layerId = "51BB9282-3B82-4DF1-A67A-294D3E37D73A";
paths = (
{
closed = 1;
nodes = (
"247 0 LINE",
"239 39 LINE",
"212 39 OFFCURVE",
"193 38 OFFCURVE",
"193 70 CURVE SMOOTH",
"193 81 OFFCURVE",
"195 94 OFFCURVE",
"199 112 CURVE SMOOTH",
"210 164 OFFCURVE",
"323 410 OFFCURVE",
"399 568 CURVE",
"373 548 LINE",
"385 551 OFFCURVE",
"397 554 OFFCURVE",
"407 554 CURVE SMOOTH",
"430 554 OFFCURVE",
"446 543 OFFCURVE",
"448 511 CURVE SMOOTH",
"450 460 OFFCURVE",
"452 405 OFFCURVE",
"452 351 CURVE SMOOTH",
"452 263 OFFCURVE",
"449 176 OFFCURVE",
"444 109 CURVE SMOOTH",
"440 71 OFFCURVE",
"436 52 OFFCURVE",
"377 47 CURVE",
"381 0 LINE",
"831 0 LINE",
"834 40 OFFCURVE",
"834 89 OFFCURVE",
"834 123 CURVE SMOOTH",
"834 163 LINE",
"778 157 LINE",
"767 106 OFFCURVE",
"749 60 OFFCURVE",
"716 22 CURVE",
"776 70 LINE",
"745 62 OFFCURVE",
"668 55 OFFCURVE",
"608 55 CURVE SMOOTH",
"593 55 OFFCURVE",
"574 55 OFFCURVE",
"564 56 CURVE SMOOTH",
"537 59 OFFCURVE",
"533 83 OFFCURVE",
"532 104 CURVE SMOOTH",
"531 146 OFFCURVE",
"529 203 OFFCURVE",
"529 266 CURVE SMOOTH",
"529 343 OFFCURVE",
"531 432 OFFCURVE",
"540 518 CURVE SMOOTH",
"542 539 OFFCURVE",
"551 562 OFFCURVE",
"590 562 CURVE SMOOTH",
"646 562 OFFCURVE",
"716 562 OFFCURVE",
"778 556 CURVE",
"705 594 LINE",
"738 564 OFFCURVE",
"758 511 OFFCURVE",
"763 465 CURVE",
"819 460 LINE",
"819 460 OFFCURVE",
"824 509 OFFCURVE",
"824 554 CURVE",
"823 617 LINE",
"748 613 OFFCURVE",
"662 612 OFFCURVE",
"616 612 CURVE SMOOTH",
"560 612 LINE SMOOTH",
"529 612 OFFCURVE",
"337 616 OFFCURVE",
"333 615 CURVE",
"289 496 OFFCURVE",
"198 289 OFFCURVE",
"104 105 CURVE SMOOTH",
"85 69 OFFCURVE",
"61 50 OFFCURVE",
"15 47 CURVE",
"23 0 LINE"
);
},
{
closed = 1;
nodes = (
"288 276 OFFCURVE",
"610 280 OFFCURVE",
"673 280 CURVE SMOOTH",
"699 280 OFFCURVE",
"726 280 OFFCURVE",
"755 278 CURVE",
"755 348 LINE",
"614 335 LINE",
"521 335 OFFCURVE",
"415 333 OFFCURVE",
"323 333 CURVE SMOOTH",
"289 333 OFFCURVE",
"257 333 OFFCURVE",
"228 334 CURVE",
"220 268 LINE"
);
}
);
width = 887;
}
);
leftMetricsKey = "=A";
unicode = 00C6;
},
{
glyphname = B;
lastChange = "2019-01-05 05:21:57 +0000";
layers = (
{
layerId = "51BB9282-3B82-4DF1-A67A-294D3E37D73A";
paths = (
{
closed = 1;
nodes = (
"288 0 LINE SMOOTH",
"413 0 OFFCURVE",
"536 46 OFFCURVE",
"536 179 CURVE SMOOTH",
"536 257 OFFCURVE",
"483 324 OFFCURVE",
"392 336 CURVE",
"367 317 LINE",
"449 321 OFFCURVE",
"500 401 OFFCURVE",
"500 474 CURVE SMOOTH",
"500 567 OFFCURVE",
"422 618 OFFCURVE",
"317 618 CURVE SMOOTH",
"291 618 OFFCURVE",
"236 616 OFFCURVE",
"205 614 CURVE SMOOTH",
"177 612 OFFCURVE",
"150 612 OFFCURVE",
"118 612 CURVE SMOOTH",
"96 612 OFFCURVE",
"71 612 OFFCURVE",
"42 614 CURVE",
"50 566 LINE",
"116 566 OFFCURVE",
"129 528 OFFCURVE",
"129 484 CURVE SMOOTH",
"129 443 OFFCURVE",
"129 388 OFFCURVE",
"129 340 CURVE SMOOTH",
"129 270 OFFCURVE",
"126 196 OFFCURVE",
"122 98 CURVE SMOOTH",
"120 59 OFFCURVE",
"115 44 OFFCURVE",
"54 44 CURVE",
"62 0 LINE"
);
},
{
closed = 1;
nodes = (
"237 52 OFFCURVE",
"213 58 OFFCURVE",
"207 102 CURVE SMOOTH",
"200 150 OFFCURVE",
"198 196 OFFCURVE",
"198 255 CURVE SMOOTH",
"198 289 LINE",
"222 293 OFFCURVE",
"262 297 OFFCURVE",
"294 297 CURVE SMOOTH",
"389 297 OFFCURVE",
"441 246 OFFCURVE",
"441 176 CURVE SMOOTH",
"441 99 OFFCURVE",
"375 52 OFFCURVE",
"296 52 CURVE SMOOTH"
);
},
{
closed = 1;
nodes = (
"232 346 OFFCURVE",
"216 346 OFFCURVE",
"199 347 CURVE",
"199 428 OFFCURVE",
"200 503 OFFCURVE",
"206 562 CURVE",
"222 568 OFFCURVE",
"252 573 OFFCURVE",
"284 573 CURVE SMOOTH",
"346 573 OFFCURVE",
"405 538 OFFCURVE",
"405 463 CURVE SMOOTH",
"405 415 OFFCURVE",
"377 351 OFFCURVE",
"301 347 CURVE SMOOTH",
"285 346 OFFCURVE",
"267 346 OFFCURVE",
"247 346 CURVE SMOOTH"
);
}
);
width = 567;
}
);
unicode = 0042;
},
{
glyphname = C;
lastChange = "2019-01-05 06:48:38 +0000";
layers = (
{
layerId = "51BB9282-3B82-4DF1-A67A-294D3E37D73A";
paths = (
{
closed = 1;
nodes = (
"411 -18 OFFCURVE",
"488 17 OFFCURVE",
"541 85 CURVE",
"510 118 LINE",
"470 80 OFFCURVE",
"409 48 OFFCURVE",
"343 48 CURVE SMOOTH",
"191 48 OFFCURVE",
"132 148 OFFCURVE",
"132 280 CURVE SMOOTH",
"132 448 OFFCURVE",
"206 552 OFFCURVE",
"329 552 CURVE SMOOTH",
"423 552 OFFCURVE",
"458 509 OFFCURVE",
"468 496 CURVE",
"474 506 OFFCURVE",
"476 514 OFFCURVE",
"476 523 CURVE SMOOTH",
"476 563 OFFCURVE",
"427 581 OFFCURVE",
"396 581 CURVE SMOOTH",
"387 581 OFFCURVE",
"380 580 OFFCURVE",
"377 577 CURVE",
"413 571 OFFCURVE",
"450 494 OFFCURVE",
"475 426 CURVE",
"527 424 LINE",
"532 455 OFFCURVE",
"538 516 OFFCURVE",
"538 552 CURVE SMOOTH",
"538 575 OFFCURVE",
"537 587 OFFCURVE",
"536 595 CURVE",
"520 602 OFFCURVE",
"471 615 OFFCURVE",
"405 615 CURVE SMOOTH",
"182 615 OFFCURVE",
"30 477 OFFCURVE",
"30 246 CURVE SMOOTH",
"30 84 OFFCURVE",
"136 -18 OFFCURVE",
"313 -18 CURVE SMOOTH"
);
}
);
width = 570;
}
);
unicode = 0043;
},
{
glyphname = D;
lastChange = "2019-01-05 05:25:03 +0000";
layers = (
{
layerId = "51BB9282-3B82-4DF1-A67A-294D3E37D73A";
paths = (
{
closed = 1;
nodes = (
"263 0 LINE SMOOTH",
"477 3 OFFCURVE",
"591 158 OFFCURVE",
"591 363 CURVE SMOOTH",
"591 531 OFFCURVE",
"490 619 OFFCURVE",
"328 619 CURVE SMOOTH",
"305 619 OFFCURVE",
"280 618 OFFCURVE",
"251 616 CURVE SMOOTH",
"214 614 OFFCURVE",
"170 612 OFFCURVE",
"119 612 CURVE SMOOTH",
"89 612 OFFCURVE",
"57 613 OFFCURVE",
"22 615 CURVE",
"28 567 LINE",
"99 567 OFFCURVE",
"104 529 OFFCURVE",
"107 484 CURVE SMOOTH",
"110 434 OFFCURVE",
"111 389 OFFCURVE",
"111 341 CURVE SMOOTH",
"111 272 OFFCURVE",
"108 198 OFFCURVE",
"104 100 CURVE SMOOTH",
"102 62 OFFCURVE",
"71 46 OFFCURVE",
"18 46 CURVE",
"25 0 LINE"
);
},
{
closed = 1;
nodes = (
"229 60 OFFCURVE",
"193 75 OFFCURVE",
"188 120 CURVE SMOOTH",
"186 139 OFFCURVE",
"185 171 OFFCURVE",
"185 207 CURVE SMOOTH",
"185 248 OFFCURVE",
"185 293 OFFCURVE",
"187 348 CURVE SMOOTH",
"189 408 OFFCURVE",
"192 489 OFFCURVE",
"197 554 CURVE",
"217 561 OFFCURVE",
"253 568 OFFCURVE",
"292 568 CURVE SMOOTH",
"441 568 OFFCURVE",
"505 462 OFFCURVE",
"505 319 CURVE SMOOTH",
"505 184 OFFCURVE",
"426 60 OFFCURVE",
"297 60 CURVE"
);
}
);
width = 631;
}
);
unicode = 0044;
},
{
glyphname = E;
lastChange = "2019-01-05 05:26:28 +0000";
layers = (
{
layerId = "51BB9282-3B82-4DF1-A67A-294D3E37D73A";
paths = (
{
closed = 1;
nodes = (
"481 0 LINE",
"484 40 OFFCURVE",
"484 89 OFFCURVE",
"484 123 CURVE SMOOTH",
"484 163 LINE",
"429 157 LINE",
"417 106 OFFCURVE",
"400 60 OFFCURVE",
"367 22 CURVE",
"427 70 LINE",
"395 62 OFFCURVE",
"319 55 OFFCURVE",
"258 55 CURVE SMOOTH",
"243 55 OFFCURVE",
"225 55 OFFCURVE",
"215 56 CURVE SMOOTH",
"187 59 OFFCURVE",
"183 83 OFFCURVE",
"182 104 CURVE SMOOTH",
"180 146 OFFCURVE",
"179 203 OFFCURVE",
"179 266 CURVE SMOOTH",
"179 343 OFFCURVE",
"182 433 OFFCURVE",
"190 518 CURVE SMOOTH",
"192 541 OFFCURVE",
"202 564 OFFCURVE",
"240 564 CURVE SMOOTH",
"296 564 OFFCURVE",
"367 562 OFFCURVE",
"429 556 CURVE",
"356 594 LINE",
"389 564 OFFCURVE",
"408 511 OFFCURVE",
"413 465 CURVE",
"469 460 LINE",
"471 480 OFFCURVE",
"475 527 OFFCURVE",
"475 565 CURVE SMOOTH",
"475 582 OFFCURVE",
"475 600 OFFCURVE",
"474 617 CURVE",
"399 613 OFFCURVE",
"313 612 OFFCURVE",
"266 612 CURVE SMOOTH",
"210 612 LINE SMOOTH",
"148 612 OFFCURVE",
"72 613 OFFCURVE",
"28 616 CURVE",
"32 569 LINE",
"85 569 OFFCURVE",
"97 547 OFFCURVE",
"99 511 CURVE SMOOTH",
"102 460 OFFCURVE",
"102 405 OFFCURVE",
"102 351 CURVE SMOOTH",
"102 263 OFFCURVE",
"99 176 OFFCURVE",
"94 109 CURVE SMOOTH",
"91 71 OFFCURVE",
"86 52 OFFCURVE",
"27 47 CURVE",
"32 0 LINE"
);
},
{
closed = 1;
nodes = (
"190 285 OFFCURVE",
"260 287 OFFCURVE",
"323 287 CURVE SMOOTH",
"350 287 OFFCURVE",
"377 287 OFFCURVE",
"405 285 CURVE",
"405 355 LINE",
"288 341 LINE",
"132 341 LINE",
"132 283 LINE"
);
}
);
width = 537;
}
);
unicode = 0045;
},
{
glyphname = F;
lastChange = "2019-01-05 05:27:48 +0000";
layers = (
{
layerId = "51BB9282-3B82-4DF1-A67A-294D3E37D73A";
paths = (
{
closed = 1;
nodes = (
"270 0 LINE",
"263 39 LINE",
"249 39 OFFCURVE",
"190 39 OFFCURVE",
"187 112 CURVE SMOOTH",
"186 135 OFFCURVE",
"186 183 OFFCURVE",
"186 243 CURVE SMOOTH",
"186 320 OFFCURVE",
"187 419 OFFCURVE",
"194 511 CURVE SMOOTH",
"196 543 OFFCURVE",
"218 559 OFFCURVE",
"253 559 CURVE SMOOTH",
"284 559 OFFCURVE",
"366 557 OFFCURVE",
"437 554 CURVE",
"371 594 LINE",
"404 564 OFFCURVE",
"424 504 OFFCURVE",
"429 459 CURVE",
"484 453 LINE",
"487 473 OFFCURVE",
"490 513 OFFCURVE",
"490 554 CURVE SMOOTH",
"490 575 OFFCURVE",
"490 596 OFFCURVE",
"489 617 CURVE",
"391 613 OFFCURVE",
"306 611 OFFCURVE",
"240 611 CURVE SMOOTH",
"176 611 OFFCURVE",
"92 611 OFFCURVE",
"33 616 CURVE",
"38 568 LINE",
"96 568 OFFCURVE",
"103 547 OFFCURVE",
"105 511 CURVE SMOOTH",
"108 457 OFFCURVE",
"109 398 OFFCURVE",
"109 340 CURVE SMOOTH",
"109 253 OFFCURVE",
"106 169 OFFCURVE",
"102 109 CURVE SMOOTH",
"99 68 OFFCURVE",
"85 52 OFFCURVE",
"25 47 CURVE",
"30 0 LINE"
);
},
{
closed = 1;
nodes = (
"190 295 OFFCURVE",
"260 297 OFFCURVE",
"323 297 CURVE SMOOTH",
"350 297 OFFCURVE",
"377 297 OFFCURVE",
"405 295 CURVE",
"405 365 LINE",
"288 351 LINE",
"132 351 LINE",
"132 293 LINE"
);
}
);
width = 514;
}
);
unicode = 0046;
},
{
glyphname = G;
lastChange = "2019-01-05 06:48:30 +0000";
layers = (
{
layerId = "51BB9282-3B82-4DF1-A67A-294D3E37D73A";
paths = (
{
closed = 1;
nodes = (
"391 -21 OFFCURVE",
"492 1 OFFCURVE",
"548 82 CURVE",
"498 106 LINE",
"463 66 OFFCURVE",
"424 40 OFFCURVE",
"340 40 CURVE SMOOTH",
"200 40 OFFCURVE",
"129 158 OFFCURVE",
"129 289 CURVE SMOOTH",
"129 446 OFFCURVE",
"226 565 OFFCURVE",
"346 565 CURVE SMOOTH",
"438 565 OFFCURVE",
"487 533 OFFCURVE",
"508 510 CURVE",
"513 519 OFFCURVE",
"515 527 OFFCURVE",
"515 535 CURVE SMOOTH",
"515 572 OFFCURVE",
"459 587 OFFCURVE",
"424 587 CURVE SMOOTH",
"411 587 OFFCURVE",
"401 585 OFFCURVE",
"398 581 CURVE",
"434 576 OFFCURVE",
"472 520 OFFCURVE",
"497 452 CURVE",
"557 450 LINE",
"558 463 OFFCURVE",
"558 485 OFFCURVE",
"558 509 CURVE SMOOTH",
"558 552 OFFCURVE",
"555 581 OFFCURVE",
"553 598 CURVE",
"542 602 OFFCURVE",
"489 619 OFFCURVE",
"399 619 CURVE SMOOTH",
"148 619 OFFCURVE",
"30 442 OFFCURVE",
"30 253 CURVE SMOOTH",
"30 91 OFFCURVE",
"150 -21 OFFCURVE",
"316 -21 CURVE SMOOTH"
);
},
{
closed = 1;
nodes = (
"548 82 LINE",
"551 201 LINE SMOOTH",
"552 247 OFFCURVE",
"584 254 OFFCURVE",
"604 254 CURVE SMOOTH",
"610 254 OFFCURVE",
"614 254 OFFCURVE",
"617 254 CURVE",
"609 300 LINE",
"573 298 OFFCURVE",
"526 296 OFFCURVE",
"487 296 CURVE SMOOTH",
"454 296 OFFCURVE",
"421 297 OFFCURVE",
"382 300 CURVE",
"387 251 LINE",
"440 251 OFFCURVE",
"464 236 OFFCURVE",
"464 203 CURVE SMOOTH",
"464 148 OFFCURVE",
"473 83 OFFCURVE",
"454 35 LINE"
);
}
);
width = 641;
}
);
unicode = 0047;
},
{
glyphname = H;
lastChange = "2019-01-05 05:33:39 +0000";
layers = (
{
layerId = "51BB9282-3B82-4DF1-A67A-294D3E37D73A";
paths = (
{
closed = 1;
nodes = (
"298 0 LINE",
"290 46 LINE",
"249 46 OFFCURVE",
"208 63 OFFCURVE",
"206 118 CURVE SMOOTH",
"204 169 OFFCURVE",
"203 217 OFFCURVE",
"203 261 CURVE SMOOTH",
"203 359 OFFCURVE",
"206 441 OFFCURVE",
"213 511 CURVE SMOOTH",
"218 559 OFFCURVE",
"248 564 OFFCURVE",
"295 567 CURVE",
"289 617 LINE",
"248 615 OFFCURVE",
"199 613 OFFCURVE",
"149 613 CURVE SMOOTH",
"109 613 OFFCURVE",
"68 614 OFFCURVE",
"27 616 CURVE",
"34 567 LINE",
"109 567 OFFCURVE",
"117 537 OFFCURVE",
"119 491 CURVE SMOOTH",
"121 440 OFFCURVE",
"122 387 OFFCURVE",
"122 336 CURVE SMOOTH",
"122 245 OFFCURVE",
"119 161 OFFCURVE",
"116 106 CURVE SMOOTH",
"113 58 OFFCURVE",
"79 49 OFFCURVE",
"30 49 CURVE",
"36 0 LINE"
);
},
{
closed = 1;
nodes = (
"567 276 LINE",
"567 341 LINE",
"410 335 LINE",
"149 335 LINE",
"149 276 LINE"
);
},
{
closed = 1;
nodes = (
"670 0 LINE",
"661 47 LINE",
"621 47 OFFCURVE",
"580 63 OFFCURVE",
"578 118 CURVE SMOOTH",
"576 170 OFFCURVE",
"575 218 OFFCURVE",
"575 263 CURVE SMOOTH",
"575 360 OFFCURVE",
"579 442 OFFCURVE",
"584 511 CURVE SMOOTH",
"587 559 OFFCURVE",
"620 564 OFFCURVE",
"667 567 CURVE",
"661 617 LINE",
"619 615 OFFCURVE",
"571 613 OFFCURVE",
"521 613 CURVE SMOOTH",
"482 613 OFFCURVE",
"441 614 OFFCURVE",
"400 616 CURVE",
"407 567 LINE",
"483 567 OFFCURVE",
"490 537 OFFCURVE",
"492 491 CURVE SMOOTH",
"494 438 OFFCURVE",
"495 383 OFFCURVE",
"495 331 CURVE SMOOTH",
"495 242 OFFCURVE",
"493 160 OFFCURVE",
"490 106 CURVE SMOOTH",
"487 58 OFFCURVE",
"452 49 OFFCURVE",
"403 49 CURVE",
"410 0 LINE"
);
}
);
width = 693;
}
);
unicode = 0048;
},
{
glyphname = Hbar;
lastChange = "2019-01-05 08:32:28 +0000";
layers = (
{
components = (
{
name = H;
}
);
layerId = "51BB9282-3B82-4DF1-A67A-294D3E37D73A";
paths = (
{
closed = 1;
nodes = (
"651 399 LINE",
"651 461 LINE",
"402 455 LINE",
"36 455 LINE",
"36 399 LINE"
);
}
);
width = 693;
}
);
unicode = 0126;
},
{
glyphname = I;
lastChange = "2019-01-05 05:33:20 +0000";
layers = (
{
layerId = "51BB9282-3B82-4DF1-A67A-294D3E37D73A";
paths = (
{
closed = 1;
nodes = (
"287 0 LINE",
"279 39 LINE",
"239 39 OFFCURVE",
"200 63 OFFCURVE",
"198 118 CURVE SMOOTH",
"196 169 OFFCURVE",
"195 216 OFFCURVE",
"195 259 CURVE SMOOTH",
"195 358 OFFCURVE",
"199 440 OFFCURVE",
"205 511 CURVE SMOOTH",
"209 559 OFFCURVE",
"240 567 OFFCURVE",
"287 569 CURVE",
"281 617 LINE",
"239 615 OFFCURVE",
"192 613 OFFCURVE",
"143 613 CURVE SMOOTH",
"104 613 OFFCURVE",
"64 614 OFFCURVE",
"23 616 CURVE",
"30 567 LINE",
"105 567 OFFCURVE",
"113 537 OFFCURVE",
"115 491 CURVE SMOOTH",
"117 440 OFFCURVE",
"118 387 OFFCURVE",
"118 336 CURVE SMOOTH",
"118 245 OFFCURVE",
"115 161 OFFCURVE",
"112 106 CURVE SMOOTH",
"109 58 OFFCURVE",
"75 48 OFFCURVE",
"26 48 CURVE",
"32 0 LINE"
);
}
);
width = 315;
}
);
unicode = 0049;
},
{
glyphname = J;
lastChange = "2019-01-05 05:38:06 +0000";
layers = (
{
layerId = "51BB9282-3B82-4DF1-A67A-294D3E37D73A";
paths = (
{
closed = 1;
nodes = (
"187 -141 OFFCURVE",
"210 -42 OFFCURVE",
"210 20 CURVE SMOOTH",
"210 66 OFFCURVE",
"210 117 OFFCURVE",
"208 170 CURVE SMOOTH",
"206 225 OFFCURVE",
"206 282 OFFCURVE",
"206 334 CURVE SMOOTH",
"206 390 OFFCURVE",
"206 452 OFFCURVE",
"211 492 CURVE SMOOTH",
"217 544 OFFCURVE",
"239 564 OFFCURVE",
"294 567 CURVE",
"288 617 LINE",
"236 614 OFFCURVE",
"193 612 OFFCURVE",
"151 612 CURVE SMOOTH",
"112 612 OFFCURVE",
"64 614 OFFCURVE",
"31 616 CURVE",
"36 567 LINE",
"59 567 OFFCURVE",
"116 565 OFFCURVE",
"119 503 CURVE SMOOTH",
"124 383 OFFCURVE",
"129 218 OFFCURVE",
"129 114 CURVE SMOOTH",
"129 96 OFFCURVE",
"129 79 OFFCURVE",
"128 65 CURVE SMOOTH",
"125 25 OFFCURVE",
"111 -75 OFFCURVE",
"27 -75 CURVE SMOOTH",
"5 -75 OFFCURVE",
"-14 -69 OFFCURVE",
"-26 -64 CURVE",
"-46 -100 LINE",
"-35 -113 OFFCURVE",
"-4 -141 OFFCURVE",
"59 -141 CURVE SMOOTH"
);
}
);
width = 325;
}
);
unicode = 004A;
},
{
glyphname = K;
lastChange = "2019-01-05 05:49:02 +0000";
layers = (
{
layerId = "51BB9282-3B82-4DF1-A67A-294D3E37D73A";
paths = (
{
closed = 1;
nodes = (
"631 0 LINE",
"621 46 LINE",
"612 46 LINE SMOOTH",
"546 46 OFFCURVE",
"391 260 OFFCURVE",
"336 346 CURVE",
"320 315 LINE",
"361 359 OFFCURVE",
"472 480 OFFCURVE",
"514 527 CURVE SMOOTH",
"537 552 OFFCURVE",
"557 571 OFFCURVE",
"588 571 CURVE",
"581 616 LINE",
"560 614 OFFCURVE",
"513 613 OFFCURVE",
"449 613 CURVE SMOOTH",
"425 613 OFFCURVE",
"401 613 OFFCURVE",
"378 614 CURVE",
"385 567 LINE",
"425 567 OFFCURVE",
"438 558 OFFCURVE",
"438 546 CURVE SMOOTH",
"438 541 OFFCURVE",
"436 536 OFFCURVE",
"432 531 CURVE SMOOTH",
"370 450 OFFCURVE",
"278 353 OFFCURVE",
"249 326 CURVE",
"257 301 LINE",
"321 239 OFFCURVE",
"406 117 OFFCURVE",
"419 97 CURVE SMOOTH",
"428 83 OFFCURVE",
"432 73 OFFCURVE",
"432 66 CURVE SMOOTH",
"432 45 OFFCURVE",
"404 43 OFFCURVE",
"384 43 CURVE",
"395 0 LINE"
);
},
{
closed = 1;
nodes = (
"301 -1 LINE",
"293 41 LINE",
"253 41 OFFCURVE",
"210 55 OFFCURVE",
"208 110 CURVE SMOOTH",
"206 161 OFFCURVE",
"205 209 OFFCURVE",
"205 254 CURVE SMOOTH",
"205 355 OFFCURVE",
"209 441 OFFCURVE",
"215 511 CURVE SMOOTH",
"219 560 OFFCURVE",
"266 567 OFFCURVE",
"306 567 CURVE",
"300 617 LINE",
"254 614 OFFCURVE",
"210 613 OFFCURVE",
"164 613 CURVE SMOOTH",
"126 613 OFFCURVE",
"87 614 OFFCURVE",
"45 616 CURVE",
"51 567 LINE",
"111 567 OFFCURVE",
"129 544 OFFCURVE",
"129 495 CURVE SMOOTH",
"129 354 OFFCURVE",
"129 193 OFFCURVE",
"125 108 CURVE SMOOTH",
"123 69 OFFCURVE",
"101 49 OFFCURVE",
"50 49 CURVE",
"56 -1 LINE"
);
}
);
width = 656;
}
);
unicode = 004B;
},
{
glyphname = L;
lastChange = "2019-01-05 05:40:59 +0000";
layers = (
{
layerId = "51BB9282-3B82-4DF1-A67A-294D3E37D73A";
paths = (
{
closed = 1;
nodes = (
"494 0 LINE",
"496 10 OFFCURVE",
"497 39 OFFCURVE",
"497 71 CURVE SMOOTH",
"497 107 OFFCURVE",
"496 145 OFFCURVE",
"494 163 CURVE",
"437 157 LINE",
"433 128 OFFCURVE",
"422 92 OFFCURVE",
"407 63 CURVE",
"378 59 OFFCURVE",
"320 55 OFFCURVE",
"275 55 CURVE SMOOTH",
"261 55 OFFCURVE",
"259 55 OFFCURVE",
"248 56 CURVE SMOOTH",
"222 58 OFFCURVE",
"205 75 OFFCURVE",
"204 105 CURVE SMOOTH",
"202 159 OFFCURVE",
"202 177 OFFCURVE",
"202 197 CURVE SMOOTH",
"202 224 OFFCURVE",
"205 400 OFFCURVE",
"216 518 CURVE SMOOTH",
"220 564 OFFCURVE",
"245 568 OFFCURVE",
"299 568 CURVE",
"293 615 LINE",
"257 613 OFFCURVE",
"211 612 OFFCURVE",
"162 612 CURVE SMOOTH",
"121 612 OFFCURVE",
"79 613 OFFCURVE",
"41 616 CURVE",
"45 569 LINE",
"99 569 OFFCURVE",
"121 547 OFFCURVE",
"123 511 CURVE SMOOTH",
"126 452 OFFCURVE",
"128 386 OFFCURVE",
"128 323 CURVE SMOOTH",
"128 244 OFFCURVE",
"125 169 OFFCURVE",
"119 113 CURVE SMOOTH",
"114 63 OFFCURVE",
"89 49 OFFCURVE",
"41 49 CURVE",
"47 0 LINE"
);
}
);
width = 528;
}
);
unicode = 004C;
},
{
glyphname = M;
lastChange = "2019-01-05 05:43:08 +0000";
layers = (
{
layerId = "51BB9282-3B82-4DF1-A67A-294D3E37D73A";
paths = (
{
closed = 1;
nodes = (
"855 41 LINE",
"798 41 OFFCURVE",
"778 53 OFFCURVE",
"774 117 CURVE SMOOTH",
"770 173 OFFCURVE",
"768 261 OFFCURVE",
"768 351 CURVE SMOOTH",
"768 401 OFFCURVE",
"768 450 OFFCURVE",
"770 495 CURVE SMOOTH",
"773 557 OFFCURVE",
"804 567 OFFCURVE",
"858 567 CURVE",
"851 616 LINE",
"808 613 OFFCURVE",
"764 612 OFFCURVE",
"725 612 CURVE SMOOTH",
"695 612 OFFCURVE",
"667 613 OFFCURVE",
"646 614 CURVE",
"419 62 LINE",
"475 41 LINE",
"536 197 OFFCURVE",
"598 340 OFFCURVE",
"655 466 CURVE",
"689 580 LINE",
"680 562 LINE",
"684 497 OFFCURVE",
"686 402 OFFCURVE",
"686 315 CURVE SMOOTH",
"686 215 OFFCURVE",
"684 126 OFFCURVE",
"681 107 CURVE SMOOTH",
"673 53 OFFCURVE",
"644 45 OFFCURVE",
"597 45 CURVE",
"604 1 LINE",
"862 1 LINE"
);
},
{
closed = 1;
nodes = (
"289 1 LINE",
"280 42 LINE",
"233 42 OFFCURVE",
"215 53 OFFCURVE",
"208 97 CURVE SMOOTH",
"203 129 OFFCURVE",
"200 244 OFFCURVE",
"200 361 CURVE SMOOTH",
"200 426 OFFCURVE",
"201 491 OFFCURVE",
"204 541 CURVE",
"198 551 LINE",
"230 438 LINE",
"303 316 OFFCURVE",
"407 83 OFFCURVE",
"421 25 CURVE",
"474 41 LINE",
"453 69 LINE",
"435 204 LINE",
"405 324 OFFCURVE",
"276 551 OFFCURVE",
"238 615 CURVE",
"203 613 OFFCURVE",
"171 613 OFFCURVE",
"139 613 CURVE SMOOTH",
"107 613 OFFCURVE",
"74 614 OFFCURVE",
"36 616 CURVE",
"42 567 LINE",
"88 567 OFFCURVE",
"135 559 OFFCURVE",
"135 497 CURVE SMOOTH",
"135 386 LINE SMOOTH",
"135 284 OFFCURVE",
"134 179 OFFCURVE",
"130 117 CURVE SMOOTH",
"126 61 OFFCURVE",
"94 45 OFFCURVE",
"38 45 CURVE",
"44 1 LINE"
);
}
);
width = 888;
}
);
unicode = 004D;
},
{
glyphname = N;
lastChange = "2019-01-05 05:45:41 +0000";
layers = (
{
layerId = "51BB9282-3B82-4DF1-A67A-294D3E37D73A";
paths = (
{
closed = 1;
nodes = (
"553 -4 OFFCURVE",
"576 0 OFFCURVE",
"614 2 CURVE",
"611 80 OFFCURVE",
"609 166 OFFCURVE",
"609 251 CURVE SMOOTH",
"609 347 OFFCURVE",
"612 439 OFFCURVE",
"618 512 CURVE SMOOTH",
"621 554 OFFCURVE",
"643 568 OFFCURVE",
"690 568 CURVE",
"683 617 LINE",
"636 611 OFFCURVE",
"604 611 OFFCURVE",
"573 611 CURVE SMOOTH",
"517 611 OFFCURVE",
"487 613 OFFCURVE",
"444 616 CURVE",
"451 567 LINE",
"505 567 OFFCURVE",
"530 557 OFFCURVE",
"535 487 CURVE SMOOTH",
"538 442 OFFCURVE",
"540 364 OFFCURVE",
"540 286 CURVE SMOOTH",
"540 196 OFFCURVE",
"538 107 OFFCURVE",
"530 74 CURVE",
"549 54 LINE",
"504 205 LINE",
"415 338 OFFCURVE",
"277 542 OFFCURVE",
"226 614 CURVE",
"190 612 OFFCURVE",
"159 612 OFFCURVE",
"129 612 CURVE SMOOTH",
"96 612 OFFCURVE",
"63 613 OFFCURVE",
"22 616 CURVE",
"28 567 LINE",
"82 567 OFFCURVE",
"108 541 OFFCURVE",
"111 496 CURVE SMOOTH",
"113 465 OFFCURVE",
"113 374 OFFCURVE",
"113 323 CURVE SMOOTH",
"113 299 OFFCURVE",
"111 192 OFFCURVE",
"106 115 CURVE SMOOTH",
"102 61 OFFCURVE",
"80 47 OFFCURVE",
"24 47 CURVE",
"30 -1 LINE",
"269 -1 LINE",
"262 43 LINE",
"222 43 OFFCURVE",
"193 55 OFFCURVE",
"185 109 CURVE SMOOTH",
"182 128 OFFCURVE",
"180 210 OFFCURVE",
"180 303 CURVE SMOOTH",
"180 384 OFFCURVE",
"182 490 OFFCURVE",
"186 555 CURVE",
"176 555 LINE",
"176 553 LINE",
"222 442 LINE",
"315 315 OFFCURVE",
"410 186 OFFCURVE",
"531 -11 CURVE"
);
}
);
width = 713;
}
);
unicode = 004E;
},
{
glyphname = Eng;
lastChange = "2019-01-05 04:56:58 +0000";
layers = (
{
layerId = "51BB9282-3B82-4DF1-A67A-294D3E37D73A";
paths = (
{
closed = 1;
nodes = (
"553 -244 OFFCURVE",
"614 -173 OFFCURVE",
"614 -91 CURVE SMOOTH",
"614 34 OFFCURVE",
"612 157 OFFCURVE",
"612 262 CURVE SMOOTH",
"612 367 OFFCURVE",
"613 455 OFFCURVE",
"618 512 CURVE SMOOTH",
"621 554 OFFCURVE",
"643 569 OFFCURVE",
"690 568 CURVE",
"683 617 LINE",
"636 611 OFFCURVE",
"604 611 OFFCURVE",
"573 611 CURVE SMOOTH",
"517 611 OFFCURVE",
"487 613 OFFCURVE",
"444 616 CURVE",
"446 609 OFFCURVE",
"449 579 OFFCURVE",
"451 567 CURVE",
"505 567 OFFCURVE",
"530 557 OFFCURVE",
"535 487 CURVE SMOOTH",
"540 416 OFFCURVE",
"547 260 OFFCURVE",
"547 160 CURVE SMOOTH",
"547 126 OFFCURVE",
"546 98 OFFCURVE",
"544 82 CURVE",
"551 69 LINE",
"547 81 OFFCURVE",
"526 172 OFFCURVE",
"504 205 CURVE SMOOTH",
"410 338 OFFCURVE",
"273 542 OFFCURVE",
"226 614 CURVE",
"189 613 OFFCURVE",
"159 612 OFFCURVE",
"129 612 CURVE SMOOTH",
"96 612 OFFCURVE",
"63 613 OFFCURVE",
"22 616 CURVE",
"23 609 OFFCURVE",
"25 579 OFFCURVE",
"28 567 CURVE",
"82 567 OFFCURVE",
"111 542 OFFCURVE",
"112 487 CURVE SMOOTH",
"112 403 LINE SMOOTH",
"112 299 OFFCURVE",
"111 192 OFFCURVE",
"106 125 CURVE SMOOTH",
"102 61 OFFCURVE",
"80 48 OFFCURVE",
"24 47 CURVE",
"30 -1 LINE",
"269 0 LINE",
"262 43 LINE",
"222 43 OFFCURVE",
"193 55 OFFCURVE",
"185 109 CURVE SMOOTH",
"182 128 OFFCURVE",
"180 210 OFFCURVE",
"180 303 CURVE SMOOTH",
"180 384 OFFCURVE",
"182 474 OFFCURVE",
"186 539 CURVE",
"176 555 LINE",
"176 555 OFFCURVE",
"177 555 OFFCURVE",
"177 554 CURVE",
"180 550 OFFCURVE",
"219 446 OFFCURVE",
"222 442 CURVE SMOOTH",
"329 295 OFFCURVE",
"411 192 OFFCURVE",
"541 -5 CURVE",
"543 -7 LINE",
"543 -40 LINE SMOOTH",
"543 -147 OFFCURVE",
"496 -196 OFFCURVE",
"443 -196 CURVE SMOOTH",
"436 -196 OFFCURVE",
"428 -195 OFFCURVE",
"420 -193 CURVE",
"440 -226 LINE",
"429 -204 OFFCURVE",
"413 -181 OFFCURVE",
"410 -132 CURVE",
"365 -131 LINE",
"357 -154 OFFCURVE",
"353 -179 OFFCURVE",
"351 -203 CURVE",
"367 -226 OFFCURVE",
"417 -244 OFFCURVE",
"463 -244 CURVE SMOOTH"
);
}
);
width = 713;
}
);
leftMetricsKey = "=N";
rightMetricsKey = "=N";
unicode = 014A;
},
{
glyphname = O;
lastChange = "2019-01-05 05:57:30 +0000";
layers = (
{
layerId = "51BB9282-3B82-4DF1-A67A-294D3E37D73A";
paths = (
{
closed = 1;
nodes = (
"480 -12 OFFCURVE",
"592 119 OFFCURVE",
"592 336 CURVE SMOOTH",
"592 522 OFFCURVE",
"479 619 OFFCURVE",
"338 619 CURVE SMOOTH",
"167 619 OFFCURVE",
"36 477 OFFCURVE",
"36 263 CURVE SMOOTH",
"36 117 OFFCURVE",
"128 -12 OFFCURVE",
"303 -12 CURVE SMOOTH"
);
},
{
closed = 1;
nodes = (
"199 47 OFFCURVE",
"129 156 OFFCURVE",
"129 304 CURVE SMOOTH",
"129 488 OFFCURVE",
"230 565 OFFCURVE",
"316 565 CURVE SMOOTH",
"419 565 OFFCURVE",
"494 459 OFFCURVE",
"494 322 CURVE SMOOTH",
"494 162 OFFCURVE",
"434 47 OFFCURVE",
"315 47 CURVE SMOOTH"
);
}
);
width = 630;
}
);
unicode = 004F;
},
{
glyphname = P;
lastChange = "2019-01-05 05:56:17 +0000";
layers = (
{
layerId = "51BB9282-3B82-4DF1-A67A-294D3E37D73A";
paths = (
{
closed = 1;
nodes = (
"290 0 LINE",
"280 43 LINE",
"239 43 OFFCURVE",
"192 52 OFFCURVE",
"187 96 CURVE SMOOTH",
"182 139 OFFCURVE",
"182 191 OFFCURVE",
"182 270 CURVE",
"151 264 LINE",
"151 263 OFFCURVE",
"151 263 OFFCURVE",
"152 263 CURVE",
"178 248 OFFCURVE",
"227 236 OFFCURVE",
"273 236 CURVE SMOOTH",
"430 236 OFFCURVE",
"513 339 OFFCURVE",
"513 464 CURVE SMOOTH",
"513 550 OFFCURVE",
"456 619 OFFCURVE",
"309 619 CURVE SMOOTH",
"271 619 OFFCURVE",
"228 618 OFFCURVE",
"189 616 CURVE SMOOTH",
"152 614 OFFCURVE",
"117 613 OFFCURVE",
"88 613 CURVE SMOOTH",
"66 613 OFFCURVE",
"42 613 OFFCURVE",
"18 615 CURVE",
"22 567 LINE",
"88 564 OFFCURVE",
"98 529 OFFCURVE",
"101 484 CURVE SMOOTH",
"104 438 OFFCURVE",
"106 376 OFFCURVE",
"106 302 CURVE SMOOTH",
"106 243 OFFCURVE",
"104 175 OFFCURVE",
"98 101 CURVE SMOOTH",
"95 62 OFFCURVE",
"80 47 OFFCURVE",
"27 47 CURVE",
"35 0 LINE"
);
},
{
closed = 1;
nodes = (
"230 289 OFFCURVE",
"195 311 OFFCURVE",
"184 324 CURVE",
"184 434 LINE SMOOTH",
"184 482 OFFCURVE",
"185 529 OFFCURVE",
"188 563 CURVE",
"202 570 OFFCURVE",
"225 575 OFFCURVE",
"251 575 CURVE SMOOTH",
"359 575 OFFCURVE",
"415 521 OFFCURVE",
"415 444 CURVE SMOOTH",
"415 374 OFFCURVE",
"390 289 OFFCURVE",
"286 289 CURVE SMOOTH"
);
}
);
width = 543;
}
);
unicode = 0050;
},
{
glyphname = Thorn;
lastChange = "2019-01-05 04:56:29 +0000";
layers = (
{
components = (
{
name = I;
}
);
layerId = "51BB9282-3B82-4DF1-A67A-294D3E37D73A";
paths = (
{
closed = 1;
nodes = (
"380 153 OFFCURVE",
"514 213 OFFCURVE",
"514 353 CURVE SMOOTH",
"514 464 OFFCURVE",
"427 514 OFFCURVE",
"322 514 CURVE SMOOTH",
"270 514 OFFCURVE",
"219 507 OFFCURVE",
"193 500 CURVE",
"193 457 LINE",
"207 465 OFFCURVE",
"268 467 OFFCURVE",
"292 467 CURVE SMOOTH",
"377 465 OFFCURVE",
"414 415 OFFCURVE",
"414 357 CURVE SMOOTH",
"414 266 OFFCURVE",
"367 199 OFFCURVE",
"281 199 CURVE SMOOTH",
"223 199 OFFCURVE",
"182 231 OFFCURVE",
"182 231 CURVE",
"152 163 LINE",
"169 156 OFFCURVE",
"199 153 OFFCURVE",
"232 153 CURVE SMOOTH"
);
}
);
width = 544;
}
);
rightMetricsKey = "=30";
unicode = 00DE;
},
{
glyphname = Q;
lastChange = "2019-01-05 08:24:15 +0000";
layers = (
{
components = (
{
name = O;
}
);
layerId = "51BB9282-3B82-4DF1-A67A-294D3E37D73A";
paths = (
{
closed = 1;
nodes = (
"741 -185 OFFCURVE",
"793 -177 OFFCURVE",
"841 -165 CURVE",
"849 -90 LINE",
"837 -74 LINE",
"821 -80 OFFCURVE",
"766 -99 OFFCURVE",
"679 -99 CURVE SMOOTH",
"594 -99 OFFCURVE",
"429 -64 OFFCURVE",
"385 16 CURVE",
"330 9 LINE",
"353 -45 OFFCURVE",
"466 -185 OFFCURVE",
"684 -185 CURVE SMOOTH"
);
}
);
width = 648;
}
);
unicode = 0051;
},
{
glyphname = R;
lastChange = "2019-01-05 08:50:06 +0000";
layers = (
{
layerId = "51BB9282-3B82-4DF1-A67A-294D3E37D73A";
paths = (
{
closed = 1;
nodes = (
"599 0 LINE",
"590 46 LINE",
"517 46 OFFCURVE",
"399 239 OFFCURVE",
"359 319 CURVE",
"280 298 LINE",
"352 129 OFFCURVE",
"427 32 OFFCURVE",
"464 0 CURVE"
);
},
{
closed = 1;
nodes = (
"290 0 LINE",
"280 43 LINE",
"239 43 OFFCURVE",
"192 52 OFFCURVE",
"187 96 CURVE SMOOTH",
"182 139 OFFCURVE",
"182 211 OFFCURVE",
"182 290 CURVE",
"151 284 LINE",
"151 283 OFFCURVE",
"151 283 OFFCURVE",
"152 283 CURVE",
"178 268 OFFCURVE",
"227 256 OFFCURVE",
"282 256 CURVE SMOOTH",
"420 256 OFFCURVE",
"513 339 OFFCURVE",
"513 456 CURVE SMOOTH",
"513 556 OFFCURVE",
"436 619 OFFCURVE",
"309 619 CURVE SMOOTH",
"271 619 OFFCURVE",
"228 618 OFFCURVE",
"189 616 CURVE SMOOTH",
"152 614 OFFCURVE",
"117 613 OFFCURVE",
"88 613 CURVE SMOOTH",
"66 613 OFFCURVE",
"42 613 OFFCURVE",
"18 615 CURVE",
"22 567 LINE",
"88 564 OFFCURVE",
"98 529 OFFCURVE",
"101 484 CURVE SMOOTH",
"104 438 OFFCURVE",
"106 376 OFFCURVE",
"106 302 CURVE SMOOTH",
"106 243 OFFCURVE",
"104 175 OFFCURVE",
"98 101 CURVE SMOOTH",
"95 62 OFFCURVE",
"80 47 OFFCURVE",
"27 47 CURVE",
"35 0 LINE"
);
},
{
closed = 1;
nodes = (
"230 313 OFFCURVE",
"195 338 OFFCURVE",
"184 351 CURVE",
"184 434 LINE SMOOTH",
"184 482 OFFCURVE",
"185 525 OFFCURVE",
"188 559 CURVE",
"202 566 OFFCURVE",
"225 575 OFFCURVE",
"270 575 CURVE SMOOTH",
"359 575 OFFCURVE",
"419 529 OFFCURVE",
"419 442 CURVE SMOOTH",
"419 382 OFFCURVE",
"390 313 OFFCURVE",
"281 313 CURVE SMOOTH"
);
}
);
width = 609;
},
{
associatedMasterId = "51BB9282-3B82-4DF1-A67A-294D3E37D73A";
layerId = "ACE421DA-8B1A-4B0A-8718-8543C7DB01E9";
name = "Jan 5 19, 11:26";
paths = (
{
closed = 1;
nodes = (
"282 0 LINE",
"272 43 LINE",
"231 43 OFFCURVE",
"203 52 OFFCURVE",
"199 96 CURVE SMOOTH",
"195 129 OFFCURVE",
"194 195 OFFCURVE",
"194 259 CURVE SMOOTH",
"194 314 LINE",
"174 283 LINE",
"189 279 OFFCURVE",
"243 272 OFFCURVE",
"282 272 CURVE SMOOTH",
"395 273 OFFCURVE",
"507 348 OFFCURVE",
"507 473 CURVE SMOOTH",
"507 559 OFFCURVE",
"459 621 OFFCURVE",
"340 621 CURVE SMOOTH",
"258 621 OFFCURVE",
"183 615 OFFCURVE",
"105 615 CURVE SMOOTH",
"80 615 OFFCURVE",
"55 615 OFFCURVE",
"29 617 CURVE",
"33 568 LINE",
"99 566 OFFCURVE",
"109 531 OFFCURVE",
"112 486 CURVE SMOOTH",
"115 438 OFFCURVE",
"116 392 OFFCURVE",
"116 346 CURVE SMOOTH",
"116 275 OFFCURVE",
"113 200 OFFCURVE",
"109 101 CURVE SMOOTH",
"108 62 OFFCURVE",
"92 47 OFFCURVE",
"39 47 CURVE",
"46 0 LINE"
);
},
{
closed = 1;
nodes = (
"599 0 LINE",
"590 47 LINE",
"517 46 OFFCURVE",
"409 249 OFFCURVE",
"359 329 CURVE",
"280 308 LINE",
"352 139 OFFCURVE",
"427 32 OFFCURVE",
"464 0 CURVE"
);
},
{
closed = 1;
nodes = (
"259 323 OFFCURVE",
"219 330 OFFCURVE",
"196 336 CURVE",
"194 375 OFFCURVE",
"194 417 OFFCURVE",
"194 456 CURVE SMOOTH",
"194 496 OFFCURVE",
"196 534 OFFCURVE",
"199 564 CURVE",
"215 570 OFFCURVE",
"239 575 OFFCURVE",
"270 575 CURVE SMOOTH",
"376 575 OFFCURVE",
"420 536 OFFCURVE",
"420 457 CURVE SMOOTH",
"420 390 OFFCURVE",
"382 326 OFFCURVE",
"290 323 CURVE SMOOTH"
);
}
);
width = 609;
}
);
unicode = 0052;
},
{
glyphname = S;
lastChange = "2019-01-05 06:11:35 +0000";
layers = (
{
layerId = "51BB9282-3B82-4DF1-A67A-294D3E37D73A";
paths = (
{
closed = 1;
nodes = (
"365 -10 OFFCURVE",
"420 87 OFFCURVE",
"420 170 CURVE SMOOTH",
"420 266 OFFCURVE",
"342 323 OFFCURVE",
"270 373 CURVE",
"252 385 LINE",
"196 423 OFFCURVE",
"149 458 OFFCURVE",
"149 505 CURVE SMOOTH",
"149 544 OFFCURVE",
"182 575 OFFCURVE",
"235 575 CURVE SMOOTH",
"311 575 OFFCURVE",
"346 511 OFFCURVE",
"355 493 CURVE",
"297 609 LINE",
"318 561 OFFCURVE",
"333 505 OFFCURVE",
"333 468 CURVE",
"404 460 LINE",
"407 481 OFFCURVE",
"410 514 OFFCURVE",
"410 547 CURVE SMOOTH",
"410 566 OFFCURVE",
"409 584 OFFCURVE",
"407 598 CURVE",
"379 612 OFFCURVE",
"323 623 OFFCURVE",
"269 623 CURVE SMOOTH",
"118 623 OFFCURVE",
"63 546 OFFCURVE",
"63 475 CURVE SMOOTH",
"63 401 OFFCURVE",
"122 356 OFFCURVE",
"184 314 CURVE",
"215 293 LINE",
"273 253 OFFCURVE",
"326 213 OFFCURVE",
"326 149 CURVE SMOOTH",
"326 98 OFFCURVE",
"293 45 OFFCURVE",
"218 45 CURVE SMOOTH",
"152 45 OFFCURVE",
"122 85 OFFCURVE",
"102 114 CURVE",
"102 82 OFFCURVE",
"106 47 OFFCURVE",
"152 36 CURVE",
"122 70 OFFCURVE",
"117 130 OFFCURVE",
"117 152 CURVE",
"48 160 LINE",
"42 121 OFFCURVE",
"40 89 OFFCURVE",
"40 65 CURVE SMOOTH",
"40 39 OFFCURVE",
"41 25 OFFCURVE",
"42 13 CURVE",
"50 9 OFFCURVE",
"111 -10 OFFCURVE",
"203 -10 CURVE SMOOTH"
);
}
);
width = 469;
}
);
unicode = 0053;
},
{
color = 0;
glyphname = Germandbls;
lastChange = "2019-01-05 04:56:58 +0000";
layers = (
{
layerId = "51BB9282-3B82-4DF1-A67A-294D3E37D73A";
paths = (
{
closed = 1;
nodes = (
"468 -8 OFFCURVE",
"521 63 OFFCURVE",
"521 143 CURVE SMOOTH",
"521 226 OFFCURVE",
"459 316 OFFCURVE",
"322 359 CURVE",
"337 329 LINE",
"368 360 OFFCURVE",
"441 427 OFFCURVE",
"471 480 CURVE",
"471 589 OFFCURVE",
"379 634 OFFCURVE",
"254 634 CURVE SMOOTH",
"192 634 OFFCURVE",
"108 596 OFFCURVE",
"108 497 CURVE SMOOTH",
"108 480 OFFCURVE",
"110 268 OFFCURVE",
"110 195 CURVE SMOOTH",
"110 160 OFFCURVE",
"107 126 OFFCURVE",
"103 105 CURVE",
"98 68 OFFCURVE",
"84 47 OFFCURVE",
"34 47 CURVE SMOOTH",
"24 47 LINE",
"32 0 LINE",
"202 0 LINE",
"197 44 OFFCURVE",
"194 88 OFFCURVE",
"193 132 CURVE SMOOTH",
"192 176 OFFCURVE",
"188 277 OFFCURVE",
"188 375 CURVE SMOOTH",
"188 431 OFFCURVE",
"189 485 OFFCURVE",
"193 527 CURVE",
"195 562 OFFCURVE",
"211 589 OFFCURVE",
"248 589 CURVE SMOOTH",
"305 589 OFFCURVE",
"385 524 OFFCURVE",
"385 454 CURVE SMOOTH",
"385 406 OFFCURVE",
"296 340 OFFCURVE",
"276 312 CURVE",
"292 293 LINE",
"400 258 OFFCURVE",
"429 180 OFFCURVE",
"429 125 CURVE SMOOTH",
"429 74 OFFCURVE",
"401 33 OFFCURVE",
"362 33 CURVE SMOOTH",
"326 33 OFFCURVE",
"300 47 OFFCURVE",
"283 60 CURVE",
"295 41 OFFCURVE",
"322 27 OFFCURVE",
"349 22 CURVE",
"310 47 OFFCURVE",
"304 91 OFFCURVE",
"300 125 CURVE",
"250 126 LINE",
"248 105 OFFCURVE",
"247 83 OFFCURVE",
"247 62 CURVE SMOOTH",
"247 42 OFFCURVE",
"249 19 OFFCURVE",
"252 9 CURVE",
"252 9 OFFCURVE",
"307 -11 OFFCURVE",
"377 -8 CURVE"
);
}
);
width = 531;
}
);
unicode = 1E9E;
},
{
glyphname = Schwa;
lastChange = "2019-01-05 04:56:58 +0000";
layers = (
{
layerId = "51BB9282-3B82-4DF1-A67A-294D3E37D73A";
paths = (
{
closed = 1;
nodes = (
"392 3 OFFCURVE",
"520 114 OFFCURVE",
"520 333 CURVE SMOOTH",
"520 507 OFFCURVE",
"407 598 OFFCURVE",
"269 598 CURVE SMOOTH",
"142 597 OFFCURVE",
"69 526 OFFCURVE",
"53 506 CURVE",
"72 480 LINE",
"74 480 OFFCURVE",
"133 535 OFFCURVE",
"224 535 CURVE SMOOTH",
"390 535 OFFCURVE",
"427 416 OFFCURVE",
"427 291 CURVE SMOOTH",
"427 107 OFFCURVE",
"350 54 OFFCURVE",
"283 54 CURVE SMOOTH",
"190 54 OFFCURVE",
"120 138 OFFCURVE",
"120 255 CURVE",
"212 256 LINE",
"455 278 LINE",
"440 324 LINE",
"33 322 LINE",
"31 304 OFFCURVE",
"30 286 OFFCURVE",
"30 269 CURVE SMOOTH",
"30 104 OFFCURVE",
"121 3 OFFCURVE",
"266 3 CURVE SMOOTH"
);
}
);
width = 558;
}
);
unicode = 018F;
},
{
glyphname = T;
lastChange = "2019-01-05 06:12:06 +0000";
layers = (
{
layerId = "51BB9282-3B82-4DF1-A67A-294D3E37D73A";
paths = (
{
closed = 1;
nodes = (
"376 0 LINE",
"367 49 LINE",
"347 49 OFFCURVE",
"305 52 OFFCURVE",
"301 99 CURVE SMOOTH",
"298 140 OFFCURVE",
"296 187 OFFCURVE",
"296 238 CURVE SMOOTH",
"296 355 OFFCURVE",
"304 489 OFFCURVE",
"319 601 CURVE",
"162 584 LINE",
"167 574 LINE",
"190 574 OFFCURVE",
"208 572 OFFCURVE",
"211 538 CURVE SMOOTH",
"215 494 OFFCURVE",
"217 430 OFFCURVE",
"217 362 CURVE SMOOTH",
"217 279 OFFCURVE",
"214 188 OFFCURVE",
"206 112 CURVE SMOOTH",
"202 76 OFFCURVE",
"176 49 OFFCURVE",
"122 47 CURVE",
"126 0 LINE"
);
},
{
closed = 1;
nodes = (
"524 617 LINE",
"446 611 OFFCURVE",
"310 610 OFFCURVE",
"257 610 CURVE SMOOTH",
"166 610 OFFCURVE",
"99 611 OFFCURVE",
"16 616 CURVE",
"16 573 OFFCURVE",
"10 501 OFFCURVE",
"6 465 CURVE",
"70 474 LINE",
"75 501 OFFCURVE",
"87 558 OFFCURVE",
"116 586 CURVE",
"75 554 LINE",
"103 555 OFFCURVE",
"187 557 OFFCURVE",
"257 557 CURVE SMOOTH",
"308 557 LINE SMOOTH",
"361 557 OFFCURVE",
"416 555 OFFCURVE",
"467 537 CURVE",
"402 594 LINE",
"435 564 OFFCURVE",
"454 512 OFFCURVE",
"460 467 CURVE",
"515 460 LINE"
);
}
);
width = 532;
}
);
unicode = 0054;
},
{
glyphname = Tbar;
lastChange = "2019-01-05 04:56:58 +0000";
layers = (
{
components = (
{
name = T;
}
);
layerId = "51BB9282-3B82-4DF1-A67A-294D3E37D73A";
paths = (
{
closed = 1;
nodes = (
"477 285 LINE",
"478 311 OFFCURVE",
"483 337 OFFCURVE",
"484 358 CURVE",
"411 355 OFFCURVE",
"327 353 OFFCURVE",
"242 353 CURVE SMOOTH",
"174 353 OFFCURVE",
"105 354 OFFCURVE",
"41 358 CURVE",
"30 285 LINE"
);
}
);
width = 532;
}
);
unicode = 0166;
},
{
glyphname = U;
lastChange = "2019-01-05 06:20:29 +0000";
layers = (
{
layerId = "51BB9282-3B82-4DF1-A67A-294D3E37D73A";
paths = (
{
closed = 1;
nodes = (
"409 -13 OFFCURVE",
"515 35 OFFCURVE",
"528 192 CURVE SMOOTH",
"531 227 OFFCURVE",
"531 274 OFFCURVE",
"531 327 CURVE SMOOTH",
"531 383 OFFCURVE",
"531 446 OFFCURVE",
"535 511 CURVE SMOOTH",
"537 551 OFFCURVE",
"558 564 OFFCURVE",
"612 566 CURVE",
"606 616 LINE",
"573 614 OFFCURVE",
"526 613 OFFCURVE",
"479 613 CURVE SMOOTH",
"442 613 OFFCURVE",
"391 614 OFFCURVE",
"369 615 CURVE",
"376 571 LINE",
"430 571 OFFCURVE",
"464 554 OFFCURVE",
"466 494 CURVE SMOOTH",
"468 437 OFFCURVE",
"469 380 OFFCURVE",
"469 324 CURVE SMOOTH",
"469 284 OFFCURVE",
"468 245 OFFCURVE",
"465 206 CURVE SMOOTH",
"458 113 OFFCURVE",
"409 47 OFFCURVE",
"317 47 CURVE SMOOTH",
"223 47 OFFCURVE",
"182 109 OFFCURVE",
"176 174 CURVE SMOOTH",
"173 205 OFFCURVE",
"173 243 OFFCURVE",
"173 260 CURVE SMOOTH",
"173 325 OFFCURVE",
"175 420 OFFCURVE",
"180 487 CURVE SMOOTH",
"184 538 OFFCURVE",
"196 562 OFFCURVE",
"274 567 CURVE",
"268 617 LINE",
"221 614 OFFCURVE",
"179 613 OFFCURVE",
"138 613 CURVE SMOOTH",
"94 613 OFFCURVE",
"51 614 OFFCURVE",
"5 616 CURVE",
"12 567 LINE",
"76 567 OFFCURVE",
"91 547 OFFCURVE",
"91 493 CURVE SMOOTH",
"91 457 LINE SMOOTH",
"91 422 OFFCURVE",
"91 376 OFFCURVE",
"89 329 CURVE SMOOTH",
"87 276 OFFCURVE",
"85 221 OFFCURVE",
"85 179 CURVE SMOOTH",
"85 21 OFFCURVE",
"211 -13 OFFCURVE",
"300 -13 CURVE SMOOTH"
);
}
);
width = 617;
}
);
unicode = 0055;
},
{
glyphname = Uhorn;
lastChange = "2019-01-05 04:56:58 +0000";
layers = (
{
components = (
{
name = U;
}
);
layerId = "51BB9282-3B82-4DF1-A67A-294D3E37D73A";
paths = (
{
closed = 1;
nodes = (
"623 565 OFFCURVE",
"669 596 OFFCURVE",
"669 665 CURVE SMOOTH",
"669 706 OFFCURVE",
"645 762 OFFCURVE",
"597 762 CURVE SMOOTH",
"564 762 OFFCURVE",
"549 742 OFFCURVE",
"553 705 CURVE",
"584 697 OFFCURVE",
"612 680 OFFCURVE",
"612 651 CURVE SMOOTH",
"612 621 OFFCURVE",
"591 616 OFFCURVE",
"551 613 CURVE",
"575 565 LINE"
);
}
);
width = 669;
}
);
unicode = 01AF;
},
{
glyphname = V;
lastChange = "2019-01-05 06:33:27 +0000";
layers = (
{
layerId = "51BB9282-3B82-4DF1-A67A-294D3E37D73A";
paths = (
{
closed = 1;
nodes = (
"287 -8 OFFCURVE",
"326 2 OFFCURVE",
"356 6 CURVE",
"401 145 OFFCURVE",
"474 330 OFFCURVE",
"546 511 CURVE SMOOTH",
"559 545 OFFCURVE",
"574 568 OFFCURVE",
"622 568 CURVE SMOOTH",
"641 568 LINE",
"633 615 LINE",
"601 612 OFFCURVE",
"567 611 OFFCURVE",
"533 611 CURVE SMOOTH",
"484 611 OFFCURVE",
"434 613 OFFCURVE",
"384 615 CURVE",
"391 576 LINE",
"398 576 LINE",
"431 576 OFFCURVE",
"473 574 OFFCURVE",
"473 526 CURVE SMOOTH",
"473 519 OFFCURVE",
"472 512 OFFCURVE",
"470 504 CURVE SMOOTH",
"458 455 OFFCURVE",
"369 216 OFFCURVE",
"313 69 CURVE",
"295 173 LINE",
"259 270 OFFCURVE",
"201 461 OFFCURVE",
"190 502 CURVE SMOOTH",
"184 523 OFFCURVE",
"184 531 OFFCURVE",
"184 537 CURVE SMOOTH",
"184 556 OFFCURVE",
"205 569 OFFCURVE",
"235 569 CURVE SMOOTH",
"245 569 OFFCURVE",
"256 568 OFFCURVE",
"267 566 CURVE",
"260 615 LINE",
"228 613 OFFCURVE",
"185 612 OFFCURVE",
"139 612 CURVE SMOOTH",
"93 612 OFFCURVE",
"44 613 OFFCURVE",
"1 615 CURVE",
"9 567 LINE",
"22 567 LINE SMOOTH",
"63 567 OFFCURVE",
"78 540 OFFCURVE",
"88 513 CURVE SMOOTH",
"167 309 OFFCURVE",
"213 144 OFFCURVE",
"257 -18 CURVE"
);
}
);
width = 642;
}
);
unicode = 0056;
},
{
glyphname = W;
lastChange = "2019-01-05 06:34:45 +0000";
layers = (
{
layerId = "51BB9282-3B82-4DF1-A67A-294D3E37D73A";
paths = (
{
closed = 1;
nodes = (
"639 -8 OFFCURVE",
"671 2 OFFCURVE",
"701 6 CURVE",
"740 145 OFFCURVE",
"806 331 OFFCURVE",
"872 511 CURVE SMOOTH",
"886 550 OFFCURVE",
"903 568 OFFCURVE",
"958 568 CURVE",
"950 617 LINE",
"912 615 OFFCURVE",
"873 614 OFFCURVE",
"835 614 CURVE SMOOTH",
"797 614 OFFCURVE",
"757 615 OFFCURVE",
"721 617 CURVE",
"728 569 LINE",
"740 569 LINE",
"784 569 OFFCURVE",
"804 563 OFFCURVE",
"804 530 CURVE SMOOTH",
"804 524 OFFCURVE",
"803 518 OFFCURVE",
"800 500 CURVE SMOOTH",
"794 461 OFFCURVE",
"711 228 OFFCURVE",
"657 77 CURVE",
"650 173 LINE",
"611 285 OFFCURVE",
"571 423 OFFCURVE",
"554 484 CURVE SMOOTH",
"545 515 OFFCURVE",
"543 525 OFFCURVE",
"543 540 CURVE SMOOTH",
"543 559 OFFCURVE",
"559 572 OFFCURVE",
"593 572 CURVE",
"607 572 LINE",
"600 616 LINE",
"561 613 OFFCURVE",
"522 612 OFFCURVE",
"484 612 CURVE SMOOTH",
"445 612 OFFCURVE",
"403 614 OFFCURVE",
"367 616 CURVE",
"373 568 LINE",
"426 568 OFFCURVE",
"443 547 OFFCURVE",
"458 500 CURVE SMOOTH",
"523 298 OFFCURVE",
"572 139 OFFCURVE",
"609 -18 CURVE"
);
},
{
closed = 1;
nodes = (
"295 173 LINE",
"259 270 OFFCURVE",
"201 461 OFFCURVE",
"190 502 CURVE SMOOTH",
"184 523 OFFCURVE",
"184 531 OFFCURVE",
"184 537 CURVE SMOOTH",
"184 556 OFFCURVE",
"205 566 OFFCURVE",
"235 566 CURVE SMOOTH",
"267 566 LINE",
"260 616 LINE",
"228 614 OFFCURVE",
"185 613 OFFCURVE",
"139 613 CURVE SMOOTH",
"93 613 OFFCURVE",
"44 614 OFFCURVE",
"1 616 CURVE",
"9 567 LINE",
"22 567 LINE SMOOTH",
"63 567 OFFCURVE",
"78 540 OFFCURVE",
"88 513 CURVE SMOOTH",
"167 309 OFFCURVE",
"213 144 OFFCURVE",
"257 -18 CURVE",
"287 -8 OFFCURVE",
"326 2 OFFCURVE",
"356 6 CURVE",
"403 145 OFFCURVE",
"478 345 OFFCURVE",
"540 487 CURVE",
"470 477 LINE",
"451 429 OFFCURVE",
"369 213 OFFCURVE",
"313 59 CURVE"
);
}
);
width = 959;
}
);
unicode = 0057;
},
{
glyphname = X;
lastChange = "2019-01-05 06:45:37 +0000";
layers = (
{
layerId = "51BB9282-3B82-4DF1-A67A-294D3E37D73A";
paths = (
{
closed = 1;
nodes = (
"257 1 LINE",
"250 47 LINE",
"209 47 OFFCURVE",
"196 61 OFFCURVE",
"196 80 CURVE SMOOTH",
"196 94 OFFCURVE",
"203 111 OFFCURVE",
"212 126 CURVE SMOOTH",
"245 181 OFFCURVE",
"300 269 OFFCURVE",
"322 294 CURVE",
"336 304 LINE",
"363 344 OFFCURVE",
"421 426 OFFCURVE",
"462 482 CURVE SMOOTH",
"503 537 OFFCURVE",
"536 567 OFFCURVE",
"596 567 CURVE",
"590 617 LINE",
"557 614 OFFCURVE",
"516 613 OFFCURVE",
"474 613 CURVE SMOOTH",
"427 613 OFFCURVE",
"385 614 OFFCURVE",
"347 617 CURVE",
"353 568 LINE",
"391 568 OFFCURVE",
"413 558 OFFCURVE",
"413 540 CURVE SMOOTH",
"413 531 OFFCURVE",
"408 520 OFFCURVE",
"399 505 CURVE SMOOTH",
"375 465 OFFCURVE",
"328 394 OFFCURVE",
"289 344 CURVE",
"265 323 LINE",
"226 258 OFFCURVE",
"145 142 OFFCURVE",
"110 99 CURVE SMOOTH",
"86 70 OFFCURVE",
"64 51 OFFCURVE",
"7 51 CURVE",
"13 1 LINE"
);
},
{
closed = 1;
nodes = (
"597 1 LINE",
"589 48 LINE",
"520 48 OFFCURVE",
"489 81 OFFCURVE",
"338 332 CURVE",
"327 342 LINE",
"315 361 OFFCURVE",
"265 447 OFFCURVE",
"233 503 CURVE SMOOTH",
"225 517 OFFCURVE",
"221 529 OFFCURVE",
"221 539 CURVE SMOOTH",
"221 556 OFFCURVE",
"237 566 OFFCURVE",
"285 566 CURVE",
"277 616 LINE",
"232 614 OFFCURVE",
"176 613 OFFCURVE",
"121 613 CURVE SMOOTH",
"85 613 OFFCURVE",
"44 614 OFFCURVE",
"11 617 CURVE",
"18 565 LINE",
"89 565 OFFCURVE",
"104 546 OFFCURVE",
"145 481 CURVE SMOOTH",
"193 404 OFFCURVE",
"227 347 OFFCURVE",
"258 288 CURVE",
"280 267 LINE",
"301 240 OFFCURVE",
"360 156 OFFCURVE",
"383 110 CURVE SMOOTH",
"390 96 OFFCURVE",
"394 86 OFFCURVE",
"394 77 CURVE SMOOTH",
"394 53 OFFCURVE",
"365 48 OFFCURVE",
"325 48 CURVE",
"334 1 LINE"
);
}
);
width = 608;
}
);
unicode = 0058;
},
{
glyphname = Y;
lastChange = "2019-01-05 06:44:57 +0000";
layers = (
{
layerId = "51BB9282-3B82-4DF1-A67A-294D3E37D73A";
paths = (
{
closed = 1;
nodes = (
"273 239 OFFCURVE",
"303 246 OFFCURVE",
"326 248 CURVE",
"349 301 OFFCURVE",
"389 388 OFFCURVE",
"471 510 CURVE SMOOTH",
"496 547 OFFCURVE",
"516 571 OFFCURVE",
"562 573 CURVE",
"554 618 LINE",
"514 616 OFFCURVE",
"475 615 OFFCURVE",
"436 615 CURVE SMOOTH",
"401 615 OFFCURVE",
"365 616 OFFCURVE",
"330 618 CURVE",
"337 569 LINE",
"379 569 OFFCURVE",
"408 561 OFFCURVE",
"408 535 CURVE SMOOTH",
"408 529 OFFCURVE",
"405 518 OFFCURVE",
"400 507 CURVE SMOOTH",
"363 427 OFFCURVE",
"330 366 OFFCURVE",
"293 310 CURVE",
"268 376 LINE",
"240 426 OFFCURVE",
"215 478 OFFCURVE",
"198 516 CURVE SMOOTH",
"193 528 OFFCURVE",
"190 537 OFFCURVE",
"190 545 CURVE SMOOTH",
"190 564 OFFCURVE",
"210 572 OFFCURVE",
"252 576 CURVE",
"241 618 LINE",
"194 616 OFFCURVE",
"163 615 OFFCURVE",
"123 615 CURVE SMOOTH",
"87 615 OFFCURVE",
"52 616 OFFCURVE",
"12 618 CURVE",
"18 573 LINE",
"54 573 OFFCURVE",
"85 562 OFFCURVE",
"111 514 CURVE SMOOTH",
"189 370 OFFCURVE",
"215 310 OFFCURVE",
"247 231 CURVE"
);
},
{
closed = 1;
nodes = (
"420 0 LINE",
"410 51 LINE",
"404 51 LINE",
"358 51 OFFCURVE",
"346 63 OFFCURVE",
"339 94 CURVE SMOOTH",
"334 116 OFFCURVE",
"328 145 OFFCURVE",
"328 189 CURVE SMOOTH",
"328 218 OFFCURVE",
"330 253 OFFCURVE",
"337 296 CURVE",
"236 287 LINE",
"242 233 OFFCURVE",
"245 197 OFFCURVE",
"245 168 CURVE SMOOTH",
"245 146 OFFCURVE",
"243 129 OFFCURVE",
"241 112 CURVE SMOOTH",
"237 78 OFFCURVE",
"224 51 OFFCURVE",
"185 51 CURVE SMOOTH",
"154 51 LINE",
"160 0 LINE"
);
}
);
width = 571;
}
);
unicode = 0059;
},
{
glyphname = Z;
lastChange = "2019-01-05 08:20:34 +0000";
layers = (
{
layerId = "51BB9282-3B82-4DF1-A67A-294D3E37D73A";
paths = (
{
closed = 1;
nodes = (
"462 157 LINE",
"459 128 OFFCURVE",
"451 90 OFFCURVE",
"437 61 CURVE",
"411 57 OFFCURVE",
"357 53 OFFCURVE",
"306 53 CURVE SMOOTH",
"270 53 OFFCURVE",
"234 54 OFFCURVE",
"198 57 CURVE SMOOTH",
"185 58 OFFCURVE",
"172 63 OFFCURVE",
"172 78 CURVE SMOOTH",
"172 82 OFFCURVE",
"173 87 OFFCURVE",
"177 92 CURVE SMOOTH",
"255 215 OFFCURVE",
"456 527 OFFCURVE",
"511 569 CURVE",
"505 616 LINE",
"470 614 OFFCURVE",
"410 614 OFFCURVE",
"353 614 CURVE SMOOTH",
"254 614 LINE SMOOTH",
"188 614 OFFCURVE",
"97 614 OFFCURVE",
"61 616 CURVE",
"61 554 LINE SMOOTH",
"61 508 OFFCURVE",
"63 469 OFFCURVE",
"65 452 CURVE",
"129 458 LINE",
"132 490 OFFCURVE",
"141 528 OFFCURVE",
"159 559 CURVE",
"203 562 OFFCURVE",
"288 564 OFFCURVE",
"354 564 CURVE SMOOTH",
"369 564 OFFCURVE",
"376 560 OFFCURVE",
"376 554 CURVE SMOOTH",
"376 550 OFFCURVE",
"373 545 OFFCURVE",
"370 540 CURVE SMOOTH",
"293 416 OFFCURVE",
"96 102 OFFCURVE",
"23 51 CURVE",
"31 0 LINE",
"527 0 LINE",
"528 17 OFFCURVE",
"529 35 OFFCURVE",
"529 52 CURVE SMOOTH",
"529 102 OFFCURVE",
"528 144 OFFCURVE",
"525 163 CURVE"
);
}
);
width = 563;
}
);
unicode = 005A;
},
{
glyphname = a;
lastChange = "2019-01-05 06:50:14 +0000";
layers = (
{
layerId = "51BB9282-3B82-4DF1-A67A-294D3E37D73A";
paths = (
{
closed = 1;
nodes = (
"424 -8 OFFCURVE",
"455 6 OFFCURVE",
"467 12 CURVE",
"458 42 LINE",
"448 42 LINE SMOOTH",
"393 42 OFFCURVE",
"390 100 OFFCURVE",
"390 162 CURVE SMOOTH",
"390 193 OFFCURVE",
"392 225 OFFCURVE",
"394 256 CURVE SMOOTH",
"396 282 OFFCURVE",
"398 308 OFFCURVE",
"398 330 CURVE SMOOTH",
"398 438 OFFCURVE",
"362 470 OFFCURVE",
"259 470 CURVE SMOOTH",
"175 470 OFFCURVE",
"99 436 OFFCURVE",
"62 415 CURVE",
"61 409 OFFCURVE",
"60 398 OFFCURVE",
"60 378 CURVE SMOOTH",
"60 356 OFFCURVE",
"61 328 OFFCURVE",
"64 302 CURVE",
"132 309 LINE",
"136 359 OFFCURVE",
"149 394 OFFCURVE",
"166 429 CURVE",
"126 365 LINE",
"145 391 OFFCURVE",
"172 427 OFFCURVE",
"227 427 CURVE SMOOTH",
"259 427 OFFCURVE",
"293 410 OFFCURVE",
"307 352 CURVE SMOOTH",
"312 331 OFFCURVE",
"314 288 OFFCURVE",
"314 240 CURVE SMOOTH",
"314 186 OFFCURVE",
"311 125 OFFCURVE",
"306 88 CURVE",
"314 88 LINE",
"317 29 OFFCURVE",
"332 -8 OFFCURVE",
"390 -8 CURVE SMOOTH"
);
},
{
closed = 1;
nodes = (
"290 -10 OFFCURVE",
"329 82 OFFCURVE",
"333 92 CURVE",
"312 124 LINE",
"307 93 OFFCURVE",
"263 49 OFFCURVE",
"200 49 CURVE SMOOTH",
"156 49 OFFCURVE",
"129 75 OFFCURVE",
"129 119 CURVE SMOOTH",
"129 178 OFFCURVE",
"176 224 OFFCURVE",
"253 224 CURVE SMOOTH",
"297 224 OFFCURVE",
"326 214 OFFCURVE",
"332 210 CURVE",
"332 274 LINE",
"326 274 OFFCURVE",
"274 271 OFFCURVE",
"204 255 CURVE SMOOTH",
"85 228 OFFCURVE",
"31 174 OFFCURVE",
"31 96 CURVE SMOOTH",
"31 25 OFFCURVE",
"91 -10 OFFCURVE",
"156 -10 CURVE SMOOTH"
);
}
);
width = 479;
}
);
unicode = 0061;
},
{
glyphname = ae;
lastChange = "2019-01-05 04:56:58 +0000";
layers = (
{
layerId = "51BB9282-3B82-4DF1-A67A-294D3E37D73A";
paths = (
{
closed = 1;
nodes = (
"424 -8 OFFCURVE",
"455 6 OFFCURVE",
"467 12 CURVE",
"458 42 LINE",
"448 42 LINE SMOOTH",
"393 42 OFFCURVE",
"393 100 OFFCURVE",
"393 162 CURVE SMOOTH",
"393 221 OFFCURVE",
"398 283 OFFCURVE",
"398 330 CURVE SMOOTH",
"398 438 OFFCURVE",
"362 470 OFFCURVE",
"259 470 CURVE SMOOTH",
"175 470 OFFCURVE",
"99 436 OFFCURVE",
"62 415 CURVE",
"62 415 OFFCURVE",
"61 400 OFFCURVE",
"61 378 CURVE SMOOTH",
"61 356 OFFCURVE",
"62 328 OFFCURVE",
"64 302 CURVE",
"132 309 LINE",
"136 359 OFFCURVE",
"149 394 OFFCURVE",
"166 429 CURVE",
"126 365 LINE",
"150 391 OFFCURVE",
"172 427 OFFCURVE",
"227 427 CURVE SMOOTH",
"259 427 OFFCURVE",
"293 410 OFFCURVE",
"307 352 CURVE SMOOTH",
"312 331 OFFCURVE",
"314 288 OFFCURVE",
"314 240 CURVE SMOOTH",
"314 186 OFFCURVE",
"311 125 OFFCURVE",
"306 88 CURVE",
"314 88 LINE",
"317 29 OFFCURVE",
"332 -8 OFFCURVE",
"390 -8 CURVE SMOOTH"
);
},
{
closed = 1;
nodes = (
"291 -10 OFFCURVE",
"333 92 OFFCURVE",
"333 92 CURVE",
"312 124 LINE",
"307 93 OFFCURVE",
"263 49 OFFCURVE",
"200 49 CURVE SMOOTH",
"156 49 OFFCURVE",
"129 75 OFFCURVE",
"129 119 CURVE SMOOTH",
"129 178 OFFCURVE",
"176 224 OFFCURVE",
"253 224 CURVE SMOOTH",
"298 224 OFFCURVE",
"332 210 OFFCURVE",
"332 210 CURVE",
"332 274 LINE",
"332 274 OFFCURVE",
"275 271 OFFCURVE",
"204 255 CURVE SMOOTH",
"85 228 OFFCURVE",
"31 174 OFFCURVE",
"31 96 CURVE SMOOTH",
"31 25 OFFCURVE",
"91 -10 OFFCURVE",
"156 -10 CURVE SMOOTH"
);
},
{
closed = 1;
nodes = (
"637 -15 OFFCURVE",
"691 42 OFFCURVE",
"703 59 CURVE",
"688 85 LINE",
"686 85 OFFCURVE",
"640 41 OFFCURVE",
"566 41 CURVE SMOOTH",
"444 41 OFFCURVE",
"414 133 OFFCURVE",
"414 234 CURVE SMOOTH",
"414 348 OFFCURVE",
"464 422 OFFCURVE",
"531 422 CURVE SMOOTH",
"593 422 OFFCURVE",
"624 354 OFFCURVE",
"624 279 CURVE",
"575 278 LINE",
"392 260 LINE",
"404 223 LINE",
"719 225 LINE",
"721 239 OFFCURVE",
"721 253 OFFCURVE",
"721 265 CURVE SMOOTH",
"721 396 OFFCURVE",
"645 463 OFFCURVE",
"546 463 CURVE SMOOTH",
"431 463 OFFCURVE",
"322 374 OFFCURVE",
"322 197 CURVE SMOOTH",
"322 59 OFFCURVE",
"417 -15 OFFCURVE",
"539 -15 CURVE SMOOTH"
);
}
);
width = 948;
}
);
unicode = 00E6;
},
{
glyphname = b;
lastChange = "2019-01-05 06:51:00 +0000";
layers = (
{
layerId = "51BB9282-3B82-4DF1-A67A-294D3E37D73A";
paths = (
{
closed = 1;
nodes = (
"424 -10 OFFCURVE",
"491 147 OFFCURVE",
"491 275 CURVE SMOOTH",
"491 406 OFFCURVE",
"415 472 OFFCURVE",
"321 472 CURVE SMOOTH",
"256 472 OFFCURVE",
"178 431 OFFCURVE",
"141 344 CURVE",
"164 311 LINE",
"192 377 OFFCURVE",
"244 411 OFFCURVE",
"288 411 CURVE SMOOTH",
"338 411 OFFCURVE",
"395 372 OFFCURVE",
"395 269 CURVE SMOOTH",
"395 129 OFFCURVE",
"343 39 OFFCURVE",
"259 39 CURVE SMOOTH",
"175 39 OFFCURVE",
"134 99 OFFCURVE",
"130 109 CURVE",
"79 17 LINE",
"112 4 OFFCURVE",
"166 -10 OFFCURVE",
"242 -10 CURVE SMOOTH"
);
},
{
closed = 1;
nodes = (
"176 51 LINE",
"174 62 OFFCURVE",
"171 92 OFFCURVE",
"169 125 CURVE SMOOTH",
"168 145 OFFCURVE",
"165 228 OFFCURVE",
"165 325 CURVE SMOOTH",
"165 444 OFFCURVE",
"169 584 OFFCURVE",
"182 655 CURVE",
"167 652 OFFCURVE",
"47 638 OFFCURVE",
"-13 638 CURVE",
"-9 590 LINE",
"46 590 OFFCURVE",
"76 581 OFFCURVE",
"81 544 CURVE SMOOTH",
"87 500 OFFCURVE",
"89 414 OFFCURVE",
"89 323 CURVE SMOOTH",
"89 198 OFFCURVE",
"85 64 OFFCURVE",
"79 17 CURVE"
);
}
);
width = 530;
}
);
unicode = 0062;
},
{
glyphname = c;
lastChange = "2019-01-05 06:51:10 +0000";
layers = (
{
layerId = "51BB9282-3B82-4DF1-A67A-294D3E37D73A";
paths = (
{
closed = 1;
nodes = (
"319 -16 OFFCURVE",
"377 11 OFFCURVE",
"420 59 CURVE",
"403 86 LINE",
"374 62 OFFCURVE",
"331 41 OFFCURVE",
"280 41 CURVE SMOOTH",
"185 41 OFFCURVE",
"128 108 OFFCURVE",
"128 216 CURVE SMOOTH",
"128 333 OFFCURVE",
"175 418 OFFCURVE",
"253 418 CURVE SMOOTH",
"293 418 OFFCURVE",
"327 397 OFFCURVE",
"344 383 CURVE",
"333 402 OFFCURVE",
"316 417 OFFCURVE",
"290 424 CURVE",
"327 397 OFFCURVE",
"342 367 OFFCURVE",
"358 334 CURVE",
"404 330 LINE",
"408 352 OFFCURVE",
"409 383 OFFCURVE",
"409 410 CURVE SMOOTH",
"409 424 OFFCURVE",
"409 437 OFFCURVE",
"408 447 CURVE",
"405 449 OFFCURVE",
"363 470 OFFCURVE",
"294 470 CURVE SMOOTH",
"115 470 OFFCURVE",
"34 320 OFFCURVE",
"34 198 CURVE SMOOTH",
"34 40 OFFCURVE",
"132 -16 OFFCURVE",
"246 -16 CURVE SMOOTH"
);
}
);
width = 447;
}
);
leftMetricsKey = "=o";
unicode = 0063;
},
{
glyphname = d;
lastChange = "2019-01-05 06:51:31 +0000";
layers = (
{
layerId = "51BB9282-3B82-4DF1-A67A-294D3E37D73A";
paths = (
{
closed = 1;
nodes = (
"493 -16 OFFCURVE",
"524 -6 OFFCURVE",
"551 10 CURVE",
"541 44 LINE",
"534 42 OFFCURVE",
"527 42 OFFCURVE",
"521 42 CURVE SMOOTH",
"476 42 OFFCURVE",
"459 69 OFFCURVE",
"455 125 CURVE SMOOTH",
"454 144 OFFCURVE",
"451 224 OFFCURVE",
"451 318 CURVE SMOOTH",
"451 438 OFFCURVE",
"455 584 OFFCURVE",
"469 655 CURVE",
"438 651 OFFCURVE",
"343 639 OFFCURVE",
"282 639 CURVE SMOOTH",
"273 639 LINE",
"277 590 LINE",
"283 590 LINE SMOOTH",
"335 590 OFFCURVE",
"366 579 OFFCURVE",
"367 553 CURVE SMOOTH",
"370 492 OFFCURVE",
"373 390 OFFCURVE",
"373 296 CURVE SMOOTH",
"373 219 OFFCURVE",
"370 146 OFFCURVE",
"366 109 CURVE",
"373 76 LINE",
"373 34 OFFCURVE",
"391 -16 OFFCURVE",
"460 -16 CURVE SMOOTH"
);
},
{
closed = 1;
nodes = (
"320 -10 OFFCURVE",
"369 51 OFFCURVE",
"393 108 CURVE",
"370 139 LINE",
"354 100 OFFCURVE",
"313 52 OFFCURVE",
"260 52 CURVE SMOOTH",
"176 52 OFFCURVE",
"139 120 OFFCURVE",
"139 207 CURVE SMOOTH",
"139 328 OFFCURVE",
"197 420 OFFCURVE",
"288 420 CURVE SMOOTH",
"342 420 OFFCURVE",
"371 400 OFFCURVE",
"383 385 CURVE",
"414 453 LINE",
"395 460 OFFCURVE",
"362 467 OFFCURVE",
"325 467 CURVE SMOOTH",
"132 467 OFFCURVE",
"43 314 OFFCURVE",
"43 191 CURVE SMOOTH",
"43 73 OFFCURVE",
"116 -10 OFFCURVE",
"226 -10 CURVE SMOOTH"
);
}
);
width = 574;
}
);
unicode = 0064;
userData = {
com.typemytype.robofont.layerData = {
"Jan 30 17, 19:39" = {
anchors = (
);
components = (
);
contours = (
{
points = (
{
smooth = 0;
x = 640;
y = -21;
},
{
smooth = 0;
x = 681;
y = -8;
},
{
segmentType = curve;
smooth = 0;
x = 716;
y = 13;
},
{
segmentType = line;
smooth = 0;
x = 703;
y = 57;
},
{
smooth = 0;
x = 693;
y = 55;
},
{
smooth = 0;
x = 684;
y = 55;
},
{
segmentType = curve;
smooth = 1;
x = 676;
y = 55;
},
{
smooth = 0;
x = 618;
y = 55;
},
{
smooth = 0;
x = 596;
y = 90;
},
{
segmentType = curve;
smooth = 1;
x = 591;
y = 162;
},
{
smooth = 0;
x = 589;
y = 187;
},
{
smooth = 0;
x = 586;
y = 291;
},
{
segmentType = curve;
smooth = 1;
x = 586;
y = 413;
},
{
smooth = 0;
x = 586;
y = 569;
},
{
smooth = 0;
x = 591;
y = 756;
},
{
segmentType = curve;
smooth = 0;
x = 609;
y = 850;
},
{
smooth = 0;
x = 609;
y = 850;
},
{
smooth = 0;
x = 453;
y = 830;
},
{
segmentType = curve;
smooth = 1;
x = 366;
y = 830;
},
{
segmentType = line;
smooth = 0;
x = 355;
y = 830;
},
{
segmentType = line;
smooth = 0;
x = 360;
y = 766;
},
{
segmentType = line;
smooth = 1;
x = 367;
y = 766;
},
{
smooth = 0;
x = 435;
y = 766;
},
{
smooth = 0;
x = 475;
y = 752;
},
{
segmentType = curve;
smooth = 1;
x = 477;
y = 707;
},
{
smooth = 0;
x = 480;
y = 639;
},
{
smooth = 0;
x = 484;
y = 507;
},
{
segmentType = curve;
smooth = 1;
x = 484;
y = 385;
},
{
smooth = 0;
x = 484;
y = 284;
},
{
smooth = 0;
x = 481;
y = 189;
},
{
segmentType = curve;
smooth = 0;
x = 475;
y = 142;
},
{
segmentType = line;
smooth = 0;
x = 484;
y = 99;
},
{
smooth = 0;
x = 484;
y = 44;
},
{
smooth = 0;
x = 508;
y = -21;
},
{
segmentType = curve;
smooth = 1;
x = 598;
y = -21;
}
);
},
{
points = (
{
smooth = 0;
x = 403;
y = -13;
},
{
smooth = 0;
x = 479;
y = 66;
},
{
segmentType = curve;
smooth = 0;
x = 511;
y = 140;
},
{
segmentType = line;
smooth = 0;
x = 480;
y = 181;
},
{
smooth = 0;
x = 460;
y = 130;
},
{
smooth = 0;
x = 407;
y = 67;
},
{
segmentType = curve;
smooth = 1;
x = 328;
y = 67;
},
{
smooth = 0;
x = 228;
y = 67;
},
{
smooth = 0;
x = 180;
y = 156;
},
{
segmentType = curve;
smooth = 1;
x = 180;
y = 261;
},
{
smooth = 0;
x = 180;
y = 426;
},
{
smooth = 0;
x = 256;
y = 545;
},
{
segmentType = curve;
smooth = 1;
x = 374;
y = 545;
},
{
smooth = 0;
x = 447;
y = 545;
},
{
smooth = 0;
x = 498;
y = 500;
},
{
segmentType = curve;
smooth = 0;
x = 498;
y = 500;
},
{
segmentType = line;
smooth = 0;
x = 538;
y = 588;
},
{
smooth = 0;
x = 513;
y = 597;
},
{
smooth = 0;
x = 470;
y = 606;
},
{
segmentType = curve;
smooth = 1;
x = 422;
y = 606;
},
{
smooth = 0;
x = 171;
y = 606;
},
{
smooth = 0;
x = 56;
y = 408;
},
{
segmentType = curve;
smooth = 1;
x = 56;
y = 248;
},
{
smooth = 0;
x = 56;
y = 95;
},
{
smooth = 0;
x = 164;
y = -13;
},
{
segmentType = curve;
smooth = 1;
x = 307;
y = -13;
}
);
}
);
lib = {
};
name = d;
unicodes = (
);
width = 745;
};
};
};
},
{
glyphname = eth;
lastChange = "2019-01-05 08:38:42 +0000";
layers = (
{
layerId = "51BB9282-3B82-4DF1-A67A-294D3E37D73A";
paths = (
{
closed = 1;
nodes = (
"362 -2 OFFCURVE",
"452 87 OFFCURVE",
"452 269 CURVE SMOOTH",
"452 460 OFFCURVE",
"308 628 OFFCURVE",
"164 684 CURVE",
"152 678 OFFCURVE",
"144 658 OFFCURVE",
"144 644 CURVE",
"290 554 OFFCURVE",
"364 461 OFFCURVE",
"364 277 CURVE SMOOTH",
"364 185 OFFCURVE",
"339 51 OFFCURVE",
"237 51 CURVE SMOOTH",
"153 51 OFFCURVE",
"119 132 OFFCURVE",
"119 207 CURVE SMOOTH",
"119 311 OFFCURVE",
"179 378 OFFCURVE",
"257 378 CURVE SMOOTH",
"314 378 OFFCURVE",
"351 364 OFFCURVE",
"374 341 CURVE",
"369 400 LINE",
"351 407 OFFCURVE",
"316 420 OFFCURVE",
"270 420 CURVE SMOOTH",
"106 420 OFFCURVE",
"34 304 OFFCURVE",
"34 190 CURVE SMOOTH",
"34 85 OFFCURVE",
"101 -2 OFFCURVE",
"236 -2 CURVE SMOOTH"
);
},
{
closed = 1;
nodes = (
"280 543 OFFCURVE",
"363 580 OFFCURVE",
"422 603 CURVE",
"400 651 LINE",
"336 619 OFFCURVE",
"247 577 OFFCURVE",
"152 535 CURVE",
"172 489 LINE"
);
}
);
width = 487;
}
);
leftMetricsKey = "=o";
rightMetricsKey = "=o";
unicode = 00F0;
},
{
glyphname = e;
lastChange = "2019-01-05 06:51:44 +0000";
layers = (
{
layerId = "51BB9282-3B82-4DF1-A67A-294D3E37D73A";
paths = (
{
closed = 1;
nodes = (
"351 -15 OFFCURVE",
"404 42 OFFCURVE",
"417 59 CURVE",
"401 85 LINE",
"396 79 OFFCURVE",
"354 41 OFFCURVE",
"279 41 CURVE SMOOTH",
"160 41 OFFCURVE",
"128 130 OFFCURVE",
"128 230 CURVE SMOOTH",
"128 347 OFFCURVE",
"178 422 OFFCURVE",
"245 422 CURVE SMOOTH",
"306 422 OFFCURVE",
"338 353 OFFCURVE",
"338 278 CURVE",
"289 278 LINE",
"105 260 LINE",
"118 223 LINE",
"433 225 LINE",
"435 239 OFFCURVE",
"435 252 OFFCURVE",
"435 265 CURVE SMOOTH",
"435 396 OFFCURVE",
"358 463 OFFCURVE",
"260 463 CURVE SMOOTH",
"144 463 OFFCURVE",
"35 374 OFFCURVE",
"35 197 CURVE SMOOTH",
"35 59 OFFCURVE",
"131 -15 OFFCURVE",
"252 -15 CURVE SMOOTH"
);
}
);
width = 470;
}
);
unicode = 0065;
},
{
glyphname = schwa;
lastChange = "2019-01-05 04:56:58 +0000";
layers = (
{
layerId = "51BB9282-3B82-4DF1-A67A-294D3E37D73A";
paths = (
{
closed = 1;
nodes = (
"343 -15 OFFCURVE",
"453 73 OFFCURVE",
"453 250 CURVE SMOOTH",
"453 389 OFFCURVE",
"358 463 OFFCURVE",
"236 463 CURVE SMOOTH",
"137 463 OFFCURVE",
"84 405 OFFCURVE",
"72 389 CURVE",
"87 362 LINE",
"89 362 OFFCURVE",
"136 407 OFFCURVE",
"211 407 CURVE SMOOTH",
"329 405 OFFCURVE",
"360 316 OFFCURVE",
"360 218 CURVE SMOOTH",
"360 101 OFFCURVE",
"312 25 OFFCURVE",
"244 25 CURVE SMOOTH",
"182 25 OFFCURVE",
"143 93 OFFCURVE",
"143 169 CURVE",
"199 169 LINE",
"383 187 LINE",
"370 224 LINE",
"55 223 LINE",
"54 209 OFFCURVE",
"53 197 OFFCURVE",
"53 184 CURVE SMOOTH",
"53 53 OFFCURVE",
"128 -15 OFFCURVE",
"226 -15 CURVE SMOOTH"
);
}
);
width = 470;
}
);
unicode = 0259;
},
{
glyphname = f;
lastChange = "2019-01-05 06:53:19 +0000";
layers = (
{
layerId = "51BB9282-3B82-4DF1-A67A-294D3E37D73A";
paths = (
{
closed = 1;
nodes = (
"276 0 LINE",
"268 41 LINE",
"217 41 OFFCURVE",
"189 69 OFFCURVE",
"184 140 CURVE SMOOTH",
"181 191 OFFCURVE",
"180 251 OFFCURVE",
"180 312 CURVE SMOOTH",
"180 382 OFFCURVE",
"180 455 OFFCURVE",
"182 507 CURVE SMOOTH",
"186 625 OFFCURVE",
"208 653 OFFCURVE",
"247 653 CURVE SMOOTH",
"300 653 OFFCURVE",
"342 599 OFFCURVE",
"372 553 CURVE",
"388 584 OFFCURVE",
"405 640 OFFCURVE",
"405 682 CURVE",
"398 685 OFFCURVE",
"353 699 OFFCURVE",
"303 699 CURVE SMOOTH",
"214 699 OFFCURVE",
"103 653 OFFCURVE",
"103 490 CURVE SMOOTH",
"103 429 LINE",
"101 426 LINE",
"105 309 OFFCURVE",
"105 230 OFFCURVE",
"105 150 CURVE SMOOTH",
"105 80 OFFCURVE",
"102 47 OFFCURVE",
"19 47 CURVE",
"25 0 LINE"
);
},
{
closed = 1;
nodes = (
"158 388 LINE",
"306 402 LINE",
"296 453 LINE",
"246 451 OFFCURVE",
"205 450 OFFCURVE",
"163 450 CURVE SMOOTH",
"121 450 OFFCURVE",
"78 451 OFFCURVE",
"23 453 CURVE",
"31 400 LINE",
"78 400 OFFCURVE",
"125 390 OFFCURVE",
"125 339 CURVE"
);
}
);
width = 376;
}
);
unicode = 0066;
},
{
glyphname = g;
lastChange = "2019-01-05 06:53:42 +0000";
layers = (
{
layerId = "51BB9282-3B82-4DF1-A67A-294D3E37D73A";
paths = (
{
closed = 1;
nodes = (
"405 -206 OFFCURVE",
"524 -120 OFFCURVE",
"524 -17 CURVE SMOOTH",
"524 91 OFFCURVE",
"388 100 OFFCURVE",
"206 100 CURVE SMOOTH",
"184 100 OFFCURVE",
"175 109 OFFCURVE",
"175 122 CURVE SMOOTH",
"175 137 OFFCURVE",
"188 158 OFFCURVE",
"210 176 CURVE",
"199 199 LINE",
"147 169 OFFCURVE",
"98 134 OFFCURVE",
"65 95 CURVE",
"72 53 OFFCURVE",
"94 44 OFFCURVE",
"159 44 CURVE SMOOTH",
"271 44 OFFCURVE",
"427 44 OFFCURVE",
"427 -44 CURVE SMOOTH",
"427 -92 OFFCURVE",
"371 -159 OFFCURVE",
"262 -159 CURVE SMOOTH",
"175 -159 OFFCURVE",
"129 -132 OFFCURVE",
"129 -82 CURVE SMOOTH",
"129 -16 OFFCURVE",
"214 34 OFFCURVE",
"282 49 CURVE",
"205 54 LINE",
"124 23 OFFCURVE",
"39 -21 OFFCURVE",
"39 -102 CURVE SMOOTH",
"39 -165 OFFCURVE",
"111 -206 OFFCURVE",
"233 -206 CURVE SMOOTH"
);
},
{
closed = 1;
nodes = (
"342 176 OFFCURVE",
"445 236 OFFCURVE",
"445 348 CURVE SMOOTH",
"445 439 OFFCURVE",
"343 470 OFFCURVE",
"270 470 CURVE SMOOTH",
"162 470 OFFCURVE",
"57 405 OFFCURVE",
"57 298 CURVE SMOOTH",
"57 223 OFFCURVE",
"125 176 OFFCURVE",
"237 176 CURVE SMOOTH"
);
},
{
closed = 1;
nodes = (
"197 218 OFFCURVE",
"150 245 OFFCURVE",
"150 315 CURVE SMOOTH",
"150 383 OFFCURVE",
"206 429 OFFCURVE",
"258 429 CURVE SMOOTH",
"320 429 OFFCURVE",
"350 379 OFFCURVE",
"350 330 CURVE SMOOTH",
"350 269 OFFCURVE",
"313 218 OFFCURVE",
"245 218 CURVE SMOOTH"
);
},
{
closed = 1;
nodes = (
"570 372 OFFCURVE",
"571 386 OFFCURVE",
"571 401 CURVE SMOOTH",
"571 424 OFFCURVE",
"569 450 OFFCURVE",
"567 467 CURVE",
"488 421 OFFCURVE",
"427 399 OFFCURVE",
"403 397 CURVE",
"436 365 LINE",
"475 365 OFFCURVE",
"526 365 OFFCURVE",
"569 363 CURVE"
);
}
);
width = 592;
}
);
unicode = 0067;
},
{
glyphname = h;
lastChange = "2019-01-05 06:55:00 +0000";
layers = (
{
layerId = "51BB9282-3B82-4DF1-A67A-294D3E37D73A";
paths = (
{
closed = 1;
nodes = (
"571 0 LINE",
"564 39 LINE",
"540 39 OFFCURVE",
"493 43 OFFCURVE",
"493 101 CURVE",
"493 132 OFFCURVE",
"495 166 OFFCURVE",
"497 199 CURVE SMOOTH",
"499 230 OFFCURVE",
"500 260 OFFCURVE",
"500 290 CURVE SMOOTH",
"500 322 OFFCURVE",
"499 353 OFFCURVE",
"496 371 CURVE SMOOTH",
"486 443 OFFCURVE",
"441 471 OFFCURVE",
"384 471 CURVE SMOOTH",
"300 471 OFFCURVE",
"216 402 OFFCURVE",
"178 350 CURVE",
"197 321 LINE",
"207 339 OFFCURVE",
"252 395 OFFCURVE",
"327 395 CURVE SMOOTH",
"373 395 OFFCURVE",
"405 370 OFFCURVE",
"412 321 CURVE SMOOTH",
"415 298 OFFCURVE",
"417 267 OFFCURVE",
"417 233 CURVE SMOOTH",
"417 193 OFFCURVE",
"416 147 OFFCURVE",
"411 105 CURVE SMOOTH",
"405 57 OFFCURVE",
"382 46 OFFCURVE",
"351 46 CURVE SMOOTH",
"342 46 OFFCURVE",
"332 47 OFFCURVE",
"322 48 CURVE",
"330 0 LINE"
);
},
{
closed = 1;
nodes = (
"281 0 LINE",
"273 39 LINE",
"269 39 LINE SMOOTH",
"225 39 OFFCURVE",
"202 59 OFFCURVE",
"202 132 CURVE SMOOTH",
"202 250 OFFCURVE",
"206 528 OFFCURVE",
"221 655 CURVE",
"210 653 OFFCURVE",
"92 638 OFFCURVE",
"30 638 CURVE",
"35 590 LINE",
"95 590 OFFCURVE",
"120 588 OFFCURVE",
"122 541 CURVE SMOOTH",
"124 498 OFFCURVE",
"125 435 OFFCURVE",
"125 372 CURVE SMOOTH",
"125 270 OFFCURVE",
"122 169 OFFCURVE",
"117 115 CURVE SMOOTH",
"113 68 OFFCURVE",
"89 47 OFFCURVE",
"39 47 CURVE SMOOTH",
"29 47 LINE",
"37 0 LINE"
);
}
);
width = 598;
}
);
unicode = 0068;
},
{
glyphname = idotless;
lastChange = "2019-01-05 06:55:31 +0000";
layers = (
{
layerId = "51BB9282-3B82-4DF1-A67A-294D3E37D73A";
paths = (
{
closed = 1;
nodes = (
"277 0 LINE",
"269 39 LINE",
"265 39 LINE SMOOTH",
"221 39 OFFCURVE",
"197 56 OFFCURVE",
"197 141 CURVE SMOOTH",
"197 210 OFFCURVE",
"202 351 OFFCURVE",
"217 477 CURVE",
"199 474 OFFCURVE",
"90 459 OFFCURVE",
"30 459 CURVE",
"35 413 LINE",
"95 413 OFFCURVE",
"120 410 OFFCURVE",
"122 377 CURVE SMOOTH",
"125 321 OFFCURVE",
"125 258 OFFCURVE",
"125 195 CURVE SMOOTH",
"125 160 OFFCURVE",
"121 126 OFFCURVE",
"118 105 CURVE SMOOTH",
"113 68 OFFCURVE",
"89 47 OFFCURVE",
"39 47 CURVE SMOOTH",
"29 47 LINE",
"37 0 LINE"
);
}
);
width = 305;
}
);
unicode = 0131;
},
{
glyphname = j;
lastChange = "2019-01-05 06:56:11 +0000";
layers = (
{
components = (
{
name = dotaccent;
transform = "{1, 0, 0, 1, 140, -7}";
}
);
layerId = "51BB9282-3B82-4DF1-A67A-294D3E37D73A";
paths = (
{
closed = 1;
nodes = (
"153 -203 OFFCURVE",
"205 -144 OFFCURVE",
"205 -13 CURVE SMOOTH",
"205 65 LINE SMOOTH",
"205 184 OFFCURVE",
"207 386 OFFCURVE",
"213 466 CURVE",
"181 461 OFFCURVE",
"97 456 OFFCURVE",
"24 456 CURVE",
"28 410 LINE",
"99 410 OFFCURVE",
"122 387 OFFCURVE",
"126 353 CURVE SMOOTH",
"130 322 OFFCURVE",
"134 242 OFFCURVE",
"134 147 CURVE SMOOTH",
"134 100 OFFCURVE",
"134 49 OFFCURVE",
"129 -2 CURVE SMOOTH",
"119 -100 OFFCURVE",
"76 -150 OFFCURVE",
"17 -150 CURVE SMOOTH",
"8 -150 OFFCURVE",
"-2 -148 OFFCURVE",
"-12 -146 CURVE",
"-29 -185 LINE",
"-18 -191 OFFCURVE",
"21 -203 OFFCURVE",
"63 -203 CURVE SMOOTH"
);
}
);
width = 282;
}
);
unicode = 006A;
},
{
glyphname = jdotless;
lastChange = "2019-01-05 08:27:23 +0000";
layers = (
{
layerId = "51BB9282-3B82-4DF1-A67A-294D3E37D73A";
paths = (
{
closed = 1;
nodes = (
"153 -203 OFFCURVE",
"205 -144 OFFCURVE",
"205 -13 CURVE SMOOTH",
"205 65 LINE SMOOTH",
"205 184 OFFCURVE",
"207 386 OFFCURVE",
"213 466 CURVE",
"181 461 OFFCURVE",
"97 456 OFFCURVE",
"24 456 CURVE",
"28 410 LINE",
"99 410 OFFCURVE",
"122 387 OFFCURVE",
"126 353 CURVE SMOOTH",
"130 322 OFFCURVE",
"134 242 OFFCURVE",
"134 147 CURVE SMOOTH",
"134 100 OFFCURVE",
"134 49 OFFCURVE",
"129 -2 CURVE SMOOTH",
"119 -100 OFFCURVE",
"76 -150 OFFCURVE",
"17 -150 CURVE SMOOTH",
"8 -150 OFFCURVE",
"-2 -148 OFFCURVE",
"-12 -146 CURVE",
"-29 -185 LINE",
"-18 -191 OFFCURVE",
"21 -203 OFFCURVE",
"63 -203 CURVE SMOOTH"
);
}
);
width = 232;
}
);
unicode = 0237;
},
{
glyphname = k;
lastChange = "2019-01-05 09:23:49 +0000";
layers = (
{
layerId = "51BB9282-3B82-4DF1-A67A-294D3E37D73A";
paths = (
{
closed = 1;
nodes = (
"281 0 LINE",
"273 39 LINE",
"269 39 LINE SMOOTH",
"225 39 OFFCURVE",
"202 59 OFFCURVE",
"202 132 CURVE SMOOTH",
"202 250 OFFCURVE",
"206 528 OFFCURVE",
"221 655 CURVE",
"202 649 OFFCURVE",
"91 636 OFFCURVE",
"30 636 CURVE",
"35 590 LINE",
"95 590 OFFCURVE",
"120 588 OFFCURVE",
"122 554 CURVE SMOOTH",
"125 498 OFFCURVE",
"125 435 OFFCURVE",
"125 372 CURVE SMOOTH",
"125 270 OFFCURVE",
"125 169 OFFCURVE",
"118 105 CURVE SMOOTH",
"114 68 OFFCURVE",
"89 47 OFFCURVE",
"39 47 CURVE SMOOTH",
"29 47 LINE",
"37 0 LINE"
);
},
{
closed = 1;
nodes = (
"442 -9 OFFCURVE",
"449 -9 OFFCURVE",
"455 -9 CURVE SMOOTH",
"484 -9 OFFCURVE",
"516 -3 OFFCURVE",
"556 8 CURVE",
"547 48 LINE",
"416 50 OFFCURVE",
"327 255 OFFCURVE",
"321 275 CURVE",
"301 269 OFFCURVE",
"274 261 OFFCURVE",
"252 261 CURVE SMOOTH",
"246 261 OFFCURVE",
"241 262 OFFCURVE",
"236 263 CURVE",
"264 206 OFFCURVE",
"366 4 OFFCURVE",
"436 -8 CURVE"
);
},
{
closed = 1;
nodes = (
"227 236 OFFCURVE",
"295 236 OFFCURVE",
"319 242 CURVE",
"331 263 OFFCURVE",
"377 330 OFFCURVE",
"430 383 CURVE SMOOTH",
"454 407 OFFCURVE",
"478 419 OFFCURVE",
"502 420 CURVE",
"492 457 LINE",
"452 455 OFFCURVE",
"405 454 OFFCURVE",
"370 454 CURVE SMOOTH",
"349 454 OFFCURVE",
"333 455 OFFCURVE",
"316 457 CURVE",
"321 417 LINE",
"341 417 OFFCURVE",
"349 410 OFFCURVE",
"349 399 CURVE SMOOTH",
"349 394 OFFCURVE",
"346 388 OFFCURVE",
"343 383 CURVE",
"310 334 OFFCURVE",
"282 294 OFFCURVE",
"268 286 CURVE",
"247 286 OFFCURVE",
"222 290 OFFCURVE",
"203 294 CURVE",
"187 236 LINE"
);
}
);
width = 563;
}
);
unicode = 006B;
},
{
glyphname = kgreenlandic;
lastChange = "2019-01-05 04:57:26 +0000";
layers = (
{
layerId = "51BB9282-3B82-4DF1-A67A-294D3E37D73A";
paths = (
{
closed = 1;
nodes = (
"603 0 LINE",
"594 47 LINE",
"553 46 OFFCURVE",
"536 62 OFFCURVE",
"356 263 CURVE",
"359 230 LINE",
"388 266 OFFCURVE",
"467 339 OFFCURVE",
"515 381 CURVE SMOOTH",
"540 403 OFFCURVE",
"563 425 OFFCURVE",
"594 424 CURVE",
"587 470 LINE",
"587 470 OFFCURVE",
"525 466 OFFCURVE",
"452 466 CURVE SMOOTH",
"434 466 OFFCURVE",
"416 466 OFFCURVE",
"397 467 CURVE",
"404 420 LINE",
"440 422 OFFCURVE",
"452 413 OFFCURVE",
"452 402 CURVE SMOOTH",
"452 396 OFFCURVE",
"449 390 OFFCURVE",
"444 385 CURVE",
"394 330 OFFCURVE",
"325 268 OFFCURVE",
"296 242 CURVE",
"303 213 LINE",
"368 143 OFFCURVE",
"402 96 OFFCURVE",
"414 79 CURVE SMOOTH",
"422 68 OFFCURVE",
"425 61 OFFCURVE",
"425 55 CURVE SMOOTH",
"425 47 OFFCURVE",
"417 44 OFFCURVE",
"402 44 CURVE SMOOTH",
"396 44 LINE",
"407 0 LINE"
);
},
{
closed = 1;
nodes = (
"347 0 LINE",
"339 44 LINE",
"299 41 OFFCURVE",
"261 55 OFFCURVE",
"258 110 CURVE SMOOTH",
"256 151 OFFCURVE",
"255 183 OFFCURVE",
"255 213 CURVE SMOOTH",
"255 264 OFFCURVE",
"258 306 OFFCURVE",
"262 363 CURVE SMOOTH",
"266 411 OFFCURVE",
"298 421 OFFCURVE",
"337 420 CURVE",
"331 468 LINE",
"285 466 OFFCURVE",
"251 464 OFFCURVE",
"213 464 CURVE SMOOTH",
"184 464 OFFCURVE",
"152 465 OFFCURVE",
"111 467 CURVE",
"112 460 OFFCURVE",
"115 431 OFFCURVE",
"117 419 CURVE",
"177 420 OFFCURVE",
"187 396 OFFCURVE",
"187 347 CURVE SMOOTH",
"187 222 OFFCURVE",
"187 183 OFFCURVE",
"183 108 CURVE SMOOTH",
"181 59 OFFCURVE",
"167 50 OFFCURVE",
"116 49 CURVE",
"122 -1 LINE"
);
}
);
width = 571;
}
);
unicode = 0138;
},
{
glyphname = l;
lastChange = "2019-01-05 06:58:34 +0000";
layers = (
{
layerId = "51BB9282-3B82-4DF1-A67A-294D3E37D73A";
paths = (
{
closed = 1;
nodes = (
"281 0 LINE",
"273 39 LINE",
"269 39 LINE SMOOTH",
"225 39 OFFCURVE",
"206 56 OFFCURVE",
"202 132 CURVE SMOOTH",
"201 150 OFFCURVE",
"201 172 OFFCURVE",
"201 196 CURVE SMOOTH",
"201 331 OFFCURVE",
"208 547 OFFCURVE",
"221 655 CURVE",
"198 651 OFFCURVE",
"85 635 OFFCURVE",
"30 635 CURVE",
"35 590 LINE",
"95 590 OFFCURVE",
"120 588 OFFCURVE",
"122 554 CURVE SMOOTH",
"125 498 OFFCURVE",
"125 435 OFFCURVE",
"125 372 CURVE SMOOTH",
"125 270 OFFCURVE",
"125 169 OFFCURVE",
"118 105 CURVE SMOOTH",
"114 68 OFFCURVE",
"89 47 OFFCURVE",
"39 47 CURVE SMOOTH",
"29 47 LINE",
"37 0 LINE"
);
}
);
width = 307;
}
);
unicode = 006C;
},
{
glyphname = m;
lastChange = "2019-01-05 08:26:13 +0000";
layers = (
{
layerId = "51BB9282-3B82-4DF1-A67A-294D3E37D73A";
paths = (
{
closed = 1;
nodes = (
"287 0 LINE",
"280 37 LINE",
"250 37 OFFCURVE",
"214 42 OFFCURVE",
"214 105 CURVE SMOOTH",
"214 194 OFFCURVE",
"217 305 OFFCURVE",
"221 391 CURVE",
"204 381 LINE",
"209 401 OFFCURVE",
"218 458 OFFCURVE",
"218 468 CURVE",
"196 466 OFFCURVE",
"91 457 OFFCURVE",
"30 457 CURVE",
"35 411 LINE",
"131 409 OFFCURVE",
"132 374 OFFCURVE",
"132 291 CURVE SMOOTH",
"132 240 OFFCURVE",
"132 162 OFFCURVE",
"126 94 CURVE SMOOTH",
"123 59 OFFCURVE",
"93 47 OFFCURVE",
"59 47 CURVE SMOOTH",
"52 47 OFFCURVE",
"46 47 OFFCURVE",
"39 48 CURVE",
"45 0 LINE"
);
},
{
closed = 1;
nodes = (
"571 0 LINE",
"564 39 LINE",
"540 39 OFFCURVE",
"501 44 OFFCURVE",
"501 91 CURVE SMOOTH",
"501 111 OFFCURVE",
"503 163 OFFCURVE",
"504 187 CURVE SMOOTH",
"505 217 OFFCURVE",
"506 264 OFFCURVE",
"506 297 CURVE SMOOTH",
"506 322 OFFCURVE",
"505 355 OFFCURVE",
"503 370 CURVE SMOOTH",
"493 444 OFFCURVE",
"451 471 OFFCURVE",
"393 471 CURVE SMOOTH",
"310 471 OFFCURVE",
"235 420 OFFCURVE",
"197 373 CURVE",
"216 346 LINE",
"219 350 OFFCURVE",
"257 399 OFFCURVE",
"333 399 CURVE SMOOTH",
"379 399 OFFCURVE",
"409 372 OFFCURVE",
"415 323 CURVE SMOOTH",
"418 300 OFFCURVE",
"420 269 OFFCURVE",
"420 235 CURVE SMOOTH",
"420 195 OFFCURVE",
"419 147 OFFCURVE",
"414 105 CURVE SMOOTH",
"408 54 OFFCURVE",
"384 45 OFFCURVE",
"350 45 CURVE",
"340 45 LINE",
"348 0 LINE"
);
},
{
closed = 1;
nodes = (
"852 0 LINE",
"845 39 LINE",
"821 39 OFFCURVE",
"782 44 OFFCURVE",
"782 91 CURVE SMOOTH",
"782 111 OFFCURVE",
"784 163 OFFCURVE",
"785 187 CURVE SMOOTH",
"786 217 OFFCURVE",
"787 264 OFFCURVE",
"787 297 CURVE SMOOTH",
"787 322 OFFCURVE",
"786 353 OFFCURVE",
"784 370 CURVE SMOOTH",
"775 444 OFFCURVE",
"732 471 OFFCURVE",
"674 471 CURVE SMOOTH",
"591 471 OFFCURVE",
"516 420 OFFCURVE",
"478 373 CURVE",
"497 346 LINE",
"500 350 OFFCURVE",
"538 399 OFFCURVE",
"614 399 CURVE SMOOTH",
"660 399 OFFCURVE",
"690 372 OFFCURVE",
"696 323 CURVE SMOOTH",
"699 300 OFFCURVE",
"701 269 OFFCURVE",
"701 235 CURVE SMOOTH",
"701 195 OFFCURVE",
"700 147 OFFCURVE",
"695 105 CURVE SMOOTH",
"689 54 OFFCURVE",
"665 41 OFFCURVE",
"631 41 CURVE",
"621 41 LINE",
"629 0 LINE"
);
}
);
width = 872;
}
);
unicode = 006D;
},
{
glyphname = n;
lastChange = "2019-01-05 07:54:31 +0000";
layers = (
{
layerId = "51BB9282-3B82-4DF1-A67A-294D3E37D73A";
paths = (
{
closed = 1;
nodes = (
"594 0 LINE",
"587 39 LINE",
"563 39 OFFCURVE",
"518 43 OFFCURVE",
"518 101 CURVE SMOOTH",
"518 126 OFFCURVE",
"519 157 OFFCURVE",
"522 207 CURVE SMOOTH",
"523 224 OFFCURVE",
"524 259 OFFCURVE",
"524 287 CURVE SMOOTH",
"524 322 OFFCURVE",
"523 353 OFFCURVE",
"520 370 CURVE SMOOTH",
"507 443 OFFCURVE",
"464 470 OFFCURVE",
"406 470 CURVE SMOOTH",
"323 470 OFFCURVE",
"239 412 OFFCURVE",
"201 360 CURVE",
"220 331 LINE",
"226 341 OFFCURVE",
"273 397 OFFCURVE",
"350 397 CURVE SMOOTH",
"396 397 OFFCURVE",
"431 372 OFFCURVE",
"437 323 CURVE SMOOTH",
"440 300 OFFCURVE",
"442 269 OFFCURVE",
"442 235 CURVE SMOOTH",
"442 195 OFFCURVE",
"441 147 OFFCURVE",
"436 104 CURVE SMOOTH",
"431 57 OFFCURVE",
"408 42 OFFCURVE",
"367 42 CURVE SMOOTH",
"347 42 LINE",
"355 0 LINE"
);
},
{
closed = 1;
nodes = (
"297 0 LINE",
"290 37 LINE",
"260 37 OFFCURVE",
"224 42 OFFCURVE",
"224 105 CURVE SMOOTH",
"224 194 OFFCURVE",
"227 305 OFFCURVE",
"231 391 CURVE",
"214 375 LINE",
"219 395 OFFCURVE",
"228 458 OFFCURVE",
"228 468 CURVE",
"206 466 OFFCURVE",
"101 457 OFFCURVE",
"40 457 CURVE",
"45 411 LINE",
"141 409 OFFCURVE",
"142 374 OFFCURVE",
"142 291 CURVE SMOOTH",
"142 240 OFFCURVE",
"142 162 OFFCURVE",
"136 94 CURVE SMOOTH",
"133 59 OFFCURVE",
"103 47 OFFCURVE",
"69 47 CURVE SMOOTH",
"62 47 OFFCURVE",
"56 47 OFFCURVE",
"49 48 CURVE",
"55 0 LINE"
);
}
);
width = 622;
}
);
unicode = 006E;
},
{
glyphname = eng;
lastChange = "2019-01-05 04:56:58 +0000";
layers = (
{
layerId = "51BB9282-3B82-4DF1-A67A-294D3E37D73A";
paths = (
{
closed = 1;
nodes = (
"454 -244 OFFCURVE",
"517 -172 OFFCURVE",
"516 -89 CURVE",
"516 -12 OFFCURVE",
"523 218 OFFCURVE",
"523 287 CURVE SMOOTH",
"523 322 OFFCURVE",
"522 353 OFFCURVE",
"520 370 CURVE SMOOTH",
"509 443 OFFCURVE",
"464 471 OFFCURVE",
"406 471 CURVE SMOOTH",
"323 471 OFFCURVE",
"239 402 OFFCURVE",
"201 350 CURVE",
"220 321 LINE",
"220 321 OFFCURVE",
"273 395 OFFCURVE",
"350 395 CURVE SMOOTH",
"396 395 OFFCURVE",
"427 370 OFFCURVE",
"434 321 CURVE SMOOTH",
"437 298 OFFCURVE",
"440 267 OFFCURVE",
"440 233 CURVE SMOOTH",
"440 -44 LINE SMOOTH",
"440 -147 OFFCURVE",
"396 -196 OFFCURVE",
"343 -196 CURVE SMOOTH",
"336 -196 OFFCURVE",
"328 -195 OFFCURVE",
"320 -193 CURVE",
"340 -226 LINE",
"329 -204 OFFCURVE",
"313 -181 OFFCURVE",
"310 -132 CURVE",
"257 -131 LINE",
"249 -154 OFFCURVE",
"245 -179 OFFCURVE",
"243 -203 CURVE",
"259 -226 OFFCURVE",
"317 -244 OFFCURVE",
"363 -244 CURVE SMOOTH"
);
},
{
closed = 1;
nodes = (
"295 0 LINE",
"287 37 LINE",
"258 37 OFFCURVE",
"222 42 OFFCURVE",
"222 105 CURVE SMOOTH",
"222 194 LINE SMOOTH",
"222 252 OFFCURVE",
"222 311 OFFCURVE",
"225 368 CURVE",
"208 358 LINE",
"213 378 OFFCURVE",
"226 468 OFFCURVE",
"226 468 CURVE SMOOTH",
"226 468 OFFCURVE",
"99 457 OFFCURVE",
"38 458 CURVE",
"43 411 LINE",
"139 409 OFFCURVE",
"140 374 OFFCURVE",
"140 291 CURVE SMOOTH",
"140 240 OFFCURVE",
"140 162 OFFCURVE",
"133 94 CURVE SMOOTH",
"129 53 OFFCURVE",
"97 46 OFFCURVE",
"47 48 CURVE",
"53 0 LINE"
);
}
);
width = 462;
}
);
unicode = 014B;
},
{
glyphname = o;
lastChange = "2019-01-05 07:02:44 +0000";
layers = (
{
layerId = "51BB9282-3B82-4DF1-A67A-294D3E37D73A";
paths = (
{
closed = 1;
nodes = (
"409 -14 OFFCURVE",
"474 124 OFFCURVE",
"474 263 CURVE SMOOTH",
"474 413 OFFCURVE",
"394 473 OFFCURVE",
"279 473 CURVE SMOOTH",
"139 473 OFFCURVE",
"34 361 OFFCURVE",
"34 194 CURVE SMOOTH",
"34 69 OFFCURVE",
"101 -14 OFFCURVE",
"236 -14 CURVE SMOOTH"
);
},
{
closed = 1;
nodes = (
"175 33 OFFCURVE",
"132 119 OFFCURVE",
"132 231 CURVE SMOOTH",
"132 342 OFFCURVE",
"177 429 OFFCURVE",
"256 429 CURVE SMOOTH",
"332 429 OFFCURVE",
"383 351 OFFCURVE",
"383 241 CURVE SMOOTH",
"383 130 OFFCURVE",
"339 33 OFFCURVE",
"252 33 CURVE SMOOTH"
);
}
);
width = 509;
}
);
unicode = 006F;
},
{
glyphname = ohorn;
lastChange = "2019-01-05 04:56:58 +0000";
layers = (
{
components = (
{
name = o;
}
);
layerId = "51BB9282-3B82-4DF1-A67A-294D3E37D73A";
paths = (
{
closed = 1;
nodes = (
"435 419 OFFCURVE",
"501 460 OFFCURVE",
"501 527 CURVE SMOOTH",
"501 566 OFFCURVE",
"484 585 OFFCURVE",
"464 596 CURVE",
"441 598 OFFCURVE",
"420 591 OFFCURVE",
"405 581 CURVE",
"420 564 OFFCURVE",
"431 548 OFFCURVE",
"431 518 CURVE SMOOTH",
"431 465 OFFCURVE",
"396 460 OFFCURVE",
"382 460 CURVE SMOOTH",
"370 460 OFFCURVE",
"348 465 OFFCURVE",
"339 465 CURVE",
"387 413 LINE"
);
}
);
width = 509;
}
);
unicode = 01A1;
},
{
glyphname = ohornhookabove;
lastChange = "2019-01-05 04:56:58 +0000";
layers = (
{
components = (
{
name = hookabovecomb;
transform = "{1, 0, 0, 1, 268, -103}";
},
{
name = o;
}
);
layerId = "51BB9282-3B82-4DF1-A67A-294D3E37D73A";
paths = (
{
closed = 1;
nodes = (
"459 415 OFFCURVE",
"481 458 OFFCURVE",
"481 501 CURVE SMOOTH",
"481 544 OFFCURVE",
"454 606 OFFCURVE",
"401 606 CURVE SMOOTH",
"368 606 OFFCURVE",
"353 587 OFFCURVE",
"357 550 CURVE",
"388 540 OFFCURVE",
"424 517 OFFCURVE",
"424 487 CURVE SMOOTH",
"424 467 OFFCURVE",
"400 459 OFFCURVE",
"378 459 CURVE SMOOTH",
"367 459 OFFCURVE",
"356 460 OFFCURVE",
"346 463 CURVE",
"386 423 LINE SMOOTH",
"392 417 OFFCURVE",
"393 415 OFFCURVE",
"397 415 CURVE SMOOTH"
);
}
);
width = 509;
}
);
unicode = 1EDF;
},
{
glyphname = p;
lastChange = "2019-01-05 08:26:17 +0000";
layers = (
{
layerId = "51BB9282-3B82-4DF1-A67A-294D3E37D73A";
paths = (
{
closed = 1;
nodes = (
"302 -195 LINE",
"295 -158 LINE",
"291 -158 OFFCURVE",
"287 -158 OFFCURVE",
"283 -157 CURVE",
"209 -151 OFFCURVE",
"202 -103 OFFCURVE",
"202 -47 CURVE SMOOTH",
"202 25 OFFCURVE",
"202 91 OFFCURVE",
"202 136 CURVE SMOOTH",
"202 215 LINE SMOOTH",
"202 269 OFFCURVE",
"205 325 OFFCURVE",
"208 376 CURVE",
"190 370 LINE",
"195 390 OFFCURVE",
"208 465 OFFCURVE",
"208 468 CURVE",
"197 466 OFFCURVE",
"137 457 OFFCURVE",
"70 457 CURVE SMOOTH",
"33 457 OFFCURVE",
"29 457 OFFCURVE",
"20 458 CURVE",
"25 409 LINE",
"112 409 OFFCURVE",
"118 379 OFFCURVE",
"126 280 CURVE SMOOTH",
"127 263 OFFCURVE",
"128 224 OFFCURVE",
"128 181 CURVE SMOOTH",
"128 132 OFFCURVE",
"127 26 OFFCURVE",
"125 -10 CURVE SMOOTH",
"118 -114 OFFCURVE",
"112 -156 OFFCURVE",
"35 -156 CURVE",
"41 -195 LINE"
);
},
{
closed = 1;
nodes = (
"415 4 OFFCURVE",
"537 120 OFFCURVE",
"537 281 CURVE SMOOTH",
"537 405 OFFCURVE",
"465 473 OFFCURVE",
"369 473 CURVE SMOOTH",
"279 473 OFFCURVE",
"206 412 OFFCURVE",
"182 355 CURVE",
"205 323 LINE",
"224 366 OFFCURVE",
"270 410 OFFCURVE",
"329 410 CURVE SMOOTH",
"406 410 OFFCURVE",
"434 337 OFFCURVE",
"434 253 CURVE SMOOTH",
"434 150 OFFCURVE",
"392 55 OFFCURVE",
"290 55 CURVE SMOOTH",
"236 55 OFFCURVE",
"191 79 OFFCURVE",
"185 84 CURVE",
"164 16 LINE",
"183 9 OFFCURVE",
"214 4 OFFCURVE",
"249 4 CURVE SMOOTH"
);
}
);
width = 581;
}
);
unicode = 0070;
},
{
glyphname = thorn;
lastChange = "2019-01-05 04:57:23 +0000";
layers = (
{
layerId = "51BB9282-3B82-4DF1-A67A-294D3E37D73A";
paths = (
{
closed = 1;
nodes = (
"313 -176 LINE",
"306 -139 LINE",
"302 -139 OFFCURVE",
"298 -139 OFFCURVE",
"294 -138 CURVE",
"220 -132 OFFCURVE",
"216 -74 OFFCURVE",
"214 23 CURVE SMOOTH",
"213 103 OFFCURVE",
"213 332 OFFCURVE",
"213 369 CURVE SMOOTH",
"213 430 LINE SMOOTH",
"213 496 OFFCURVE",
"214 545 OFFCURVE",
"219 622 CURVE",
"219 622 OFFCURVE",
"140 611 OFFCURVE",
"68 611 CURVE SMOOTH",
"55 611 OFFCURVE",
"42 611 OFFCURVE",
"31 612 CURVE",
"36 563 LINE",
"100 564 OFFCURVE",
"127 540 OFFCURVE",
"131 505 CURVE",
"132 492 OFFCURVE",
"133 470 OFFCURVE",
"133 443 CURVE SMOOTH",
"133 406 OFFCURVE",
"132 137 OFFCURVE",
"129 40 CURVE SMOOTH",
"127 -75 OFFCURVE",
"129 -118 OFFCURVE",
"69 -126 CURVE SMOOTH",
"62 -127 OFFCURVE",
"55 -128 OFFCURVE",
"46 -128 CURVE",
"52 -176 LINE"
);
},
{
closed = 1;
nodes = (
"282 -3 OFFCURVE",
"306 -1 OFFCURVE",
"329 4 CURVE SMOOTH",
"484 39 OFFCURVE",
"548 174 OFFCURVE",
"548 282 CURVE SMOOTH",
"548 405 OFFCURVE",
"476 473 OFFCURVE",
"378 473 CURVE SMOOTH",
"287 473 OFFCURVE",
"213 412 OFFCURVE",
"187 355 CURVE",
"211 323 LINE",
"228 365 OFFCURVE",
"281 411 OFFCURVE",
"339 410 CURVE SMOOTH",
"417 407 OFFCURVE",
"445 336 OFFCURVE",
"445 259 CURVE SMOOTH",
"445 141 OFFCURVE",
"399 62 OFFCURVE",
"330 48 CURVE SMOOTH",
"320 46 OFFCURVE",
"310 45 OFFCURVE",
"301 45 CURVE SMOOTH",
"245 45 OFFCURVE",
"206 77 OFFCURVE",
"206 77 CURVE",
"175 9 LINE",
"194 2 OFFCURVE",
"225 -3 OFFCURVE",
"261 -3 CURVE SMOOTH"
);
}
);
width = 592;
}
);
unicode = 00FE;
},
{
glyphname = q;
lastChange = "2019-01-05 07:11:20 +0000";
layers = (
{
layerId = "51BB9282-3B82-4DF1-A67A-294D3E37D73A";
paths = (
{
closed = 1;
nodes = (
"281 -6 OFFCURVE",
"347 36 OFFCURVE",
"384 123 CURVE",
"358 155 LINE",
"330 90 OFFCURVE",
"286 55 OFFCURVE",
"228 55 CURVE SMOOTH",
"185 55 OFFCURVE",
"128 91 OFFCURVE",
"128 194 CURVE SMOOTH",
"128 333 OFFCURVE",
"184 414 OFFCURVE",
"247 426 CURVE",
"254 427 OFFCURVE",
"261 428 OFFCURVE",
"268 428 CURVE SMOOTH",
"343 428 OFFCURVE",
"378 366 OFFCURVE",
"387 349 CURVE",
"443 449 LINE",
"410 462 OFFCURVE",
"360 474 OFFCURVE",
"284 474 CURVE SMOOTH",
"107 474 OFFCURVE",
"35 332 OFFCURVE",
"35 188 CURVE SMOOTH",
"35 64 OFFCURVE",
"103 -6 OFFCURVE",
"210 -6 CURVE SMOOTH"
);
},
{
closed = 1;
nodes = (
"518 -195 LINE",
"514 -158 LINE",
"466 -158 OFFCURVE",
"443 -118 OFFCURVE",
"440 -69 CURVE SMOOTH",
"435 19 OFFCURVE",
"434 138 OFFCURVE",
"434 228 CURVE SMOOTH",
"434 319 OFFCURVE",
"437 400 OFFCURVE",
"443 449 CURVE",
"288 464 LINE",
"298 430 LINE",
"304 431 OFFCURVE",
"310 431 OFFCURVE",
"315 431 CURVE SMOOTH",
"346 431 OFFCURVE",
"350 397 OFFCURVE",
"353 341 CURVE SMOOTH",
"354 323 OFFCURVE",
"356 188 OFFCURVE",
"356 81 CURVE SMOOTH",
"356 15 LINE SMOOTH",
"356 -115 OFFCURVE",
"344 -142 OFFCURVE",
"264 -147 CURVE",
"270 -195 LINE"
);
}
);
width = 525;
}
);
unicode = 0071;
},
{
glyphname = r;
lastChange = "2019-01-05 08:29:09 +0000";
layers = (
{
layerId = "51BB9282-3B82-4DF1-A67A-294D3E37D73A";
paths = (
{
closed = 1;
nodes = (
"327 0 LINE",
"319 37 LINE",
"314 37 LINE",
"276 37 OFFCURVE",
"230 49 OFFCURVE",
"223 123 CURVE SMOOTH",
"221 143 OFFCURVE",
"220 171 OFFCURVE",
"220 220 CURVE SMOOTH",
"220 256 OFFCURVE",
"223 311 OFFCURVE",
"227 368 CURVE",
"212 358 LINE",
"217 378 OFFCURVE",
"226 444 OFFCURVE",
"228 468 CURVE",
"172 462 OFFCURVE",
"121 458 OFFCURVE",
"63 458 CURVE SMOOTH",
"40 458 LINE",
"45 410 LINE",
"114 410 OFFCURVE",
"134 391 OFFCURVE",
"140 349 CURVE SMOOTH",
"142 333 OFFCURVE",
"142 314 OFFCURVE",
"142 291 CURVE SMOOTH",
"142 240 OFFCURVE",
"142 162 OFFCURVE",
"135 94 CURVE SMOOTH",
"131 51 OFFCURVE",
"105 48 OFFCURVE",
"58 48 CURVE",
"64 0 LINE"
);
},
{
closed = 1;
nodes = (
"218 322 OFFCURVE",
"257 357 OFFCURVE",
"298 370 CURVE SMOOTH",
"310 374 OFFCURVE",
"328 375 OFFCURVE",
"341 375 CURVE",
"324 381 LINE",
"352 370 OFFCURVE",
"366 350 OFFCURVE",
"371 332 CURVE",
"419 330 LINE",
"424 362 OFFCURVE",
"428 428 OFFCURVE",
"428 461 CURVE SMOOTH",
"428 464 OFFCURVE",
"428 467 OFFCURVE",
"428 470 CURVE",
"333 470 OFFCURVE",
"199 383 OFFCURVE",
"174 293 CURVE",
"193 265 LINE"
);
}
);
width = 448;
}
);
leftMetricsKey = "=n";
unicode = 0072;
},
{
glyphname = s;
lastChange = "2019-01-05 08:37:42 +0000";
layers = (
{
layerId = "51BB9282-3B82-4DF1-A67A-294D3E37D73A";
paths = (
{
closed = 1;
nodes = (
"298 -19 OFFCURVE",
"367 43 OFFCURVE",
"367 125 CURVE SMOOTH",
"367 205 OFFCURVE",
"298 239 OFFCURVE",
"236 270 CURVE",
"216 280 LINE",
"174 302 OFFCURVE",
"140 326 OFFCURVE",
"140 366 CURVE SMOOTH",
"140 403 OFFCURVE",
"171 427 OFFCURVE",
"211 427 CURVE SMOOTH",
"276 427 OFFCURVE",
"308 369 OFFCURVE",
"313 356 CURVE",
"317 404 LINE",
"263 455 LINE",
"279 418 OFFCURVE",
"291 371 OFFCURVE",
"292 343 CURVE",
"350 336 LINE",
"353 353 OFFCURVE",
"354 381 OFFCURVE",
"354 407 CURVE SMOOTH",
"354 422 OFFCURVE",
"354 436 OFFCURVE",
"353 447 CURVE",
"344 451 OFFCURVE",
"297 467 OFFCURVE",
"227 467 CURVE SMOOTH",
"119 467 OFFCURVE",
"60 406 OFFCURVE",
"60 334 CURVE SMOOTH",
"60 270 OFFCURVE",
"115 237 OFFCURVE",
"171 208 CURVE",
"190 198 LINE",
"238 173 OFFCURVE",
"282 148 OFFCURVE",
"282 105 CURVE SMOOTH",
"282 57 OFFCURVE",
"248 28 OFFCURVE",
"197 28 CURVE SMOOTH",
"134 28 OFFCURVE",
"109 80 OFFCURVE",
"100 99 CURVE",
"104 65 OFFCURVE",
"108 32 OFFCURVE",
"139 23 CURVE",
"121 50 OFFCURVE",
"119 94 OFFCURVE",
"119 120 CURVE",
"55 127 LINE",
"50 95 OFFCURVE",
"49 64 OFFCURVE",
"49 47 CURVE SMOOTH",
"49 35 OFFCURVE",
"50 14 OFFCURVE",
"51 5 CURVE",
"76 -4 OFFCURVE",
"127 -19 OFFCURVE",
"189 -19 CURVE SMOOTH"
);
}
);
width = 398;
}
);
unicode = 0073;
userData = {
com.typemytype.robofont.layerData = {
"Regular Nov 4 16, 19:41" = {
anchors = (
{
name = top;
x = 284;
y = 670;
},
{
name = bottom;
x = 256;
y = -10;
}
);
components = (
);
contours = (
{
points = (
{
smooth = 0;
x = 387;
y = -25;
},
{
smooth = 0;
x = 477;
y = 56;
},
{
segmentType = curve;
smooth = 1;
x = 477;
y = 162;
},
{
smooth = 0;
x = 477;
y = 352;
},
{
smooth = 0;
x = 182;
y = 340;
},
{
segmentType = curve;
smooth = 1;
x = 182;
y = 475;
},
{
smooth = 0;
x = 182;
y = 524;
},
{
smooth = 0;
x = 222;
y = 555;
},
{
segmentType = curve;
smooth = 1;
x = 274;
y = 555;
},
{
smooth = 0;
x = 358;
y = 554;
},
{
smooth = 0;
x = 379;
y = 478;
},
{
segmentType = curve;
smooth = 0;
x = 393;
y = 462;
},
{
segmentType = line;
smooth = 1;
x = 338;
y = 591;
},
{
smooth = 0;
x = 359;
y = 543;
},
{
smooth = 0;
x = 374;
y = 482;
},
{
segmentType = curve;
smooth = 0;
x = 375;
y = 445;
},
{
segmentType = line;
smooth = 0;
x = 455;
y = 437;
},
{
smooth = 0;
x = 458;
y = 459;
},
{
smooth = 0;
x = 460;
y = 495;
},
{
segmentType = curve;
smooth = 1;
x = 460;
y = 528;
},
{
smooth = 0;
x = 460;
y = 548;
},
{
smooth = 0;
x = 459;
y = 566;
},
{
segmentType = curve;
smooth = 0;
x = 458;
y = 580;
},
{
smooth = 0;
x = 458;
y = 580;
},
{
smooth = 0;
x = 388;
y = 606;
},
{
segmentType = curve;
smooth = 1;
x = 295;
y = 606;
},
{
smooth = 0;
x = 154;
y = 606;
},
{
smooth = 0;
x = 78;
y = 527;
},
{
segmentType = curve;
smooth = 1;
x = 78;
y = 434;
},
{
smooth = 0;
x = 78;
y = 267;
},
{
smooth = 0;
x = 366;
y = 264;
},
{
segmentType = curve;
smooth = 1;
x = 366;
y = 136;
},
{
smooth = 0;
x = 366;
y = 74;
},
{
smooth = 0;
x = 322;
y = 36;
},
{
segmentType = curve;
smooth = 1;
x = 256;
y = 36;
},
{
smooth = 0;
x = 168;
y = 36;
},
{
smooth = 0;
x = 147;
y = 94;
},
{
segmentType = curve;
smooth = 0;
x = 115;
y = 128;
},
{
smooth = 0;
x = 122;
y = 85;
},
{
smooth = 0;
x = 134;
y = 41;
},
{
segmentType = curve;
smooth = 0;
x = 175;
y = 30;
},
{
smooth = 0;
x = 151;
y = 65;
},
{
smooth = 0;
x = 142;
y = 109;
},
{
segmentType = curve;
smooth = 0;
x = 139;
y = 156;
},
{
segmentType = line;
smooth = 0;
x = 56;
y = 165;
},
{
smooth = 0;
x = 50;
y = 124;
},
{
smooth = 0;
x = 47;
y = 83;
},
{
segmentType = curve;
smooth = 1;
x = 47;
y = 49;
},
{
smooth = 0;
x = 47;
y = 33;
},
{
smooth = 0;
x = 48;
y = 18;
},
{
segmentType = curve;
smooth = 0;
x = 49;
y = 7;
},
{
smooth = 0;
x = 49;
y = 7;
},
{
smooth = 0;
x = 132;
y = -25;
},
{
segmentType = curve;
smooth = 1;
x = 245;
y = -25;
}
);
}
);
lib = {
};
name = s;
unicodes = (
);
width = 531;
};
};
};
},
{
glyphname = germandbls;
lastChange = "2019-01-05 04:56:58 +0000";
layers = (
{
layerId = "51BB9282-3B82-4DF1-A67A-294D3E37D73A";
paths = (
{
closed = 1;
nodes = (
"468 -8 OFFCURVE",
"521 63 OFFCURVE",
"521 143 CURVE SMOOTH",
"521 226 OFFCURVE",
"459 316 OFFCURVE",
"322 359 CURVE",
"337 329 LINE",
"368 360 OFFCURVE",
"441 427 OFFCURVE",
"441 500 CURVE SMOOTH",
"441 579 OFFCURVE",
"379 634 OFFCURVE",
"277 634 CURVE SMOOTH",
"192 634 OFFCURVE",
"108 596 OFFCURVE",
"108 497 CURVE SMOOTH",
"108 428 LINE",
"144 441 LINE",
"94 433 OFFCURVE",
"49 429 OFFCURVE",
"15 429 CURVE",
"20 381 LINE",
"97 381 OFFCURVE",
"107 361 OFFCURVE",
"115 311 CURVE",
"106 404 LINE",
"109 342 OFFCURVE",
"110 268 OFFCURVE",
"110 195 CURVE SMOOTH",
"110 160 OFFCURVE",
"107 126 OFFCURVE",
"103 105 CURVE",
"98 68 OFFCURVE",
"84 47 OFFCURVE",
"34 47 CURVE SMOOTH",
"24 47 LINE",
"32 0 LINE",
"202 0 LINE",
"197 44 OFFCURVE",
"194 88 OFFCURVE",
"193 132 CURVE SMOOTH",
"192 176 OFFCURVE",
"188 277 OFFCURVE",
"188 375 CURVE SMOOTH",
"188 431 OFFCURVE",
"189 485 OFFCURVE",
"193 527 CURVE",
"195 562 OFFCURVE",
"211 589 OFFCURVE",
"248 589 CURVE SMOOTH",
"305 589 OFFCURVE",
"345 544 OFFCURVE",
"345 484 CURVE SMOOTH",
"345 406 OFFCURVE",
"296 340 OFFCURVE",
"276 312 CURVE",
"292 293 LINE",
"400 258 OFFCURVE",
"429 180 OFFCURVE",
"429 125 CURVE SMOOTH",
"429 74 OFFCURVE",
"401 33 OFFCURVE",
"362 33 CURVE SMOOTH",
"326 33 OFFCURVE",
"300 47 OFFCURVE",
"283 60 CURVE",
"295 41 OFFCURVE",
"322 27 OFFCURVE",
"349 22 CURVE",
"310 47 OFFCURVE",
"304 91 OFFCURVE",
"300 125 CURVE",
"250 126 LINE",
"248 105 OFFCURVE",
"247 83 OFFCURVE",
"247 62 CURVE SMOOTH",
"247 42 OFFCURVE",
"249 19 OFFCURVE",
"252 9 CURVE",
"252 9 OFFCURVE",
"307 -11 OFFCURVE",
"377 -8 CURVE"
);
}
);
width = 552;
}
);
rightMetricsKey = "=B";
unicode = 00DF;
userData = {
public.markColor = "0.85,0.26,0.06,1";
};
},
{
glyphname = t;
lastChange = "2019-01-05 07:19:52 +0000";
layers = (
{
layerId = "51BB9282-3B82-4DF1-A67A-294D3E37D73A";
paths = (
{
closed = 1;
nodes = (
"258 -13 OFFCURVE",
"313 25 OFFCURVE",
"330 43 CURVE",
"310 69 LINE",
"291 57 OFFCURVE",
"271 51 OFFCURVE",
"253 51 CURVE SMOOTH",
"223 51 OFFCURVE",
"194 60 OFFCURVE",
"182 93 CURVE SMOOTH",
"177 107 OFFCURVE",
"174 137 OFFCURVE",
"174 171 CURVE SMOOTH",
"174 255 OFFCURVE",
"175 331 OFFCURVE",
"182 390 CURVE",
"311 400 LINE",
"302 450 LINE",
"183 450 LINE",
"185 506 OFFCURVE",
"188 562 OFFCURVE",
"192 610 CURVE",
"106 591 LINE",
"106 450 LINE",
"12 450 LINE",
"19 398 LINE",
"64 398 OFFCURVE",
"103 386 OFFCURVE",
"109 383 CURVE",
"99 410 LINE",
"102 380 OFFCURVE",
"102 350 OFFCURVE",
"102 320 CURVE SMOOTH",
"102 271 OFFCURVE",
"99 225 OFFCURVE",
"96 184 CURVE SMOOTH",
"92 133 OFFCURVE",
"91 119 OFFCURVE",
"91 99 CURVE SMOOTH",
"91 28 OFFCURVE",
"122 -13 OFFCURVE",
"195 -13 CURVE SMOOTH"
);
}
);
width = 340;
}
);
unicode = 0074;
},
{
glyphname = tbar;
lastChange = "2019-01-05 04:56:58 +0000";
layers = (
{
components = (
{
name = t;
}
);
layerId = "51BB9282-3B82-4DF1-A67A-294D3E37D73A";
paths = (
{
closed = 1;
nodes = (
"298 226 LINE",
"294 253 OFFCURVE",
"293 265 OFFCURVE",
"292 286 CURVE",
"242 284 OFFCURVE",
"184 283 OFFCURVE",
"127 283 CURVE SMOOTH",
"86 283 OFFCURVE",
"45 283 OFFCURVE",
"10 286 CURVE",
"15 226 LINE"
);
}
);
width = 462;
}
);
unicode = 0167;
},
{
glyphname = u;
lastChange = "2019-01-05 07:47:22 +0000";
layers = (
{
layerId = "51BB9282-3B82-4DF1-A67A-294D3E37D73A";
paths = (
{
closed = 1;
nodes = (
"289 -11 OFFCURVE",
"354 59 OFFCURVE",
"392 111 CURVE",
"372 139 LINE",
"367 127 OFFCURVE",
"339 65 OFFCURVE",
"262 65 CURVE SMOOTH",
"217 65 OFFCURVE",
"181 91 OFFCURVE",
"175 139 CURVE SMOOTH",
"172 162 OFFCURVE",
"171 193 OFFCURVE",
"171 227 CURVE SMOOTH",
"171 309 OFFCURVE",
"176 396 OFFCURVE",
"189 463 CURVE",
"149 458 OFFCURVE",
"106 453 OFFCURVE",
"54 453 CURVE SMOOTH",
"39 453 OFFCURVE",
"24 453 OFFCURVE",
"8 454 CURVE",
"13 404 LINE",
"18 404 LINE",
"44 404 OFFCURVE",
"99 403 OFFCURVE",
"99 355 CURVE SMOOTH",
"99 314 OFFCURVE",
"97 279 OFFCURVE",
"95 251 CURVE SMOOTH",
"92 203 OFFCURVE",
"91 171 OFFCURVE",
"91 133 CURVE SMOOTH",
"91 62 OFFCURVE",
"114 -11 OFFCURVE",
"207 -11 CURVE SMOOTH"
);
},
{
closed = 1;
nodes = (
"535 0 LINE",
"528 43 LINE",
"453 45 OFFCURVE",
"448 79 OFFCURVE",
"448 141 CURVE SMOOTH",
"448 191 OFFCURVE",
"448 268 OFFCURVE",
"454 355 CURVE SMOOTH",
"462 464 LINE",
"428 459 OFFCURVE",
"369 454 OFFCURVE",
"317 454 CURVE SMOOTH",
"302 454 OFFCURVE",
"287 454 OFFCURVE",
"275 455 CURVE",
"281 409 LINE",
"283 409 OFFCURVE",
"285 409 OFFCURVE",
"288 409 CURVE SMOOTH",
"317 409 OFFCURVE",
"368 407 OFFCURVE",
"370 345 CURVE SMOOTH",
"370 336 OFFCURVE",
"370 327 OFFCURVE",
"370 317 CURVE SMOOTH",
"370 296 OFFCURVE",
"370 271 OFFCURVE",
"370 246 CURVE SMOOTH",
"370 190 LINE SMOOTH",
"370 156 OFFCURVE",
"369 114 OFFCURVE",
"367 92 CURVE",
"383 102 LINE",
"382 82 OFFCURVE",
"375 23 OFFCURVE",
"372 0 CURVE"
);
}
);
width = 546;
}
);
unicode = 0075;
},
{
glyphname = uhorn;
lastChange = "2019-01-05 04:56:43 +0000";
layers = (
{
components = (
{
name = u;
}
);
layerId = "51BB9282-3B82-4DF1-A67A-294D3E37D73A";
paths = (
{
closed = 1;
nodes = (
"480 417 OFFCURVE",
"547 458 OFFCURVE",
"547 526 CURVE SMOOTH",
"547 564 OFFCURVE",
"530 584 OFFCURVE",
"510 594 CURVE",
"500 595 LINE",
"481 595 OFFCURVE",
"464 588 OFFCURVE",
"450 579 CURVE",
"466 562 OFFCURVE",
"477 547 OFFCURVE",
"477 517 CURVE SMOOTH",
"477 469 OFFCURVE",
"448 460 OFFCURVE",
"432 458 CURVE SMOOTH",
"421 457 OFFCURVE",
"410 455 OFFCURVE",
"400 455 CURVE",
"432 412 LINE"
);
}
);
width = 561;
}
);
unicode = 01B0;
},
{
glyphname = v;
lastChange = "2019-01-05 07:56:13 +0000";
layers = (
{
layerId = "51BB9282-3B82-4DF1-A67A-294D3E37D73A";
paths = (
{
closed = 1;
nodes = (
"291 14 LINE",
"315 75 OFFCURVE",
"373 217 OFFCURVE",
"433 353 CURVE SMOOTH",
"447 385 OFFCURVE",
"461 415 OFFCURVE",
"509 417 CURVE",
"500 461 LINE",
"460 459 OFFCURVE",
"425 458 OFFCURVE",
"389 458 CURVE SMOOTH",
"359 458 OFFCURVE",
"327 459 OFFCURVE",
"293 461 CURVE",
"299 413 LINE",
"344 413 OFFCURVE",
"379 409 OFFCURVE",
"379 380 CURVE SMOOTH",
"379 375 OFFCURVE",
"378 369 OFFCURVE",
"376 363 CURVE SMOOTH",
"329 233 OFFCURVE",
"279 112 OFFCURVE",
"252 55 CURVE",
"246 122 LINE",
"223 185 OFFCURVE",
"189 279 OFFCURVE",
"172 357 CURVE SMOOTH",
"170 366 OFFCURVE",
"169 374 OFFCURVE",
"169 381 CURVE SMOOTH",
"169 410 OFFCURVE",
"190 416 OFFCURVE",
"238 420 CURVE",
"227 461 LINE",
"178 459 OFFCURVE",
"139 459 OFFCURVE",
"98 459 CURVE SMOOTH",
"68 459 OFFCURVE",
"38 459 OFFCURVE",
"2 461 CURVE",
"13 412 LINE",
"49 412 OFFCURVE",
"67 408 OFFCURVE",
"82 358 CURVE SMOOTH",
"137 175 OFFCURVE",
"172 74 OFFCURVE",
"202 -12 CURVE"
);
}
);
width = 507;
}
);
unicode = 0076;
},
{
glyphname = w;
lastChange = "2019-01-05 08:11:18 +0000";
layers = (
{
layerId = "51BB9282-3B82-4DF1-A67A-294D3E37D73A";
paths = (
{
closed = 1;
nodes = (
"554 1 LINE",
"573 62 OFFCURVE",
"627 215 OFFCURVE",
"680 352 CURVE SMOOTH",
"695 391 OFFCURVE",
"705 413 OFFCURVE",
"752 413 CURVE",
"743 460 LINE",
"717 458 OFFCURVE",
"676 456 OFFCURVE",
"644 456 CURVE SMOOTH",
"613 456 OFFCURVE",
"571 458 OFFCURVE",
"543 460 CURVE",
"550 410 LINE",
"594 410 OFFCURVE",
"627 403 OFFCURVE",
"627 372 CURVE SMOOTH",
"627 366 OFFCURVE",
"626 360 OFFCURVE",
"624 353 CURVE SMOOTH",
"582 226 OFFCURVE",
"547 122 OFFCURVE",
"523 67 CURVE",
"512 159 LINE",
"489 223 OFFCURVE",
"470 278 OFFCURVE",
"448 354 CURVE",
"445 366 OFFCURVE",
"443 376 OFFCURVE",
"443 384 CURVE SMOOTH",
"443 408 OFFCURVE",
"459 415 OFFCURVE",
"495 417 CURVE",
"487 460 LINE",
"458 459 OFFCURVE",
"415 458 OFFCURVE",
"379 458 CURVE SMOOTH",
"350 458 OFFCURVE",
"308 459 OFFCURVE",
"280 460 CURVE",
"293 410 LINE",
"330 410 OFFCURVE",
"350 399 OFFCURVE",
"363 362 CURVE SMOOTH",
"407 234 OFFCURVE",
"457 84 OFFCURVE",
"483 -12 CURVE"
);
},
{
closed = 1;
nodes = (
"279 1 LINE",
"307 62 OFFCURVE",
"370 215 OFFCURVE",
"420 351 CURVE",
"369 353 LINE",
"346 286 OFFCURVE",
"273 112 OFFCURVE",
"250 65 CURVE",
"245 159 LINE",
"220 223 OFFCURVE",
"202 279 OFFCURVE",
"180 354 CURVE SMOOTH",
"177 364 OFFCURVE",
"175 373 OFFCURVE",
"175 380 CURVE SMOOTH",
"175 414 OFFCURVE",
"211 417 OFFCURVE",
"247 417 CURVE",
"236 460 LINE",
"192 457 OFFCURVE",
"156 455 OFFCURVE",
"118 455 CURVE SMOOTH",
"86 455 OFFCURVE",
"52 457 OFFCURVE",
"10 460 CURVE",
"18 410 LINE",
"54 410 OFFCURVE",
"74 405 OFFCURVE",
"90 356 CURVE SMOOTH",
"150 174 OFFCURVE",
"182 74 OFFCURVE",
"209 -12 CURVE"
);
}
);
width = 751;
}
);
unicode = 0077;
},
{
glyphname = x;
lastChange = "2019-01-05 08:26:36 +0000";
layers = (
{
layerId = "51BB9282-3B82-4DF1-A67A-294D3E37D73A";
paths = (
{
closed = 1;
nodes = (
"480 -2 LINE",
"471 40 LINE",
"442 40 OFFCURVE",
"428 55 OFFCURVE",
"399 90 CURVE SMOOTH",
"355 143 OFFCURVE",
"302 225 OFFCURVE",
"284 259 CURVE",
"254 262 LINE",
"228 296 OFFCURVE",
"200 341 OFFCURVE",
"184 368 CURVE SMOOTH",
"178 378 OFFCURVE",
"176 386 OFFCURVE",
"176 393 CURVE SMOOTH",
"176 409 OFFCURVE",
"190 417 OFFCURVE",
"219 417 CURVE",
"211 460 LINE",
"182 458 OFFCURVE",
"150 457 OFFCURVE",
"116 457 CURVE SMOOTH",
"82 457 OFFCURVE",
"46 458 OFFCURVE",
"8 460 CURVE",
"15 416 LINE",
"39 416 OFFCURVE",
"61 408 OFFCURVE",
"87 373 CURVE SMOOTH",
"120 328 OFFCURVE",
"165 259 OFFCURVE",
"189 219 CURVE",
"211 217 LINE",
"243 180 OFFCURVE",
"281 124 OFFCURVE",
"299 91 CURVE SMOOTH",
"305 80 OFFCURVE",
"312 66 OFFCURVE",
"312 59 CURVE SMOOTH",
"312 42 OFFCURVE",
"289 36 OFFCURVE",
"258 36 CURVE",
"265 -2 LINE"
);
},
{
closed = 1;
nodes = (
"210 -2 LINE",
"200 37 LINE",
"168 37 OFFCURVE",
"157 45 OFFCURVE",
"157 58 CURVE SMOOTH",
"157 66 OFFCURVE",
"162 76 OFFCURVE",
"168 87 CURVE SMOOTH",
"191 127 OFFCURVE",
"225 183 OFFCURVE",
"252 217 CURVE",
"288 221 LINE",
"308 252 OFFCURVE",
"353 312 OFFCURVE",
"390 358 CURVE SMOOTH",
"417 392 OFFCURVE",
"437 417 OFFCURVE",
"472 419 CURVE",
"466 460 LINE",
"441 459 OFFCURVE",
"413 458 OFFCURVE",
"383 458 CURVE SMOOTH",
"349 458 OFFCURVE",
"314 459 OFFCURVE",
"282 461 CURVE",
"289 416 LINE",
"322 416 OFFCURVE",
"334 405 OFFCURVE",
"334 393 CURVE SMOOTH",
"334 387 OFFCURVE",
"332 381 OFFCURVE",
"328 374 CURVE SMOOTH",
"307 337 OFFCURVE",
"273 287 OFFCURVE",
"243 249 CURVE",
"200 243 LINE",
"171 196 OFFCURVE",
"116 112 OFFCURVE",
"97 86 CURVE SMOOTH",
"79 62 OFFCURVE",
"50 41 OFFCURVE",
"15 41 CURVE",
"22 -2 LINE"
);
}
);
width = 495;
}
);
unicode = 0078;
},
{
glyphname = y;
lastChange = "2019-01-05 08:14:32 +0000";
layers = (
{
layerId = "51BB9282-3B82-4DF1-A67A-294D3E37D73A";
paths = (
{
closed = 1;
nodes = (
"222 4 OFFCURVE",
"270 12 OFFCURVE",
"293 12 CURVE",
"321 74 OFFCURVE",
"379 215 OFFCURVE",
"437 351 CURVE SMOOTH",
"454 390 OFFCURVE",
"459 413 OFFCURVE",
"513 413 CURVE",
"504 460 LINE",
"463 458 OFFCURVE",
"426 457 OFFCURVE",
"388 457 CURVE SMOOTH",
"359 457 OFFCURVE",
"329 458 OFFCURVE",
"296 460 CURVE",
"303 410 LINE",
"347 410 OFFCURVE",
"376 403 OFFCURVE",
"376 373 CURVE SMOOTH",
"376 367 OFFCURVE",
"375 360 OFFCURVE",
"373 353 CURVE SMOOTH",
"347 272 OFFCURVE",
"281 109 OFFCURVE",
"255 54 CURVE",
"231 156 LINE",
"207 229 OFFCURVE",
"191 280 OFFCURVE",
"170 354 CURVE SMOOTH",
"168 361 OFFCURVE",
"167 367 OFFCURVE",
"167 373 CURVE SMOOTH",
"167 406 OFFCURVE",
"199 414 OFFCURVE",
"249 417 CURVE",
"239 460 LINE",
"189 458 OFFCURVE",
"145 458 OFFCURVE",
"100 458 CURVE SMOOTH",
"68 458 OFFCURVE",
"35 458 OFFCURVE",
"-2 460 CURVE",
"4 414 LINE",
"40 414 OFFCURVE",
"64 405 OFFCURVE",
"80 356 CURVE SMOOTH",
"142 172 OFFCURVE",
"170 80 OFFCURVE",
"196 -6 CURVE"
);
},
{
closed = 1;
nodes = (
"111 -203 OFFCURVE",
"189 -185 OFFCURVE",
"230 -122 CURVE SMOOTH",
"256 -82 OFFCURVE",
"285 -7 OFFCURVE",
"305 39 CURVE",
"252 43 LINE",
"225 -24 OFFCURVE",
"188 -112 OFFCURVE",
"69 -112 CURVE SMOOTH",
"57 -112 OFFCURVE",
"46 -112 OFFCURVE",
"33 -110 CURVE",
"30 -117 OFFCURVE",
"26 -130 OFFCURVE",
"26 -146 CURVE SMOOTH",
"26 -166 OFFCURVE",
"32 -189 OFFCURVE",
"49 -203 CURVE"
);
}
);
width = 512;
}
);
unicode = 0079;
},
{
glyphname = z;
lastChange = "2019-01-05 08:33:46 +0000";
layers = (
{
layerId = "51BB9282-3B82-4DF1-A67A-294D3E37D73A";
paths = (
{
closed = 1;
nodes = (
"384 0 LINE",
"388 34 OFFCURVE",
"389 69 OFFCURVE",
"389 88 CURVE SMOOTH",
"389 119 OFFCURVE",
"388 133 OFFCURVE",
"387 141 CURVE",
"326 132 LINE",
"324 104 OFFCURVE",
"314 72 OFFCURVE",
"309 60 CURVE",
"262 54 OFFCURVE",
"217 51 OFFCURVE",
"179 51 CURVE SMOOTH",
"163 51 OFFCURVE",
"154 56 OFFCURVE",
"154 71 CURVE SMOOTH",
"154 81 OFFCURVE",
"163 96 OFFCURVE",
"176 116 CURVE SMOOTH",
"191 139 OFFCURVE",
"348 378 OFFCURVE",
"391 420 CURVE",
"386 460 LINE",
"353 458 OFFCURVE",
"281 456 OFFCURVE",
"199 456 CURVE SMOOTH",
"147 456 OFFCURVE",
"87 457 OFFCURVE",
"39 460 CURVE",
"37 434 OFFCURVE",
"35 404 OFFCURVE",
"35 375 CURVE SMOOTH",
"35 356 OFFCURVE",
"36 338 OFFCURVE",
"37 322 CURVE",
"93 329 LINE",
"93 345 OFFCURVE",
"105 387 OFFCURVE",
"114 401 CURVE",
"137 405 OFFCURVE",
"169 408 OFFCURVE",
"208 408 CURVE SMOOTH",
"234 408 OFFCURVE",
"259 407 OFFCURVE",
"275 404 CURVE",
"243 349 OFFCURVE",
"101 129 OFFCURVE",
"18 45 CURVE",
"23 0 LINE"
);
}
);
width = 421;
}
);
unicode = 007A;
},
{
glyphname = k.001;
layers = (
{
layerId = "51BB9282-3B82-4DF1-A67A-294D3E37D73A";
paths = (
{
closed = 1;
nodes = (
"281 0 LINE",
"273 39 LINE",
"269 39 LINE SMOOTH",
"225 39 OFFCURVE",
"202 59 OFFCURVE",
"202 132 CURVE SMOOTH",
"202 250 OFFCURVE",
"206 528 OFFCURVE",
"221 655 CURVE",
"202 649 OFFCURVE",
"91 636 OFFCURVE",
"30 636 CURVE",
"35 590 LINE",
"95 590 OFFCURVE",
"120 588 OFFCURVE",
"122 554 CURVE SMOOTH",
"125 498 OFFCURVE",
"125 435 OFFCURVE",
"125 372 CURVE SMOOTH",
"125 270 OFFCURVE",
"125 169 OFFCURVE",
"118 105 CURVE SMOOTH",
"114 68 OFFCURVE",
"89 47 OFFCURVE",
"39 47 CURVE SMOOTH",
"29 47 LINE",
"37 0 LINE"
);
},
{
closed = 1;
nodes = (
"442 -9 OFFCURVE",
"449 -9 OFFCURVE",
"455 -9 CURVE SMOOTH",
"484 -9 OFFCURVE",
"516 -3 OFFCURVE",
"556 8 CURVE",
"547 48 LINE",
"416 50 OFFCURVE",
"327 255 OFFCURVE",
"321 275 CURVE",
"301 269 OFFCURVE",
"274 261 OFFCURVE",
"252 261 CURVE SMOOTH",
"246 261 OFFCURVE",
"241 262 OFFCURVE",
"236 263 CURVE",
"264 206 OFFCURVE",
"366 4 OFFCURVE",
"436 -8 CURVE"
);
},
{
closed = 1;
nodes = (
"227 236 OFFCURVE",
"295 236 OFFCURVE",
"319 242 CURVE",
"331 263 OFFCURVE",
"377 330 OFFCURVE",
"430 383 CURVE SMOOTH",
"454 407 OFFCURVE",
"478 419 OFFCURVE",
"502 420 CURVE",
"492 457 LINE",
"452 455 OFFCURVE",
"405 454 OFFCURVE",
"370 454 CURVE SMOOTH",
"349 454 OFFCURVE",
"333 455 OFFCURVE",
"316 457 CURVE",
"321 417 LINE",
"341 417 OFFCURVE",
"349 410 OFFCURVE",
"349 399 CURVE SMOOTH",
"349 394 OFFCURVE",
"346 388 OFFCURVE",
"343 383 CURVE",
"310 334 OFFCURVE",
"282 294 OFFCURVE",
"268 286 CURVE",
"247 286 OFFCURVE",
"222 290 OFFCURVE",
"203 294 CURVE",
"187 236 LINE"
);
}
);
width = 563;
}
);
},
{
glyphname = f_f;
lastChange = "2019-01-05 08:29:16 +0000";
layers = (
{
layerId = "51BB9282-3B82-4DF1-A67A-294D3E37D73A";
paths = (
{
closed = 1;
nodes = (
"276 0 LINE",
"268 42 LINE",
"217 40 OFFCURVE",
"189 69 OFFCURVE",
"184 140 CURVE SMOOTH",
"181 191 OFFCURVE",
"180 251 OFFCURVE",
"180 312 CURVE SMOOTH",
"180 382 OFFCURVE",
"181 455 OFFCURVE",
"182 517 CURVE SMOOTH",
"184 625 OFFCURVE",
"208 653 OFFCURVE",
"247 653 CURVE SMOOTH",
"300 653 OFFCURVE",
"342 599 OFFCURVE",
"372 553 CURVE",
"388 584 OFFCURVE",
"405 640 OFFCURVE",
"405 682 CURVE",
"405 682 OFFCURVE",
"355 699 OFFCURVE",
"303 699 CURVE SMOOTH",
"214 699 OFFCURVE",
"105 653 OFFCURVE",
"103 480 CURVE SMOOTH",
"103 464 OFFCURVE",
"102 450 OFFCURVE",
"102 436 CURVE",
"103 424 OFFCURVE",
"101 412 OFFCURVE",
"101 400 CURVE SMOOTH",
"103 306 OFFCURVE",
"105 230 OFFCURVE",
"105 150 CURVE SMOOTH",
"105 80 OFFCURVE",
"102 42 OFFCURVE",
"19 47 CURVE",
"25 0 LINE"
);
},
{
closed = 1;
nodes = (
"158 388 LINE",
"290 390 LINE SMOOTH",
"310 391 OFFCURVE",
"401 385 OFFCURVE",
"425 383 CURVE",
"457 388 LINE",
"605 402 LINE",
"595 453 LINE",
"548 451 OFFCURVE",
"472 451 OFFCURVE",
"407 451 CURVE SMOOTH",
"156 451 LINE SMOOTH",
"115 451 OFFCURVE",
"75 451 OFFCURVE",
"23 453 CURVE",
"31 400 LINE",
"68 400 OFFCURVE",
"125 390 OFFCURVE",
"126 339 CURVE"
);
},
{
closed = 1;
nodes = (
"575 0 LINE",
"567 42 LINE",
"517 40 OFFCURVE",
"488 69 OFFCURVE",
"484 140 CURVE SMOOTH",
"481 186 OFFCURVE",
"480 243 OFFCURVE",
"480 301 CURVE SMOOTH",
"480 365 OFFCURVE",
"481 431 OFFCURVE",
"482 486 CURVE SMOOTH",
"484 594 OFFCURVE",
"507 622 OFFCURVE",
"547 622 CURVE SMOOTH",
"600 622 OFFCURVE",
"642 569 OFFCURVE",
"671 522 CURVE",
"688 553 OFFCURVE",
"705 609 OFFCURVE",
"705 651 CURVE",
"705 651 OFFCURVE",
"656 668 OFFCURVE",
"606 668 CURVE SMOOTH",
"515 668 OFFCURVE",
"403 624 OFFCURVE",
"403 449 CURVE",
"402 436 LINE",
"403 424 OFFCURVE",
"400 412 OFFCURVE",
"400 400 CURVE SMOOTH",
"400 305 OFFCURVE",
"404 227 OFFCURVE",
"404 146 CURVE SMOOTH",
"404 78 OFFCURVE",
"400 43 OFFCURVE",
"319 47 CURVE",
"324 0 LINE"
);
}
);
width = 676;
}
);
leftMetricsKey = f;
rightMetricsKey = f;
},
{
glyphname = f_f_i;
lastChange = "2019-01-05 08:29:16 +0000";
layers = (
{
components = (
{
name = f_f;
}
);
layerId = "51BB9282-3B82-4DF1-A67A-294D3E37D73A";
paths = (
{
closed = 1;
nodes = (
"880 0 LINE",
"872 39 LINE",
"868 39 LINE SMOOTH",
"824 39 OFFCURVE",
"802 56 OFFCURVE",
"801 132 CURVE",
"801 144 OFFCURVE",
"800 157 OFFCURVE",
"800 172 CURVE SMOOTH",
"800 252 OFFCURVE",
"807 369 OFFCURVE",
"820 476 CURVE",
"820 476 OFFCURVE",
"655 450 OFFCURVE",
"591 452 CURVE",
"596 402 LINE",
"656 402 OFFCURVE",
"718 400 OFFCURVE",
"721 366 CURVE",
"723 313 OFFCURVE",
"724 256 OFFCURVE",
"724 195 CURVE SMOOTH",
"724 160 OFFCURVE",
"721 126 OFFCURVE",
"717 105 CURVE",
"712 68 OFFCURVE",
"688 47 OFFCURVE",
"638 47 CURVE SMOOTH",
"628 47 LINE",
"636 0 LINE"
);
}
);
width = 908;
}
);
leftMetricsKey = f;
rightMetricsKey = i;
},
{
glyphname = f_f_l;
lastChange = "2019-01-05 08:49:56 +0000";
layers = (
{
layerId = "51BB9282-3B82-4DF1-A67A-294D3E37D73A";
paths = (
{
closed = 1;
nodes = (
"575 0 LINE",
"567 42 LINE",
"517 40 OFFCURVE",
"488 69 OFFCURVE",
"484 140 CURVE SMOOTH",
"481 186 OFFCURVE",
"480 243 OFFCURVE",
"480 301 CURVE SMOOTH",
"480 365 OFFCURVE",
"481 431 OFFCURVE",
"482 486 CURVE SMOOTH",
"484 590 OFFCURVE",
"530 622 OFFCURVE",
"592 622 CURVE SMOOTH",
"646 622 OFFCURVE",
"699 576 OFFCURVE",
"729 530 CURVE",
"820 631 LINE",
"820 631 OFFCURVE",
"679 668 OFFCURVE",
"606 668 CURVE SMOOTH",
"515 668 OFFCURVE",
"403 624 OFFCURVE",
"403 449 CURVE",
"402 436 LINE",
"403 424 OFFCURVE",
"400 412 OFFCURVE",
"400 400 CURVE SMOOTH",
"400 305 OFFCURVE",
"404 227 OFFCURVE",
"404 146 CURVE SMOOTH",
"404 78 OFFCURVE",
"400 43 OFFCURVE",
"319 47 CURVE",
"324 0 LINE"
);
},
{
closed = 1;
nodes = (
"276 0 LINE",
"268 42 LINE",
"217 40 OFFCURVE",
"189 69 OFFCURVE",
"184 140 CURVE SMOOTH",
"181 191 OFFCURVE",
"180 251 OFFCURVE",
"180 312 CURVE SMOOTH",
"180 382 OFFCURVE",
"181 455 OFFCURVE",
"182 517 CURVE SMOOTH",
"184 625 OFFCURVE",
"208 653 OFFCURVE",
"247 653 CURVE SMOOTH",
"300 653 OFFCURVE",
"342 599 OFFCURVE",
"372 553 CURVE",
"388 584 OFFCURVE",
"405 640 OFFCURVE",
"405 682 CURVE",
"405 682 OFFCURVE",
"355 699 OFFCURVE",
"303 699 CURVE SMOOTH",
"214 699 OFFCURVE",
"105 653 OFFCURVE",
"103 480 CURVE SMOOTH",
"103 464 OFFCURVE",
"102 450 OFFCURVE",
"102 436 CURVE",
"103 424 OFFCURVE",
"101 412 OFFCURVE",
"101 400 CURVE SMOOTH",
"103 306 OFFCURVE",
"105 230 OFFCURVE",
"105 150 CURVE SMOOTH",
"105 80 OFFCURVE",
"102 42 OFFCURVE",
"19 47 CURVE",
"25 0 LINE"
);
},
{
closed = 1;
nodes = (
"158 388 LINE",
"290 390 LINE SMOOTH",
"310 391 OFFCURVE",
"401 385 OFFCURVE",
"425 383 CURVE",
"457 388 LINE",
"605 402 LINE",
"595 453 LINE",
"548 451 OFFCURVE",
"472 451 OFFCURVE",
"407 451 CURVE SMOOTH",
"156 451 LINE SMOOTH",
"115 451 OFFCURVE",
"75 451 OFFCURVE",
"23 453 CURVE",
"31 400 LINE",
"68 400 OFFCURVE",
"125 390 OFFCURVE",
"126 339 CURVE"
);
},
{
closed = 1;
nodes = (
"888 0 LINE",
"880 39 LINE",
"875 39 LINE SMOOTH",
"832 39 OFFCURVE",
"809 56 OFFCURVE",
"809 132 CURVE",
"808 172 OFFCURVE",
"807 229 OFFCURVE",
"807 290 CURVE SMOOTH",
"807 409 OFFCURVE",
"810 548 OFFCURVE",
"820 631 CURVE",
"820 631 OFFCURVE",
"701 637 OFFCURVE",
"637 638 CURVE",
"642 628 LINE",
"702 628 OFFCURVE",
"725 588 OFFCURVE",
"729 554 CURVE",
"731 498 OFFCURVE",
"732 435 OFFCURVE",
"732 372 CURVE SMOOTH",
"732 270 OFFCURVE",
"729 169 OFFCURVE",
"725 105 CURVE",
"720 68 OFFCURVE",
"695 47 OFFCURVE",
"645 47 CURVE SMOOTH",
"636 47 LINE",
"644 0 LINE"
);
}
);
width = 914;
}
);
leftMetricsKey = f;
rightMetricsKey = "=l";
},
{
glyphname = fi;
lastChange = "2019-01-05 04:56:58 +0000";
layers = (
{
layerId = "51BB9282-3B82-4DF1-A67A-294D3E37D73A";
paths = (
{
closed = 1;
nodes = (
"276 0 LINE",
"268 42 LINE",
"217 40 OFFCURVE",
"189 69 OFFCURVE",
"184 140 CURVE SMOOTH",
"181 191 OFFCURVE",
"180 251 OFFCURVE",
"180 312 CURVE SMOOTH",
"180 382 OFFCURVE",
"181 455 OFFCURVE",
"182 517 CURVE SMOOTH",
"184 625 OFFCURVE",
"208 653 OFFCURVE",
"247 653 CURVE SMOOTH",
"300 653 OFFCURVE",
"342 599 OFFCURVE",
"372 553 CURVE",
"388 584 OFFCURVE",
"405 640 OFFCURVE",
"405 682 CURVE",
"405 682 OFFCURVE",
"355 699 OFFCURVE",
"303 699 CURVE SMOOTH",
"214 699 OFFCURVE",
"105 653 OFFCURVE",
"103 480 CURVE SMOOTH",
"103 464 OFFCURVE",
"102 450 OFFCURVE",
"102 436 CURVE",
"103 424 OFFCURVE",
"101 412 OFFCURVE",
"101 400 CURVE SMOOTH",
"103 306 OFFCURVE",
"105 230 OFFCURVE",
"105 150 CURVE SMOOTH",
"105 80 OFFCURVE",
"102 42 OFFCURVE",
"19 47 CURVE",
"25 0 LINE"
);
},
{
closed = 1;
nodes = (
"158 388 LINE",
"306 402 LINE",
"296 453 LINE",
"246 451 OFFCURVE",
"205 450 OFFCURVE",
"163 450 CURVE SMOOTH",
"121 450 OFFCURVE",
"78 451 OFFCURVE",
"23 453 CURVE",
"31 400 LINE",
"68 400 OFFCURVE",
"125 390 OFFCURVE",
"126 339 CURVE"
);
},
{
closed = 1;
nodes = (
"618 0 LINE",
"611 39 LINE",
"587 39 OFFCURVE",
"539 45 OFFCURVE",
"539 118 CURVE SMOOTH",
"539 167 OFFCURVE",
"538 308 OFFCURVE",
"558 470 CURVE",
"558 470 OFFCURVE",
"431 452 OFFCURVE",
"367 454 CURVE",
"373 405 LINE",
"433 405 OFFCURVE",
"459 403 OFFCURVE",
"460 363 CURVE SMOOTH",
"461 319 OFFCURVE",
"462 281 OFFCURVE",
"462 249 CURVE SMOOTH",
"462 189 OFFCURVE",
"460 147 OFFCURVE",
"456 111 CURVE SMOOTH",
"451 68 OFFCURVE",
"424 44 OFFCURVE",
"367 47 CURVE",
"374 0 LINE"
);
}
);
width = 692;
}
);
unicode = FB01;
},
{
glyphname = A.sc;
lastChange = "2019-01-05 04:56:58 +0000";
layers = (
{
layerId = "51BB9282-3B82-4DF1-A67A-294D3E37D73A";
paths = (
{
closed = 1;
nodes = (
"233 0 LINE",
"226 33 LINE",
"200 32 OFFCURVE",
"161 32 OFFCURVE",
"161 74 CURVE SMOOTH",
"161 80 OFFCURVE",
"162 87 OFFCURVE",
"164 95 CURVE SMOOTH",
"173 137 OFFCURVE",
"234 313 OFFCURVE",
"273 450 CURVE",
"278 423 OFFCURVE",
"288 387 OFFCURVE",
"293 361 CURVE",
"322 266 OFFCURVE",
"370 163 OFFCURVE",
"392 81 CURVE",
"394 75 OFFCURVE",
"394 70 OFFCURVE",
"394 65 CURVE SMOOTH",
"394 40 OFFCURVE",
"369 35 OFFCURVE",
"330 35 CURVE",
"336 0 LINE",
"561 0 LINE",
"555 36 LINE",
"511 35 OFFCURVE",
"497 68 OFFCURVE",
"486 98 CURVE SMOOTH",
"420 273 OFFCURVE",
"375 393 OFFCURVE",
"335 530 CURVE",
"310 521 OFFCURVE",
"259 514 OFFCURVE",
"233 510 CURVE",
"197 389 OFFCURVE",
"152 246 OFFCURVE",
"92 89 CURVE SMOOTH",
"79 56 OFFCURVE",
"62 41 OFFCURVE",
"16 40 CURVE",
"23 0 LINE"
);
},
{
closed = 1;
nodes = (
"389 171 LINE",
"389 223 LINE",
"177 223 LINE",
"177 171 LINE"
);
}
);
width = 579;
}
);
},
{
glyphname = B.sc;
lastChange = "2019-01-05 04:57:23 +0000";
layers = (
{
layerId = "51BB9282-3B82-4DF1-A67A-294D3E37D73A";
paths = (
{
closed = 1;
nodes = (
"269 0 LINE SMOOTH",
"374 0 OFFCURVE",
"482 32 OFFCURVE",
"484 144 CURVE SMOOTH",
"484 212 OFFCURVE",
"434 276 OFFCURVE",
"356 286 CURVE",
"335 270 LINE",
"402 273 OFFCURVE",
"447 339 OFFCURVE",
"447 400 CURVE SMOOTH",
"447 482 OFFCURVE",
"384 526 OFFCURVE",
"295 526 CURVE SMOOTH",
"223 526 OFFCURVE",
"185 520 OFFCURVE",
"122 520 CURVE SMOOTH",
"99 520 OFFCURVE",
"72 521 OFFCURVE",
"38 523 CURVE",
"45 481 LINE",
"105 486 OFFCURVE",
"116 449 OFFCURVE",
"118 411 CURVE SMOOTH",
"120 369 OFFCURVE",
"120 331 OFFCURVE",
"120 291 CURVE SMOOTH",
"120 231 OFFCURVE",
"119 168 OFFCURVE",
"115 83 CURVE SMOOTH",
"114 55 OFFCURVE",
"98 39 OFFCURVE",
"61 39 CURVE SMOOTH",
"55 39 OFFCURVE",
"49 39 OFFCURVE",
"42 40 CURVE",
"49 0 LINE"
);
},
{
closed = 1;
nodes = (
"246 42 OFFCURVE",
"209 42 OFFCURVE",
"206 81 CURVE",
"199 129 OFFCURVE",
"199 180 OFFCURVE",
"199 246 CURVE",
"223 250 OFFCURVE",
"260 253 OFFCURVE",
"288 253 CURVE SMOOTH",
"357 251 OFFCURVE",
"396 200 OFFCURVE",
"396 143 CURVE SMOOTH",
"396 78 OFFCURVE",
"354 43 OFFCURVE",
"280 42 CURVE SMOOTH"
);
},
{
closed = 1;
nodes = (
"226 293 OFFCURVE",
"214 293 OFFCURVE",
"201 295 CURVE",
"201 380 LINE SMOOTH",
"201 416 OFFCURVE",
"202 449 OFFCURVE",
"205 478 CURVE",
"219 484 OFFCURVE",
"243 486 OFFCURVE",
"273 485 CURVE SMOOTH",
"331 484 OFFCURVE",
"360 445 OFFCURVE",
"360 387 CURVE SMOOTH",
"360 355 OFFCURVE",
"338 293 OFFCURVE",
"237 293 CURVE SMOOTH"
);
}
);
width = 509;
}
);
},
{
glyphname = C.sc;
lastChange = "2019-01-05 04:56:58 +0000";
layers = (
{
layerId = "51BB9282-3B82-4DF1-A67A-294D3E37D73A";
paths = (
{
closed = 1;
nodes = (
"354 -12 OFFCURVE",
"411 22 OFFCURVE",
"458 79 CURVE",
"432 108 LINE",
"397 76 OFFCURVE",
"352 52 OFFCURVE",
"286 52 CURVE SMOOTH",
"191 52 OFFCURVE",
"119 121 OFFCURVE",
"119 241 CURVE SMOOTH",
"119 364 OFFCURVE",
"175 466 OFFCURVE",
"275 466 CURVE SMOOTH",
"350 466 OFFCURVE",
"377 425 OFFCURVE",
"387 423 CURVE",
"392 431 OFFCURVE",
"394 439 OFFCURVE",
"394 445 CURVE SMOOTH",
"394 479 OFFCURVE",
"343 495 OFFCURVE",
"316 495 CURVE SMOOTH",
"309 495 OFFCURVE",
"303 494 OFFCURVE",
"301 491 CURVE",
"331 487 OFFCURVE",
"378 420 OFFCURVE",
"399 363 CURVE",
"445 361 LINE",
"450 381 OFFCURVE",
"453 436 OFFCURVE",
"453 475 CURVE SMOOTH",
"453 488 OFFCURVE",
"452 499 OFFCURVE",
"452 507 CURVE",
"452 507 OFFCURVE",
"413 523 OFFCURVE",
"347 523 CURVE SMOOTH",
"336 523 OFFCURVE",
"325 523 OFFCURVE",
"313 522 CURVE SMOOTH",
"109 505 OFFCURVE",
"24 363 OFFCURVE",
"24 215 CURVE SMOOTH",
"24 207 OFFCURVE",
"24 198 OFFCURVE",
"25 190 CURVE",
"34 55 OFFCURVE",
"146 -12 OFFCURVE",
"261 -12 CURVE SMOOTH"
);
}
);
width = 497;
}
);
},
{
glyphname = D.sc;
lastChange = "2019-01-05 04:57:11 +0000";
layers = (
{
layerId = "51BB9282-3B82-4DF1-A67A-294D3E37D73A";
paths = (
{
closed = 1;
nodes = (
"239 0 LINE SMOOTH",
"417 3 OFFCURVE",
"514 92 OFFCURVE",
"514 305 CURVE SMOOTH",
"514 465 OFFCURVE",
"421 526 OFFCURVE",
"316 526 CURVE SMOOTH",
"269 526 OFFCURVE",
"202 519 OFFCURVE",
"114 519 CURVE SMOOTH",
"85 519 OFFCURVE",
"53 520 OFFCURVE",
"19 522 CURVE",
"26 481 LINE",
"86 486 OFFCURVE",
"97 449 OFFCURVE",
"99 411 CURVE SMOOTH",
"101 371 OFFCURVE",
"102 335 OFFCURVE",
"102 298 CURVE SMOOTH",
"102 238 OFFCURVE",
"100 175 OFFCURVE",
"96 88 CURVE SMOOTH",
"95 55 OFFCURVE",
"69 38 OFFCURVE",
"23 40 CURVE",
"30 0 LINE"
);
},
{
closed = 1;
nodes = (
"229 49 OFFCURVE",
"199 52 OFFCURVE",
"195 93 CURVE SMOOTH",
"190 160 OFFCURVE",
"187 218 OFFCURVE",
"187 281 CURVE SMOOTH",
"187 337 OFFCURVE",
"190 397 OFFCURVE",
"195 470 CURVE",
"212 477 OFFCURVE",
"230 483 OFFCURVE",
"261 483 CURVE SMOOTH",
"358 483 OFFCURVE",
"426 405 OFFCURVE",
"426 259 CURVE SMOOTH",
"426 137 OFFCURVE",
"379 51 OFFCURVE",
"264 49 CURVE SMOOTH"
);
}
);
width = 539;
}
);
},
{
glyphname = E.sc;
lastChange = "2019-01-05 04:56:58 +0000";
layers = (
{
layerId = "51BB9282-3B82-4DF1-A67A-294D3E37D73A";
paths = (
{
closed = 1;
nodes = (
"419 0 LINE",
"423 56 OFFCURVE",
"422 136 OFFCURVE",
"422 139 CURVE",
"367 133 LINE",
"357 82 OFFCURVE",
"342 51 OFFCURVE",
"314 19 CURVE",
"365 59 LINE",
"340 53 OFFCURVE",
"294 46 OFFCURVE",
"247 46 CURVE SMOOTH",
"234 46 OFFCURVE",
"220 47 OFFCURVE",
"206 48 CURVE",
"182 51 OFFCURVE",
"179 71 OFFCURVE",
"179 89 CURVE",
"178 125 OFFCURVE",
"176 173 OFFCURVE",
"176 227 CURVE SMOOTH",
"176 292 OFFCURVE",
"178 366 OFFCURVE",
"186 438 CURVE",
"187 458 OFFCURVE",
"196 477 OFFCURVE",
"228 477 CURVE SMOOTH",
"293 477 OFFCURVE",
"323 476 OFFCURVE",
"375 470 CURVE",
"313 504 LINE",
"341 479 OFFCURVE",
"358 429 OFFCURVE",
"362 390 CURVE",
"417 385 LINE",
"417 385 OFFCURVE",
"423 433 OFFCURVE",
"423 471 CURVE SMOOTH",
"423 487 OFFCURVE",
"421 524 OFFCURVE",
"421 524 CURVE",
"357 521 OFFCURVE",
"296 521 OFFCURVE",
"239 521 CURVE SMOOTH",
"173 521 LINE SMOOTH",
"123 521 OFFCURVE",
"66 521 OFFCURVE",
"33 524 CURVE",
"37 484 LINE",
"87 487 OFFCURVE",
"92 466 OFFCURVE",
"94 434 CURVE SMOOTH",
"96 398 OFFCURVE",
"97 361 OFFCURVE",
"97 324 CURVE SMOOTH",
"97 244 OFFCURVE",
"93 165 OFFCURVE",
"88 101 CURVE SMOOTH",
"85 69 OFFCURVE",
"80 43 OFFCURVE",
"30 38 CURVE",
"35 0 LINE"
);
},
{
closed = 1;
nodes = (
"193 241 OFFCURVE",
"240 245 OFFCURVE",
"292 245 CURVE SMOOTH",
"312 245 OFFCURVE",
"332 244 OFFCURVE",
"354 243 CURVE",
"354 310 LINE",
"260 298 LINE",
"133 298 LINE",
"133 240 LINE"
);
}
);
width = 472;
}
);
},
{
glyphname = F.sc;
lastChange = "2019-01-05 04:56:58 +0000";
layers = (
{
layerId = "51BB9282-3B82-4DF1-A67A-294D3E37D73A";
paths = (
{
closed = 1;
nodes = (
"251 1 LINE",
"262 32 LINE",
"210 32 OFFCURVE",
"199 66 OFFCURVE",
"197 95 CURVE SMOOTH",
"196 110 OFFCURVE",
"195 143 OFFCURVE",
"195 188 CURVE SMOOTH",
"195 255 OFFCURVE",
"197 347 OFFCURVE",
"203 434 CURVE SMOOTH",
"205 461 OFFCURVE",
"215 477 OFFCURVE",
"253 477 CURVE SMOOTH",
"409 472 LINE",
"353 504 LINE",
"381 479 OFFCURVE",
"398 429 OFFCURVE",
"403 390 CURVE",
"462 385 LINE",
"462 385 OFFCURVE",
"468 433 OFFCURVE",
"468 471 CURVE SMOOTH",
"468 487 OFFCURVE",
"466 524 OFFCURVE",
"466 524 CURVE",
"383 521 OFFCURVE",
"298 520 OFFCURVE",
"242 520 CURVE SMOOTH",
"186 520 OFFCURVE",
"99 520 OFFCURVE",
"48 524 CURVE",
"52 484 LINE",
"102 487 OFFCURVE",
"111 466 OFFCURVE",
"112 434 CURVE SMOOTH",
"115 387 OFFCURVE",
"116 337 OFFCURVE",
"116 288 CURVE SMOOTH",
"116 214 OFFCURVE",
"113 142 OFFCURVE",
"109 89 CURVE",
"103 47 OFFCURVE",
"91 0 OFFCURVE",
"91 0 CURVE"
);
},
{
closed = 1;
nodes = (
"280 0 LINE",
"273 33 LINE",
"263 33 OFFCURVE",
"196 33 OFFCURVE",
"197 95 CURVE",
"109 90 LINE",
"104 59 OFFCURVE",
"90 38 OFFCURVE",
"35 40 CURVE",
"42 0 LINE"
);
},
{
closed = 1;
nodes = (
"393 302 LINE",
"300 290 LINE",
"142 290 LINE",
"142 242 LINE",
"198 242 LINE SMOOTH",
"263 242 OFFCURVE",
"330 241 OFFCURVE",
"393 237 CURVE"
);
}
);
width = 496;
}
);
},
{
glyphname = G.sc;
lastChange = "2019-01-05 04:56:58 +0000";
layers = (
{
layerId = "51BB9282-3B82-4DF1-A67A-294D3E37D73A";
paths = (
{
closed = 1;
nodes = (
"365 -19 OFFCURVE",
"435 2 OFFCURVE",
"474 47 CURVE",
"430 82 LINE",
"402 55 OFFCURVE",
"377 40 OFFCURVE",
"312 40 CURVE SMOOTH",
"180 40 OFFCURVE",
"116 133 OFFCURVE",
"116 263 CURVE SMOOTH",
"116 403 OFFCURVE",
"210 483 OFFCURVE",
"315 483 CURVE SMOOTH",
"400 483 OFFCURVE",
"422 442 OFFCURVE",
"435 440 CURVE",
"439 448 OFFCURVE",
"441 455 OFFCURVE",
"441 461 CURVE SMOOTH",
"441 493 OFFCURVE",
"391 506 OFFCURVE",
"362 506 CURVE SMOOTH",
"351 506 OFFCURVE",
"343 504 OFFCURVE",
"341 501 CURVE",
"371 496 OFFCURVE",
"413 448 OFFCURVE",
"434 390 CURVE",
"477 389 LINE",
"479 416 OFFCURVE",
"474 481 OFFCURVE",
"473 515 CURVE",
"473 515 OFFCURVE",
"415 531 OFFCURVE",
"337 531 CURVE SMOOTH",
"124 531 OFFCURVE",
"20 402 OFFCURVE",
"20 241 CURVE SMOOTH",
"20 93 OFFCURVE",
"113 -19 OFFCURVE",
"298 -19 CURVE SMOOTH"
);
},
{
closed = 1;
nodes = (
"474 47 LINE",
"476 76 OFFCURVE",
"476 125 OFFCURVE",
"476 169 CURVE SMOOTH",
"476 220 OFFCURVE",
"521 215 OFFCURVE",
"531 215 CURVE",
"525 254 LINE",
"488 252 OFFCURVE",
"456 251 OFFCURVE",
"425 251 CURVE SMOOTH",
"396 251 OFFCURVE",
"367 252 OFFCURVE",
"332 254 CURVE",
"336 212 LINE",
"381 214 OFFCURVE",
"400 197 OFFCURVE",
"402 171 CURVE",
"402 122 OFFCURVE",
"400 65 OFFCURVE",
"384 22 CURVE"
);
}
);
width = 561;
}
);
},
{
glyphname = H.sc;
lastChange = "2019-01-05 04:56:58 +0000";
layers = (
{
layerId = "51BB9282-3B82-4DF1-A67A-294D3E37D73A";
paths = (
{
closed = 1;
nodes = (
"523 1 LINE",
"534 32 LINE",
"480 32 OFFCURVE",
"493 66 OFFCURVE",
"491 95 CURVE",
"491 142 LINE SMOOTH",
"491 232 OFFCURVE",
"493 414 OFFCURVE",
"506 519 CURVE",
"403 503 LINE",
"407 437 OFFCURVE",
"409 352 OFFCURVE",
"409 271 CURVE SMOOTH",
"409 203 OFFCURVE",
"408 137 OFFCURVE",
"403 89 CURVE SMOOTH",
"400 47 OFFCURVE",
"386 0 OFFCURVE",
"386 0 CURVE"
);
},
{
closed = 1;
nodes = (
"243 0 LINE",
"237 33 LINE",
"225 33 OFFCURVE",
"176 33 OFFCURVE",
"176 95 CURVE",
"92 89 LINE",
"88 59 OFFCURVE",
"72 37 OFFCURVE",
"29 40 CURVE",
"35 0 LINE"
);
},
{
closed = 1;
nodes = (
"209 1 LINE",
"219 32 LINE",
"166 32 OFFCURVE",
"179 66 OFFCURVE",
"177 95 CURVE",
"177 103 OFFCURVE",
"176 120 OFFCURVE",
"176 142 CURVE SMOOTH",
"176 232 OFFCURVE",
"180 414 OFFCURVE",
"193 519 CURVE",
"93 503 LINE",
"96 440 OFFCURVE",
"98 360 OFFCURVE",
"98 283 CURVE SMOOTH",
"98 210 OFFCURVE",
"96 140 OFFCURVE",
"92 89 CURVE SMOOTH",
"88 47 OFFCURVE",
"74 0 OFFCURVE",
"74 0 CURVE"
);
},
{
closed = 1;
nodes = (
"551 0 LINE",
"545 33 LINE",
"533 32 OFFCURVE",
"490 32 OFFCURVE",
"491 91 CURVE",
"404 92 LINE",
"401 60 OFFCURVE",
"379 35 OFFCURVE",
"329 38 CURVE",
"336 0 LINE"
);
},
{
closed = 1;
nodes = (
"477 234 LINE",
"477 295 LINE",
"333 290 LINE",
"118 290 LINE",
"118 234 LINE"
);
},
{
closed = 1;
nodes = (
"184 490 OFFCURVE",
"229 491 OFFCURVE",
"240 490 CURVE",
"234 524 LINE",
"193 522 OFFCURVE",
"156 521 OFFCURVE",
"118 521 CURVE SMOOTH",
"91 521 OFFCURVE",
"62 521 OFFCURVE",
"31 524 CURVE",
"35 484 LINE",
"85 487 OFFCURVE",
"91 465 OFFCURVE",
"95 434 CURVE",
"185 428 LINE"
);
},
{
closed = 1;
nodes = (
"500 490 OFFCURVE",
"539 491 OFFCURVE",
"551 490 CURVE",
"547 524 LINE",
"520 522 OFFCURVE",
"477 521 OFFCURVE",
"435 521 CURVE SMOOTH",
"401 521 OFFCURVE",
"367 522 OFFCURVE",
"339 524 CURVE",
"344 484 LINE",
"393 487 OFFCURVE",
"402 465 OFFCURVE",
"407 434 CURVE",
"497 428 LINE"
);
}
);
width = 584;
}
);
},
{
glyphname = I.sc;
lastChange = "2019-01-05 04:56:58 +0000";
layers = (
{
layerId = "51BB9282-3B82-4DF1-A67A-294D3E37D73A";
paths = (
{
closed = 1;
nodes = (
"291 0 LINE",
"284 42 LINE",
"250 39 OFFCURVE",
"210 47 OFFCURVE",
"208 94 CURVE SMOOTH",
"206 137 OFFCURVE",
"206 178 OFFCURVE",
"206 217 CURVE SMOOTH",
"206 302 OFFCURVE",
"209 375 OFFCURVE",
"214 434 CURVE SMOOTH",
"217 470 OFFCURVE",
"249 483 OFFCURVE",
"280 483 CURVE SMOOTH",
"285 483 OFFCURVE",
"290 483 OFFCURVE",
"295 482 CURVE",
"293 494 OFFCURVE",
"290 524 OFFCURVE",
"290 524 CURVE",
"242 521 OFFCURVE",
"196 520 OFFCURVE",
"151 520 CURVE SMOOTH",
"109 520 OFFCURVE",
"69 521 OFFCURVE",
"31 524 CURVE",
"32 517 OFFCURVE",
"35 490 OFFCURVE",
"37 479 CURVE",
"43 480 OFFCURVE",
"48 480 OFFCURVE",
"53 480 CURVE SMOOTH",
"99 480 OFFCURVE",
"122 453 OFFCURVE",
"122 417 CURVE SMOOTH",
"122 298 OFFCURVE",
"122 164 OFFCURVE",
"119 92 CURVE",
"116 55 OFFCURVE",
"89 41 OFFCURVE",
"50 41 CURVE SMOOTH",
"44 41 OFFCURVE",
"39 42 OFFCURVE",
"33 42 CURVE",
"39 -1 LINE"
);
}
);
width = 319;
}
);
},
{
glyphname = J.sc;
lastChange = "2019-01-05 04:56:58 +0000";
layers = (
{
layerId = "51BB9282-3B82-4DF1-A67A-294D3E37D73A";
paths = (
{
closed = 1;
nodes = (
"160 -134 OFFCURVE",
"200 -55 OFFCURVE",
"198 32 CURVE SMOOTH",
"196 118 OFFCURVE",
"192 186 OFFCURVE",
"192 261 CURVE SMOOTH",
"192 314 OFFCURVE",
"194 369 OFFCURVE",
"200 436 CURVE SMOOTH",
"203 472 OFFCURVE",
"223 481 OFFCURVE",
"269 483 CURVE",
"266 496 OFFCURVE",
"263 524 OFFCURVE",
"263 524 CURVE",
"219 521 OFFCURVE",
"177 520 OFFCURVE",
"137 520 CURVE SMOOTH",
"101 520 OFFCURVE",
"65 521 OFFCURVE",
"29 523 CURVE",
"29 517 OFFCURVE",
"31 491 OFFCURVE",
"33 481 CURVE",
"52 481 OFFCURVE",
"102 480 OFFCURVE",
"103 427 CURVE SMOOTH",
"105 328 OFFCURVE",
"111 199 OFFCURVE",
"111 112 CURVE SMOOTH",
"111 93 OFFCURVE",
"111 76 OFFCURVE",
"110 62 CURVE SMOOTH",
"107 3 OFFCURVE",
"113 -76 OFFCURVE",
"37 -76 CURVE SMOOTH",
"26 -76 OFFCURVE",
"13 -75 OFFCURVE",
"-2 -71 CURVE",
"-20 -112 LINE",
"-11 -117 OFFCURVE",
"16 -134 OFFCURVE",
"52 -134 CURVE SMOOTH"
);
}
);
width = 279;
}
);
},
{
glyphname = K.sc;
lastChange = "2019-01-05 04:57:21 +0000";
layers = (
{
layerId = "51BB9282-3B82-4DF1-A67A-294D3E37D73A";
paths = (
{
closed = 1;
nodes = (
"538 1 LINE",
"531 41 LINE",
"474 40 OFFCURVE",
"361 210 OFFCURVE",
"307 278 CURVE",
"341 315 OFFCURVE",
"430 410 OFFCURVE",
"464 450 CURVE",
"484 471 OFFCURVE",
"505 487 OFFCURVE",
"531 487 CURVE",
"526 525 LINE",
"526 525 OFFCURVE",
"471 523 OFFCURVE",
"411 523 CURVE SMOOTH",
"388 523 OFFCURVE",
"365 523 OFFCURVE",
"343 524 CURVE",
"349 484 LINE",
"380 485 OFFCURVE",
"389 479 OFFCURVE",
"389 470 CURVE SMOOTH",
"389 465 OFFCURVE",
"386 459 OFFCURVE",
"382 454 CURVE SMOOTH",
"327 384 OFFCURVE",
"246 297 OFFCURVE",
"220 275 CURVE",
"222 246 LINE",
"267 190 OFFCURVE",
"342 92 OFFCURVE",
"353 75 CURVE",
"362 63 OFFCURVE",
"365 55 OFFCURVE",
"365 49 CURVE SMOOTH",
"365 39 OFFCURVE",
"354 37 OFFCURVE",
"342 37 CURVE SMOOTH",
"337 37 OFFCURVE",
"331 38 OFFCURVE",
"326 38 CURVE",
"335 1 LINE"
);
},
{
closed = 1;
nodes = (
"266 1 LINE",
"259 38 LINE",
"225 35 OFFCURVE",
"192 48 OFFCURVE",
"189 94 CURVE",
"188 133 OFFCURVE",
"187 169 OFFCURVE",
"187 204 CURVE SMOOTH",
"187 295 OFFCURVE",
"191 373 OFFCURVE",
"196 435 CURVE SMOOTH",
"199 477 OFFCURVE",
"236 485 OFFCURVE",
"270 484 CURVE",
"264 525 LINE",
"225 523 OFFCURVE",
"183 521 OFFCURVE",
"139 521 CURVE SMOOTH",
"105 521 OFFCURVE",
"71 522 OFFCURVE",
"35 524 CURVE",
"37 518 OFFCURVE",
"39 494 OFFCURVE",
"41 483 CURVE",
"92 484 OFFCURVE",
"105 464 OFFCURVE",
"106 421 CURVE SMOOTH",
"106 374 LINE SMOOTH",
"106 268 OFFCURVE",
"103 156 OFFCURVE",
"99 92 CURVE SMOOTH",
"97 51 OFFCURVE",
"83 43 OFFCURVE",
"40 42 CURVE",
"45 0 LINE"
);
}
);
width = 571;
}
);
},
{
glyphname = L.sc;
lastChange = "2019-01-05 04:56:58 +0000";
layers = (
{
layerId = "51BB9282-3B82-4DF1-A67A-294D3E37D73A";
paths = (
{
closed = 1;
nodes = (
"425 0 LINE",
"426 8 OFFCURVE",
"427 32 OFFCURVE",
"427 59 CURVE SMOOTH",
"427 89 OFFCURVE",
"426 123 OFFCURVE",
"424 139 CURVE",
"376 133 LINE",
"373 110 OFFCURVE",
"363 82 OFFCURVE",
"350 59 CURVE",
"324 56 OFFCURVE",
"272 52 OFFCURVE",
"231 52 CURVE SMOOTH",
"218 52 OFFCURVE",
"207 52 OFFCURVE",
"197 53 CURVE SMOOTH",
"174 56 OFFCURVE",
"171 78 OFFCURVE",
"170 100 CURVE",
"170 145 LINE SMOOTH",
"170 214 OFFCURVE",
"172 340 OFFCURVE",
"180 440 CURVE SMOOTH",
"183 479 OFFCURVE",
"205 481 OFFCURVE",
"250 481 CURVE",
"246 523 LINE",
"213 522 OFFCURVE",
"169 520 OFFCURVE",
"123 520 CURVE SMOOTH",
"86 520 OFFCURVE",
"48 521 OFFCURVE",
"14 524 CURVE",
"18 484 LINE",
"68 487 OFFCURVE",
"82 466 OFFCURVE",
"84 434 CURVE SMOOTH",
"87 383 OFFCURVE",
"88 326 OFFCURVE",
"88 272 CURVE SMOOTH",
"88 205 OFFCURVE",
"86 142 OFFCURVE",
"81 96 CURVE SMOOTH",
"76 54 OFFCURVE",
"55 42 OFFCURVE",
"14 42 CURVE",
"18 0 LINE"
);
}
);
width = 446;
}
);
},
{
glyphname = M.sc;
lastChange = "2019-01-05 04:56:58 +0000";
layers = (
{
layerId = "51BB9282-3B82-4DF1-A67A-294D3E37D73A";
paths = (
{
closed = 1;
nodes = (
"735 45 LINE",
"727 43 OFFCURVE",
"719 42 OFFCURVE",
"712 42 CURVE SMOOTH",
"679 42 OFFCURVE",
"660 62 OFFCURVE",
"658 105 CURVE SMOOTH",
"654 157 OFFCURVE",
"652 237 OFFCURVE",
"652 318 CURVE SMOOTH",
"652 353 OFFCURVE",
"652 388 OFFCURVE",
"653 420 CURVE SMOOTH",
"654 473 OFFCURVE",
"691 477 OFFCURVE",
"737 477 CURVE",
"735 487 OFFCURVE",
"732 504 OFFCURVE",
"730 524 CURVE",
"688 520 OFFCURVE",
"652 518 OFFCURVE",
"612 518 CURVE SMOOTH",
"586 518 OFFCURVE",
"558 519 OFFCURVE",
"526 520 CURVE",
"495 443 OFFCURVE",
"409 175 OFFCURVE",
"337 32 CURVE",
"387 10 LINE",
"462 173 OFFCURVE",
"515 363 OFFCURVE",
"580 476 CURVE",
"584 482 OFFCURVE",
"560 457 OFFCURVE",
"557 457 CURVE",
"557 458 LINE",
"561 401 OFFCURVE",
"563 321 OFFCURVE",
"563 250 CURVE SMOOTH",
"563 173 OFFCURVE",
"561 107 OFFCURVE",
"559 91 CURVE",
"553 54 OFFCURVE",
"524 43 OFFCURVE",
"494 43 CURVE SMOOTH",
"487 43 OFFCURVE",
"481 44 OFFCURVE",
"474 45 CURVE",
"480 0 LINE",
"743 -1 LINE"
);
},
{
closed = 1;
nodes = (
"387 10 LINE",
"381 43 LINE SMOOTH",
"376 68 OFFCURVE",
"371 125 OFFCURVE",
"364 163 CURVE",
"329 266 OFFCURVE",
"224 465 OFFCURVE",
"203 520 CURVE",
"171 519 OFFCURVE",
"145 518 OFFCURVE",
"121 518 CURVE SMOOTH",
"84 518 OFFCURVE",
"51 520 OFFCURVE",
"8 524 CURVE",
"10 517 OFFCURVE",
"12 487 OFFCURVE",
"15 477 CURVE",
"47 478 OFFCURVE",
"97 474 OFFCURVE",
"98 420 CURVE SMOOTH",
"99 388 OFFCURVE",
"99 353 OFFCURVE",
"99 318 CURVE SMOOTH",
"99 237 OFFCURVE",
"97 157 OFFCURVE",
"93 105 CURVE SMOOTH",
"91 62 OFFCURVE",
"65 42 OFFCURVE",
"29 42 CURVE SMOOTH",
"22 42 OFFCURVE",
"13 43 OFFCURVE",
"5 45 CURVE",
"10 -1 LINE",
"245 0 LINE",
"238 45 LINE",
"231 44 OFFCURVE",
"224 43 OFFCURVE",
"218 43 CURVE SMOOTH",
"190 43 OFFCURVE",
"165 54 OFFCURVE",
"159 91 CURVE",
"157 107 OFFCURVE",
"156 181 OFFCURVE",
"156 264 CURVE SMOOTH",
"156 325 OFFCURVE",
"156 390 OFFCURVE",
"159 440 CURVE",
"160 445 OFFCURVE",
"145 424 OFFCURVE",
"142 424 CURVE",
"142 425 LINE",
"172 378 OFFCURVE",
"316 58 OFFCURVE",
"341 -4 CURVE"
);
}
);
width = 760;
}
);
},
{
glyphname = N.sc;
lastChange = "2019-01-05 04:56:58 +0000";
layers = (
{
layerId = "51BB9282-3B82-4DF1-A67A-294D3E37D73A";
paths = (
{
closed = 1;
nodes = (
"459 -12 LINE",
"492 -4 OFFCURVE",
"503 -4 OFFCURVE",
"521 -1 CURVE",
"518 72 OFFCURVE",
"516 154 OFFCURVE",
"516 232 CURVE SMOOTH",
"516 306 OFFCURVE",
"518 377 OFFCURVE",
"524 434 CURVE SMOOTH",
"527 464 OFFCURVE",
"551 479 OFFCURVE",
"585 480 CURVE",
"583 494 OFFCURVE",
"580 524 OFFCURVE",
"580 524 CURVE",
"540 520 OFFCURVE",
"508 519 OFFCURVE",
"481 519 CURVE SMOOTH",
"434 519 OFFCURVE",
"417 521 OFFCURVE",
"377 523 CURVE",
"378 517 OFFCURVE",
"380 487 OFFCURVE",
"383 476 CURVE",
"428 477 OFFCURVE",
"450 467 OFFCURVE",
"454 413 CURVE SMOOTH",
"457 376 OFFCURVE",
"458 311 OFFCURVE",
"458 246 CURVE SMOOTH",
"458 168 OFFCURVE",
"456 91 OFFCURVE",
"450 62 CURVE",
"446 55 OFFCURVE",
"484 81 OFFCURVE",
"480 75 CURVE",
"462 82 OFFCURVE",
"446 166 OFFCURVE",
"427 194 CURVE",
"347 300 OFFCURVE",
"232 461 OFFCURVE",
"191 519 CURVE",
"164 518 OFFCURVE",
"142 517 OFFCURVE",
"121 517 CURVE SMOOTH",
"84 517 OFFCURVE",
"53 519 OFFCURVE",
"12 523 CURVE",
"13 517 OFFCURVE",
"15 487 OFFCURVE",
"18 476 CURVE",
"63 476 OFFCURVE",
"93 467 OFFCURVE",
"94 420 CURVE SMOOTH",
"94 322 LINE SMOOTH",
"94 240 OFFCURVE",
"93 157 OFFCURVE",
"89 105 CURVE SMOOTH",
"86 60 OFFCURVE",
"69 42 OFFCURVE",
"37 42 CURVE SMOOTH",
"30 42 OFFCURVE",
"22 42 OFFCURVE",
"14 44 CURVE",
"19 -2 LINE",
"241 -1 LINE",
"234 44 LINE",
"228 43 OFFCURVE",
"222 43 OFFCURVE",
"215 43 CURVE SMOOTH",
"188 43 OFFCURVE",
"162 52 OFFCURVE",
"156 90 CURVE SMOOTH",
"154 106 OFFCURVE",
"152 172 OFFCURVE",
"152 249 CURVE SMOOTH",
"152 320 OFFCURVE",
"154 400 OFFCURVE",
"158 457 CURVE",
"162 461 OFFCURVE",
"131 443 OFFCURVE",
"136 447 CURVE",
"138 443 OFFCURVE",
"178 368 OFFCURVE",
"180 365 CURVE",
"273 247 OFFCURVE",
"344 146 OFFCURVE",
"458 -12 CURVE"
);
}
);
width = 600;
}
);
},
{
glyphname = O.sc;
lastChange = "2019-01-05 04:56:58 +0000";
layers = (
{
layerId = "51BB9282-3B82-4DF1-A67A-294D3E37D73A";
paths = (
{
closed = 1;
nodes = (
"441 -18 OFFCURVE",
"514 127 OFFCURVE",
"514 283 CURVE",
"513 451 OFFCURVE",
"416 525 OFFCURVE",
"303 525 CURVE SMOOTH",
"140 525 OFFCURVE",
"15 396 OFFCURVE",
"24 199 CURVE SMOOTH",
"29 72 OFFCURVE",
"115 -18 OFFCURVE",
"252 -18 CURVE SMOOTH"
);
},
{
closed = 1;
nodes = (
"179 33 OFFCURVE",
"125 123 OFFCURVE",
"125 255 CURVE SMOOTH",
"125 431 OFFCURVE",
"209 475 OFFCURVE",
"265 475 CURVE SMOOTH",
"350 475 OFFCURVE",
"411 384 OFFCURVE",
"411 260 CURVE SMOOTH",
"411 116 OFFCURVE",
"365 33 OFFCURVE",
"280 33 CURVE SMOOTH"
);
}
);
width = 548;
}
);
},
{
glyphname = P.sc;
lastChange = "2019-01-05 04:57:11 +0000";
layers = (
{
layerId = "51BB9282-3B82-4DF1-A67A-294D3E37D73A";
paths = (
{
closed = 1;
nodes = (
"239 0 LINE",
"230 40 LINE",
"196 40 OFFCURVE",
"172 42 OFFCURVE",
"167 81 CURVE SMOOTH",
"163 114 OFFCURVE",
"161 144 OFFCURVE",
"161 206 CURVE",
"161 206 OFFCURVE",
"206 204 OFFCURVE",
"240 208 CURVE SMOOTH",
"340 220 OFFCURVE",
"433 285 OFFCURVE",
"433 392 CURVE SMOOTH",
"433 465 OFFCURVE",
"395 527 OFFCURVE",
"281 527 CURVE SMOOTH",
"205 527 OFFCURVE",
"144 521 OFFCURVE",
"80 521 CURVE SMOOTH",
"56 521 OFFCURVE",
"32 522 OFFCURVE",
"7 524 CURVE",
"10 487 LINE",
"66 485 OFFCURVE",
"79 455 OFFCURVE",
"80 417 CURVE SMOOTH",
"81 376 OFFCURVE",
"82 338 OFFCURVE",
"82 298 CURVE SMOOTH",
"82 237 OFFCURVE",
"80 173 OFFCURVE",
"78 87 CURVE SMOOTH",
"77 55 OFFCURVE",
"70 40 OFFCURVE",
"19 40 CURVE",
"26 0 LINE"
);
},
{
closed = 1;
nodes = (
"204 256 OFFCURVE",
"179 260 OFFCURVE",
"163 267 CURVE",
"163 365 LINE SMOOTH",
"163 408 OFFCURVE",
"164 450 OFFCURVE",
"167 480 CURVE",
"181 485 OFFCURVE",
"214 490 OFFCURVE",
"234 490 CURVE SMOOTH",
"296 490 OFFCURVE",
"344 450 OFFCURVE",
"344 384 CURVE SMOOTH",
"344 320 OFFCURVE",
"316 256 OFFCURVE",
"229 256 CURVE SMOOTH"
);
}
);
width = 453;
}
);
},
{
glyphname = Q.sc;
lastChange = "2019-01-05 04:57:23 +0000";
layers = (
{
layerId = "51BB9282-3B82-4DF1-A67A-294D3E37D73A";
paths = (
{
closed = 1;
nodes = (
"448 -11 OFFCURVE",
"521 133 OFFCURVE",
"521 285 CURVE SMOOTH",
"521 451 OFFCURVE",
"434 526 OFFCURVE",
"315 526 CURVE SMOOTH",
"153 526 OFFCURVE",
"35 406 OFFCURVE",
"35 222 CURVE SMOOTH",
"35 87 OFFCURVE",
"108 -11 OFFCURVE",
"254 -11 CURVE SMOOTH"
);
},
{
closed = 1;
nodes = (
"500 -152 OFFCURVE",
"534 -143 OFFCURVE",
"567 -133 CURVE",
"574 -71 LINE",
"563 -49 LINE",
"563 -49 OFFCURVE",
"510 -69 OFFCURVE",
"435 -69 CURVE SMOOTH",
"358 -69 OFFCURVE",
"277 -64 OFFCURVE",
"238 0 CURVE",
"192 -5 LINE",
"211 -52 OFFCURVE",
"249 -137 OFFCURVE",
"408 -150 CURVE SMOOTH",
"423 -151 OFFCURVE",
"437 -152 OFFCURVE",
"450 -152 CURVE SMOOTH"
);
},
{
closed = 1;
nodes = (
"183 36 OFFCURVE",
"133 132 OFFCURVE",
"132 256 CURVE",
"132 430 OFFCURVE",
"217 475 OFFCURVE",
"274 475 CURVE SMOOTH",
"357 475 OFFCURVE",
"419 386 OFFCURVE",
"419 265 CURVE SMOOTH",
"419 118 OFFCURVE",
"369 36 OFFCURVE",
"278 36 CURVE SMOOTH"
);
}
);
width = 592;
}
);
},
{
glyphname = R.sc;
lastChange = "2019-01-05 04:57:11 +0000";
layers = (
{
layerId = "51BB9282-3B82-4DF1-A67A-294D3E37D73A";
paths = (
{
closed = 1;
nodes = (
"268 0 LINE",
"259 40 LINE",
"225 40 OFFCURVE",
"201 42 OFFCURVE",
"196 81 CURVE",
"193 114 OFFCURVE",
"190 153 OFFCURVE",
"190 215 CURVE",
"190 215 OFFCURVE",
"206 214 OFFCURVE",
"227 214 CURVE SMOOTH",
"240 214 OFFCURVE",
"255 214 OFFCURVE",
"269 216 CURVE SMOOTH",
"369 228 OFFCURVE",
"462 285 OFFCURVE",
"462 392 CURVE SMOOTH",
"462 465 OFFCURVE",
"424 527 OFFCURVE",
"310 527 CURVE SMOOTH",
"234 527 OFFCURVE",
"173 521 OFFCURVE",
"109 521 CURVE SMOOTH",
"85 521 OFFCURVE",
"61 522 OFFCURVE",
"36 524 CURVE",
"39 487 LINE",
"95 485 OFFCURVE",
"108 455 OFFCURVE",
"109 417 CURVE SMOOTH",
"111 376 OFFCURVE",
"112 338 OFFCURVE",
"112 298 CURVE SMOOTH",
"112 238 OFFCURVE",
"110 173 OFFCURVE",
"107 87 CURVE SMOOTH",
"105 55 OFFCURVE",
"99 40 OFFCURVE",
"48 40 CURVE",
"55 0 LINE"
);
},
{
closed = 1;
nodes = (
"547 1 LINE",
"538 42 LINE",
"480 41 OFFCURVE",
"390 191 OFFCURVE",
"342 260 CURVE",
"270 229 LINE",
"310 174 OFFCURVE",
"357 101 OFFCURVE",
"367 85 CURVE",
"374 75 OFFCURVE",
"377 67 OFFCURVE",
"377 61 CURVE SMOOTH",
"377 40 OFFCURVE",
"346 38 OFFCURVE",
"328 39 CURVE",
"337 1 LINE"
);
},
{
closed = 1;
nodes = (
"236 259 OFFCURVE",
"210 261 OFFCURVE",
"192 266 CURVE",
"192 365 LINE SMOOTH",
"192 408 OFFCURVE",
"193 450 OFFCURVE",
"196 480 CURVE",
"210 485 OFFCURVE",
"242 490 OFFCURVE",
"272 490 CURVE SMOOTH",
"328 489 OFFCURVE",
"373 450 OFFCURVE",
"373 384 CURVE SMOOTH",
"372 322 OFFCURVE",
"336 264 OFFCURVE",
"264 260 CURVE SMOOTH"
);
}
);
width = 576;
}
);
},
{
glyphname = S.sc;
lastChange = "2019-01-05 04:56:58 +0000";
layers = (
{
layerId = "51BB9282-3B82-4DF1-A67A-294D3E37D73A";
paths = (
{
closed = 1;
nodes = (
"316 -11 OFFCURVE",
"384 53 OFFCURVE",
"384 134 CURVE SMOOTH",
"384 140 OFFCURVE",
"384 145 OFFCURVE",
"383 151 CURVE",
"370 295 OFFCURVE",
"154 296 OFFCURVE",
"139 407 CURVE",
"138 412 OFFCURVE",
"138 417 OFFCURVE",
"138 422 CURVE SMOOTH",
"138 461 OFFCURVE",
"157 490 OFFCURVE",
"204 490 CURVE SMOOTH",
"279 489 OFFCURVE",
"292 427 OFFCURVE",
"304 411 CURVE",
"259 519 LINE",
"259 519 OFFCURVE",
"288 429 OFFCURVE",
"290 397 CURVE",
"353 390 LINE",
"355 408 OFFCURVE",
"357 438 OFFCURVE",
"357 465 CURVE SMOOTH",
"357 482 OFFCURVE",
"357 498 OFFCURVE",
"355 510 CURVE",
"355 510 OFFCURVE",
"304 529 OFFCURVE",
"222 529 CURVE SMOOTH",
"100 529 OFFCURVE",
"40 458 OFFCURVE",
"40 385 CURVE SMOOTH",
"40 377 OFFCURVE",
"41 370 OFFCURVE",
"42 362 CURVE SMOOTH",
"63 231 OFFCURVE",
"284 215 OFFCURVE",
"284 112 CURVE SMOOTH",
"284 73 OFFCURVE",
"253 37 OFFCURVE",
"198 37 CURVE SMOOTH",
"193 37 OFFCURVE",
"188 37 OFFCURVE",
"182 38 CURVE",
"117 46 OFFCURVE",
"98 89 OFFCURVE",
"73 117 CURVE",
"81 81 OFFCURVE",
"100 44 OFFCURVE",
"139 35 CURVE",
"113 64 OFFCURVE",
"105 101 OFFCURVE",
"102 140 CURVE",
"38 148 LINE",
"32 115 OFFCURVE",
"30 82 OFFCURVE",
"30 55 CURVE SMOOTH",
"30 40 OFFCURVE",
"31 26 OFFCURVE",
"32 15 CURVE",
"32 15 OFFCURVE",
"92 -12 OFFCURVE",
"179 -12 CURVE SMOOTH"
);
}
);
width = 440;
}
);
},
{
glyphname = T.sc;
lastChange = "2019-01-05 04:56:58 +0000";
layers = (
{
layerId = "51BB9282-3B82-4DF1-A67A-294D3E37D73A";
paths = (
{
closed = 1;
nodes = (
"350 0 LINE",
"343 42 LINE",
"326 42 OFFCURVE",
"290 44 OFFCURVE",
"286 85 CURVE SMOOTH",
"283 119 OFFCURVE",
"282 158 OFFCURVE",
"282 200 CURVE SMOOTH",
"282 300 OFFCURVE",
"289 417 OFFCURVE",
"302 514 CURVE",
"302 514 OFFCURVE",
"199 499 OFFCURVE",
"152 500 CURVE",
"157 491 LINE",
"177 491 OFFCURVE",
"193 490 OFFCURVE",
"195 460 CURVE SMOOTH",
"198 421 OFFCURVE",
"200 364 OFFCURVE",
"200 302 CURVE SMOOTH",
"200 233 OFFCURVE",
"197 158 OFFCURVE",
"191 96 CURVE SMOOTH",
"188 65 OFFCURVE",
"166 38 OFFCURVE",
"119 40 CURVE",
"122 0 LINE"
);
},
{
closed = 1;
nodes = (
"476 527 LINE",
"407 522 OFFCURVE",
"288 521 OFFCURVE",
"241 521 CURVE SMOOTH",
"161 521 OFFCURVE",
"102 523 OFFCURVE",
"28 527 CURVE",
"28 490 OFFCURVE",
"23 429 OFFCURVE",
"20 398 CURVE",
"82 406 LINE",
"91 429 OFFCURVE",
"96 477 OFFCURVE",
"122 501 CURVE",
"86 477 LINE",
"110 477 OFFCURVE",
"182 480 OFFCURVE",
"241 480 CURVE SMOOTH",
"281 480 LINE SMOOTH",
"327 480 OFFCURVE",
"375 478 OFFCURVE",
"420 463 CURVE",
"364 507 LINE",
"392 482 OFFCURVE",
"409 438 OFFCURVE",
"413 400 CURVE",
"468 394 LINE"
);
}
);
width = 494;
}
);
},
{
glyphname = U.sc;
lastChange = "2019-01-05 04:57:11 +0000";
layers = (
{
layerId = "51BB9282-3B82-4DF1-A67A-294D3E37D73A";
paths = (
{
closed = 1;
nodes = (
"357 -10 OFFCURVE",
"454 32 OFFCURVE",
"465 156 CURVE SMOOTH",
"470 226 OFFCURVE",
"466 326 OFFCURVE",
"471 434 CURVE",
"474 464 OFFCURVE",
"497 481 OFFCURVE",
"526 481 CURVE SMOOTH",
"529 481 OFFCURVE",
"533 481 OFFCURVE",
"537 480 CURVE",
"531 523 LINE",
"492 517 OFFCURVE",
"475 517 OFFCURVE",
"449 517 CURVE SMOOTH",
"398 517 OFFCURVE",
"365 518 OFFCURVE",
"319 522 CURVE",
"320 517 OFFCURVE",
"323 486 OFFCURVE",
"325 476 CURVE",
"335 477 OFFCURVE",
"344 478 OFFCURVE",
"353 478 CURVE SMOOTH",
"385 478 OFFCURVE",
"407 466 OFFCURVE",
"408 420 CURVE SMOOTH",
"408 261 LINE SMOOTH",
"408 231 OFFCURVE",
"408 202 OFFCURVE",
"406 174 CURVE SMOOTH",
"400 90 OFFCURVE",
"351 41 OFFCURVE",
"281 41 CURVE SMOOTH",
"212 41 OFFCURVE",
"179 93 OFFCURVE",
"172 166 CURVE",
"171 173 OFFCURVE",
"171 187 OFFCURVE",
"171 204 CURVE SMOOTH",
"171 254 OFFCURVE",
"173 338 OFFCURVE",
"177 400 CURVE SMOOTH",
"180 440 OFFCURVE",
"193 482 OFFCURVE",
"242 482 CURVE SMOOTH",
"246 482 OFFCURVE",
"251 482 OFFCURVE",
"256 481 CURVE",
"254 494 OFFCURVE",
"251 524 OFFCURVE",
"251 524 CURVE",
"211 518 OFFCURVE",
"152 517 OFFCURVE",
"126 517 CURVE SMOOTH",
"71 517 OFFCURVE",
"58 519 OFFCURVE",
"8 523 CURVE",
"9 517 OFFCURVE",
"12 487 OFFCURVE",
"14 477 CURVE",
"21 478 OFFCURVE",
"27 478 OFFCURVE",
"33 478 CURVE SMOOTH",
"70 478 OFFCURVE",
"76 458 OFFCURVE",
"79 418 CURVE",
"81 363 OFFCURVE",
"74 234 OFFCURVE",
"74 153 CURVE SMOOTH",
"74 19 OFFCURVE",
"190 -10 OFFCURVE",
"272 -10 CURVE SMOOTH"
);
}
);
width = 546;
}
);
},
{
glyphname = V.sc;
lastChange = "2019-01-05 04:56:58 +0000";
layers = (
{
layerId = "51BB9282-3B82-4DF1-A67A-294D3E37D73A";
paths = (
{
closed = 1;
nodes = (
"264 -8 OFFCURVE",
"317 0 OFFCURVE",
"343 4 CURVE",
"379 122 OFFCURVE",
"439 280 OFFCURVE",
"500 433 CURVE SMOOTH",
"511 462 OFFCURVE",
"524 483 OFFCURVE",
"566 483 CURVE SMOOTH",
"570 483 OFFCURVE",
"575 482 OFFCURVE",
"580 482 CURVE",
"573 521 LINE",
"546 519 OFFCURVE",
"516 518 OFFCURVE",
"486 518 CURVE SMOOTH",
"442 518 OFFCURVE",
"396 520 OFFCURVE",
"353 521 CURVE",
"359 488 LINE",
"387 489 OFFCURVE",
"432 490 OFFCURVE",
"432 446 CURVE SMOOTH",
"432 440 OFFCURVE",
"432 434 OFFCURVE",
"430 427 CURVE",
"420 386 OFFCURVE",
"343 180 OFFCURVE",
"297 55 CURVE",
"292 82 OFFCURVE",
"289 133 OFFCURVE",
"283 159 CURVE",
"255 250 OFFCURVE",
"209 363 OFFCURVE",
"186 440 CURVE",
"185 445 OFFCURVE",
"184 449 OFFCURVE",
"184 453 CURVE SMOOTH",
"184 474 OFFCURVE",
"202 482 OFFCURVE",
"229 482 CURVE SMOOTH",
"237 482 OFFCURVE",
"246 481 OFFCURVE",
"256 480 CURVE",
"249 521 LINE",
"224 519 OFFCURVE",
"186 518 OFFCURVE",
"145 518 CURVE SMOOTH",
"98 518 OFFCURVE",
"47 519 OFFCURVE",
"8 521 CURVE",
"14 486 LINE",
"18 486 OFFCURVE",
"21 487 OFFCURVE",
"25 487 CURVE SMOOTH",
"61 487 OFFCURVE",
"73 458 OFFCURVE",
"84 437 CURVE",
"149 261 OFFCURVE",
"199 121 OFFCURVE",
"239 -16 CURVE"
);
}
);
width = 597;
}
);
},
{
glyphname = W.sc;
lastChange = "2019-01-05 04:56:58 +0000";
layers = (
{
layerId = "51BB9282-3B82-4DF1-A67A-294D3E37D73A";
paths = (
{
closed = 1;
nodes = (
"522 -8 OFFCURVE",
"569 0 OFFCURVE",
"594 4 CURVE",
"631 122 OFFCURVE",
"682 274 OFFCURVE",
"727 428 CURVE SMOOTH",
"737 462 OFFCURVE",
"760 477 OFFCURVE",
"806 478 CURVE",
"802 518 LINE",
"588 518 LINE",
"594 480 LINE",
"638 481 OFFCURVE",
"659 477 OFFCURVE",
"659 447 CURVE SMOOTH",
"659 442 OFFCURVE",
"658 436 OFFCURVE",
"657 430 CURVE SMOOTH",
"649 387 OFFCURVE",
"588 193 OFFCURVE",
"547 64 CURVE",
"544 87 OFFCURVE",
"543 132 OFFCURVE",
"538 146 CURVE SMOOTH",
"508 240 OFFCURVE",
"484 352 OFFCURVE",
"462 434 CURVE",
"460 439 OFFCURVE",
"460 444 OFFCURVE",
"460 448 CURVE SMOOTH",
"460 472 OFFCURVE",
"488 474 OFFCURVE",
"524 473 CURVE",
"518 514 LINE",
"296 514 LINE",
"301 478 LINE",
"346 480 OFFCURVE",
"359 449 OFFCURVE",
"368 417 CURVE SMOOTH",
"421 242 OFFCURVE",
"457 117 OFFCURVE",
"497 -16 CURVE"
);
},
{
closed = 1;
nodes = (
"224 -8 OFFCURVE",
"271 0 OFFCURVE",
"296 4 CURVE",
"339 122 OFFCURVE",
"390 280 OFFCURVE",
"446 426 CURVE",
"377 417 LINE",
"364 378 OFFCURVE",
"309 209 OFFCURVE",
"259 78 CURVE",
"255 101 OFFCURVE",
"252 133 OFFCURVE",
"246 155 CURVE SMOOTH",
"218 250 OFFCURVE",
"183 357 OFFCURVE",
"162 439 CURVE SMOOTH",
"161 443 OFFCURVE",
"160 447 OFFCURVE",
"160 451 CURVE SMOOTH",
"160 478 OFFCURVE",
"195 480 OFFCURVE",
"231 479 CURVE",
"224 521 LINE",
"197 519 OFFCURVE",
"161 518 OFFCURVE",
"123 518 CURVE SMOOTH",
"80 518 OFFCURVE",
"35 519 OFFCURVE",
"-5 521 CURVE",
"1 478 LINE",
"45 479 OFFCURVE",
"58 459 OFFCURVE",
"70 422 CURVE SMOOTH",
"129 252 OFFCURVE",
"159 117 OFFCURVE",
"199 -16 CURVE"
);
}
);
width = 807;
}
);
},
{
glyphname = X.sc;
lastChange = "2019-01-05 04:56:58 +0000";
layers = (
{
layerId = "51BB9282-3B82-4DF1-A67A-294D3E37D73A";
paths = (
{
closed = 1;
nodes = (
"511 0 LINE",
"497 53 LINE",
"469 54 OFFCURVE",
"444 64 OFFCURVE",
"413 105 CURVE SMOOTH",
"366 166 OFFCURVE",
"316 237 OFFCURVE",
"286 277 CURVE SMOOTH",
"274 293 LINE SMOOTH",
"246 333 OFFCURVE",
"207 382 OFFCURVE",
"192 412 CURVE SMOOTH",
"185 426 OFFCURVE",
"182 437 OFFCURVE",
"182 446 CURVE SMOOTH",
"182 465 OFFCURVE",
"198 475 OFFCURVE",
"233 476 CURVE",
"224 519 LINE",
"187 517 OFFCURVE",
"151 515 OFFCURVE",
"111 515 CURVE SMOOTH",
"79 515 OFFCURVE",
"44 516 OFFCURVE",
"5 519 CURVE",
"11 474 LINE",
"45 474 OFFCURVE",
"53 471 OFFCURVE",
"93 413 CURVE SMOOTH",
"128 363 OFFCURVE",
"194 276 OFFCURVE",
"221 231 CURVE",
"228 224 LINE",
"259 182 OFFCURVE",
"283 146 OFFCURVE",
"313 104 CURVE SMOOTH",
"321 92 OFFCURVE",
"325 82 OFFCURVE",
"325 74 CURVE SMOOTH",
"325 54 OFFCURVE",
"301 48 OFFCURVE",
"266 49 CURVE",
"274 0 LINE"
);
},
{
closed = 1;
nodes = (
"223 0 LINE",
"213 46 LINE",
"176 44 OFFCURVE",
"164 53 OFFCURVE",
"164 67 CURVE SMOOTH",
"164 77 OFFCURVE",
"170 89 OFFCURVE",
"178 102 CURVE SMOOTH",
"206 147 OFFCURVE",
"246 202 OFFCURVE",
"282 239 CURVE",
"290 246 LINE",
"316 283 OFFCURVE",
"371 351 OFFCURVE",
"407 405 CURVE SMOOTH",
"437 450 OFFCURVE",
"461 477 OFFCURVE",
"510 480 CURVE",
"503 520 LINE",
"472 518 OFFCURVE",
"437 516 OFFCURVE",
"401 516 CURVE SMOOTH",
"365 516 OFFCURVE",
"328 518 OFFCURVE",
"293 520 CURVE",
"303 477 LINE",
"340 476 OFFCURVE",
"353 465 OFFCURVE",
"353 449 CURVE SMOOTH",
"353 441 OFFCURVE",
"350 433 OFFCURVE",
"346 424 CURVE SMOOTH",
"326 380 OFFCURVE",
"277 326 OFFCURVE",
"241 279 CURVE",
"229 270 LINE",
"192 218 OFFCURVE",
"129 133 OFFCURVE",
"105 102 CURVE SMOOTH",
"83 75 OFFCURVE",
"51 49 OFFCURVE",
"5 49 CURVE",
"12 0 LINE"
);
}
);
width = 526;
}
);
},
{
glyphname = Y.sc;
lastChange = "2019-01-05 04:56:58 +0000";
layers = (
{
layerId = "51BB9282-3B82-4DF1-A67A-294D3E37D73A";
paths = (
{
closed = 1;
nodes = (
"226 199 OFFCURVE",
"266 216 OFFCURVE",
"285 219 CURVE",
"309 271 OFFCURVE",
"355 334 OFFCURVE",
"425 434 CURVE SMOOTH",
"444 461 OFFCURVE",
"463 482 OFFCURVE",
"502 483 CURVE",
"495 521 LINE",
"461 519 OFFCURVE",
"427 518 OFFCURVE",
"393 518 CURVE SMOOTH",
"364 518 OFFCURVE",
"335 519 OFFCURVE",
"305 521 CURVE",
"311 480 LINE",
"347 482 OFFCURVE",
"375 474 OFFCURVE",
"375 454 CURVE SMOOTH",
"375 448 OFFCURVE",
"373 442 OFFCURVE",
"369 435 CURVE SMOOTH",
"327 367 OFFCURVE",
"286 307 OFFCURVE",
"257 259 CURVE",
"257 259 OFFCURVE",
"243 296 OFFCURVE",
"236 320 CURVE",
"212 362 OFFCURVE",
"194 409 OFFCURVE",
"177 439 CURVE SMOOTH",
"172 448 OFFCURVE",
"169 455 OFFCURVE",
"169 461 CURVE SMOOTH",
"169 476 OFFCURVE",
"186 483 OFFCURVE",
"222 486 CURVE",
"213 521 LINE",
"172 520 OFFCURVE",
"132 519 OFFCURVE",
"92 519 CURVE SMOOTH",
"60 519 OFFCURVE",
"27 520 OFFCURVE",
"-7 521 CURVE",
"-2 483 LINE",
"29 483 OFFCURVE",
"54 474 OFFCURVE",
"76 437 CURVE SMOOTH",
"147 317 OFFCURVE",
"168 259 OFFCURVE",
"203 193 CURVE"
);
},
{
closed = 1;
nodes = (
"365 0 LINE",
"351 45 LINE",
"317 43 OFFCURVE",
"303 59 OFFCURVE",
"296 91 CURVE SMOOTH",
"292 107 OFFCURVE",
"291 123 OFFCURVE",
"291 148 CURVE SMOOTH",
"291 170 OFFCURVE",
"292 200 OFFCURVE",
"294 244 CURVE",
"196 252 LINE",
"202 207 OFFCURVE",
"204 175 OFFCURVE",
"204 148 CURVE SMOOTH",
"204 127 OFFCURVE",
"202 110 OFFCURVE",
"200 95 CURVE SMOOTH",
"196 61 OFFCURVE",
"186 43 OFFCURVE",
"139 45 CURVE",
"145 -1 LINE"
);
}
);
width = 512;
}
);
},
{
glyphname = Z.sc;
lastChange = "2019-01-05 04:56:58 +0000";
layers = (
{
layerId = "51BB9282-3B82-4DF1-A67A-294D3E37D73A";
paths = (
{
closed = 1;
nodes = (
"431 0 LINE",
"432 53 LINE SMOOTH",
"433 92 OFFCURVE",
"430 140 OFFCURVE",
"430 140 CURVE",
"376 135 LINE",
"373 109 OFFCURVE",
"367 85 OFFCURVE",
"354 60 CURVE",
"333 57 OFFCURVE",
"289 55 OFFCURVE",
"246 55 CURVE SMOOTH",
"226 55 OFFCURVE",
"207 56 OFFCURVE",
"190 56 CURVE SMOOTH",
"150 57 OFFCURVE",
"112 59 OFFCURVE",
"92 79 CURVE",
"126 45 LINE",
"139 56 OFFCURVE",
"368 428 OFFCURVE",
"427 472 CURVE",
"421 520 LINE",
"400 519 OFFCURVE",
"366 518 OFFCURVE",
"330 518 CURVE SMOOTH",
"281 518 OFFCURVE",
"229 519 OFFCURVE",
"198 519 CURVE SMOOTH",
"105 519 LINE SMOOTH",
"75 519 OFFCURVE",
"48 519 OFFCURVE",
"32 520 CURVE",
"33 466 LINE SMOOTH",
"34 428 OFFCURVE",
"36 379 OFFCURVE",
"36 379 CURVE",
"90 385 LINE",
"93 412 OFFCURVE",
"101 435 OFFCURVE",
"116 461 CURVE",
"154 464 OFFCURVE",
"219 466 OFFCURVE",
"267 466 CURVE SMOOTH",
"288 466 OFFCURVE",
"295 462 OFFCURVE",
"295 457 CURVE SMOOTH",
"295 454 OFFCURVE",
"293 450 OFFCURVE",
"290 446 CURVE",
"223 341 OFFCURVE",
"61 91 OFFCURVE",
"-1 47 CURVE",
"-2 30 OFFCURVE",
"3 9 OFFCURVE",
"2 0 CURVE"
);
}
);
width = 452;
}
);
},
{
glyphname = sinA;
lastChange = "2019-01-05 04:56:58 +0000";
layers = (
{
layerId = "51BB9282-3B82-4DF1-A67A-294D3E37D73A";
paths = (
{
closed = 1;
nodes = (
"349 -15 OFFCURVE",
"439 -5 OFFCURVE",
"486 19 CURVE",
"488 25 OFFCURVE",
"489 33 OFFCURVE",
"489 42 CURVE SMOOTH",
"489 58 OFFCURVE",
"486 76 OFFCURVE",
"481 89 CURVE",
"410 34 OFFCURVE",
"349 22 OFFCURVE",
"293 22 CURVE SMOOTH",
"170 22 OFFCURVE",
"101 81 OFFCURVE",
"101 159 CURVE SMOOTH",
"101 224 OFFCURVE",
"150 287 OFFCURVE",
"228 287 CURVE SMOOTH",
"259 287 OFFCURVE",
"296 277 OFFCURVE",
"320 262 CURVE",
"333 272 LINE",
"334 280 OFFCURVE",
"335 291 OFFCURVE",
"335 299 CURVE SMOOTH",
"335 395 OFFCURVE",
"268 465 OFFCURVE",
"179 465 CURVE SMOOTH",
"113 465 OFFCURVE",
"77 429 OFFCURVE",
"77 388 CURVE SMOOTH",
"77 353 OFFCURVE",
"101 336 OFFCURVE",
"118 335 CURVE",
"129 381 OFFCURVE",
"171 414 OFFCURVE",
"216 414 CURVE SMOOTH",
"260 414 OFFCURVE",
"287 382 OFFCURVE",
"287 326 CURVE SMOOTH",
"287 299 OFFCURVE",
"281 293 OFFCURVE",
"279 290 CURVE",
"311 320 LINE",
"286 323 OFFCURVE",
"267 325 OFFCURVE",
"246 325 CURVE SMOOTH",
"114 325 OFFCURVE",
"22 259 OFFCURVE",
"22 157 CURVE SMOOTH",
"22 40 OFFCURVE",
"143 -15 OFFCURVE",
"287 -15 CURVE SMOOTH"
);
},
{
closed = 1;
nodes = (
"418 -227 LINE",
"411 229 LINE",
"390 214 LINE",
"474 221 OFFCURVE",
"521 269 OFFCURVE",
"521 332 CURVE SMOOTH",
"521 397 OFFCURVE",
"471 418 OFFCURVE",
"419 461 CURVE",
"403 454 LINE",
"390 438 OFFCURVE",
"367 399 OFFCURVE",
"367 361 CURVE SMOOTH",
"365 91 OFFCURVE",
"365 60 OFFCURVE",
"353 -227 CURVE"
);
},
{
closed = 1;
nodes = (
"410 325 LINE SMOOTH",
"410 363 OFFCURVE",
"409 380 OFFCURVE",
"420 421 CURVE",
"459 389 OFFCURVE",
"472 362 OFFCURVE",
"472 327 CURVE SMOOTH",
"472 285 OFFCURVE",
"451 261 OFFCURVE",
"410 252 CURVE"
);
}
);
width = 551;
},
{
associatedMasterId = "51BB9282-3B82-4DF1-A67A-294D3E37D73A";
layerId = "B6922988-6FF3-4CC8-A1D1-832293FD63E3";
name = "Sep 18 18, 12:40";
paths = (
{
closed = 1;
nodes = (
"349 -15 OFFCURVE",
"439 -5 OFFCURVE",
"486 19 CURVE",
"491 36 OFFCURVE",
"489 68 OFFCURVE",
"481 89 CURVE",
"410 34 OFFCURVE",
"349 22 OFFCURVE",
"293 22 CURVE SMOOTH",
"170 22 OFFCURVE",
"101 81 OFFCURVE",
"101 159 CURVE SMOOTH",
"101 224 OFFCURVE",
"150 287 OFFCURVE",
"228 287 CURVE SMOOTH",
"259 287 OFFCURVE",
"296 277 OFFCURVE",
"320 262 CURVE",
"333 272 LINE",
"334 280 OFFCURVE",
"335 291 OFFCURVE",
"335 299 CURVE SMOOTH",
"335 395 OFFCURVE",
"268 465 OFFCURVE",
"179 465 CURVE SMOOTH",
"113 465 OFFCURVE",
"77 429 OFFCURVE",
"77 388 CURVE SMOOTH",
"77 353 OFFCURVE",
"101 336 OFFCURVE",
"118 335 CURVE",
"129 381 OFFCURVE",
"171 414 OFFCURVE",
"216 414 CURVE SMOOTH",
"260 414 OFFCURVE",
"287 382 OFFCURVE",
"287 326 CURVE SMOOTH",
"287 299 OFFCURVE",
"281 293 OFFCURVE",
"279 290 CURVE",
"311 320 LINE",
"286 323 OFFCURVE",
"267 325 OFFCURVE",
"246 325 CURVE SMOOTH",
"114 325 OFFCURVE",
"22 259 OFFCURVE",
"22 157 CURVE SMOOTH",
"22 40 OFFCURVE",
"143 -15 OFFCURVE",
"287 -15 CURVE SMOOTH"
);
},
{
closed = 1;
nodes = (
"410 325 LINE SMOOTH",
"410 363 OFFCURVE",
"409 380 OFFCURVE",
"420 421 CURVE",
"459 389 OFFCURVE",
"472 362 OFFCURVE",
"472 327 CURVE SMOOTH",
"472 285 OFFCURVE",
"451 261 OFFCURVE",
"410 252 CURVE"
);
},
{
closed = 1;
nodes = (
"474 221 OFFCURVE",
"521 269 OFFCURVE",
"521 332 CURVE SMOOTH",
"521 397 OFFCURVE",
"471 418 OFFCURVE",
"419 461 CURVE",
"403 454 LINE",
"390 438 OFFCURVE",
"367 399 OFFCURVE",
"367 361 CURVE SMOOTH",
"365 91 OFFCURVE",
"365 60 OFFCURVE",
"353 -227 CURVE",
"418 -227 LINE",
"411 229 LINE",
"390 214 LINE"
);
}
);
width = 551;
}
);
unicode = 0D85;
},
{
glyphname = sinBa;
lastChange = "2019-01-05 04:56:58 +0000";
layers = (
{
layerId = "51BB9282-3B82-4DF1-A67A-294D3E37D73A";
paths = (
{
closed = 1;
nodes = (
"559 -9 OFFCURVE",
"614 122 OFFCURVE",
"614 251 CURVE SMOOTH",
"614 462 OFFCURVE",
"477 598 OFFCURVE",
"288 598 CURVE SMOOTH",
"224 598 OFFCURVE",
"163 582 OFFCURVE",
"126 563 CURVE",
"120 552 OFFCURVE",
"117 533 OFFCURVE",
"117 514 CURVE SMOOTH",
"117 506 OFFCURVE",
"118 497 OFFCURVE",
"119 490 CURVE",
"119 488 OFFCURVE",
"191 527 OFFCURVE",
"296 527 CURVE SMOOTH",
"477 527 OFFCURVE",
"566 427 OFFCURVE",
"566 276 CURVE SMOOTH",
"566 169 OFFCURVE",
"513 70 OFFCURVE",
"416 70 CURVE SMOOTH",
"381 70 OFFCURVE",
"343 89 OFFCURVE",
"343 135 CURVE SMOOTH",
"343 175 OFFCURVE",
"385 199 OFFCURVE",
"422 199 CURVE SMOOTH",
"428 199 OFFCURVE",
"434 198 OFFCURVE",
"439 197 CURVE",
"448 200 OFFCURVE",
"455 202 OFFCURVE",
"462 208 CURVE",
"458 316 OFFCURVE",
"379 411 OFFCURVE",
"263 411 CURVE SMOOTH",
"132 411 OFFCURVE",
"52 298 OFFCURVE",
"52 162 CURVE SMOOTH",
"52 90 OFFCURVE",
"88 -6 OFFCURVE",
"184 -6 CURVE SMOOTH",
"239 -6 OFFCURVE",
"277 36 OFFCURVE",
"277 94 CURVE SMOOTH",
"277 144 OFFCURVE",
"249 185 OFFCURVE",
"199 185 CURVE SMOOTH",
"149 185 OFFCURVE",
"125 145 OFFCURVE",
"125 107 CURVE SMOOTH",
"125 82 OFFCURVE",
"132 64 OFFCURVE",
"142 48 CURVE",
"177 30 LINE",
"162 46 OFFCURVE",
"159 57 OFFCURVE",
"159 72 CURVE SMOOTH",
"159 116 OFFCURVE",
"187 127 OFFCURVE",
"207 127 CURVE SMOOTH",
"227 127 OFFCURVE",
"247 116 OFFCURVE",
"247 93 CURVE SMOOTH",
"247 60 OFFCURVE",
"207 49 OFFCURVE",
"185 49 CURVE SMOOTH",
"142 49 OFFCURVE",
"83 86 OFFCURVE",
"83 173 CURVE SMOOTH",
"83 271 OFFCURVE",
"165 332 OFFCURVE",
"261 332 CURVE SMOOTH",
"320 332 OFFCURVE",
"388 315 OFFCURVE",
"422 258 CURVE",
"380 257 OFFCURVE",
"305 213 OFFCURVE",
"305 120 CURVE SMOOTH",
"305 58 OFFCURVE",
"346 -9 OFFCURVE",
"432 -9 CURVE SMOOTH"
);
}
);
width = 653;
}
);
unicode = 0DB6;
userData = {
com.typemytype.robofont.layerData = {
"Jan 19 17, 02:25" = {
anchors = (
{
name = rakaransaya;
x = 799;
y = 363;
}
);
components = (
);
contours = (
{
points = (
{
segmentType = curve;
smooth = 1;
x = 55;
y = 180;
},
{
smooth = 0;
x = 55;
y = 186;
},
{
smooth = 0;
x = 55;
y = 193;
},
{
segmentType = curve;
smooth = 1;
x = 55.434;
y = 200;
},
{
smooth = 0;
x = 67;
y = 379;
},
{
smooth = 0;
x = 187;
y = 502;
},
{
segmentType = curve;
smooth = 1;
x = 339;
y = 502;
},
{
smooth = 0;
x = 473;
y = 502;
},
{
smooth = 0;
x = 543;
y = 410;
},
{
segmentType = curve;
smooth = 0;
x = 535.25098;
y = 311;
},
{
smooth = 0;
x = 490.09399;
y = 308;
},
{
smooth = 0;
x = 433.60501;
y = 270.03;
},
{
segmentType = curve;
smooth = 1;
x = 425.01401;
y = 192;
},
{
smooth = 0;
x = 425;
y = 188;
},
{
smooth = 0;
x = 424;
y = 184;
},
{
segmentType = curve;
smooth = 1;
x = 424;
y = 181;
},
{
smooth = 0;
x = 424;
y = 135;
},
{
smooth = 0;
x = 459;
y = 104;
},
{
segmentType = curve;
smooth = 1;
x = 534;
y = 104;
},
{
smooth = 0;
x = 674;
y = 104;
},
{
smooth = 0;
x = 738;
y = 265;
},
{
segmentType = curve;
smooth = 1;
x = 738;
y = 384;
},
{
smooth = 0;
x = 738;
y = 581;
},
{
smooth = 0;
x = 599;
y = 688;
},
{
segmentType = curve;
smooth = 1;
x = 369;
y = 688;
},
{
smooth = 0;
x = 243;
y = 688;
},
{
smooth = 0;
x = 155;
y = 626;
},
{
segmentType = curve;
smooth = 1;
x = 154;
y = 627;
},
{
smooth = 0;
x = 151;
y = 629;
},
{
smooth = 0;
x = 149;
y = 635;
},
{
segmentType = curve;
smooth = 1;
x = 149;
y = 643;
},
{
smooth = 0;
x = 149;
y = 665;
},
{
smooth = 0;
x = 160;
y = 704;
},
{
segmentType = curve;
smooth = 0;
x = 174;
y = 726;
},
{
smooth = 0;
x = 218;
y = 754;
},
{
smooth = 0;
x = 289;
y = 778;
},
{
segmentType = curve;
smooth = 1;
x = 381;
y = 778;
},
{
smooth = 0;
x = 610;
y = 778;
},
{
smooth = 0;
x = 810;
y = 625;
},
{
segmentType = curve;
smooth = 1;
x = 797.55701;
y = 355;
},
{
smooth = 0;
x = 789;
y = 148;
},
{
smooth = 0;
x = 698;
y = -12;
},
{
segmentType = curve;
smooth = 1;
x = 536;
y = -12;
},
{
smooth = 0;
x = 401;
y = -12;
},
{
smooth = 0;
x = 363;
y = 84;
},
{
segmentType = curve;
smooth = 1;
x = 368.17999;
y = 157;
},
{
smooth = 0;
x = 375.95499;
y = 267.19;
},
{
smooth = 0;
x = 439.84201;
y = 322.28601;
},
{
segmentType = curve;
smooth = 0;
x = 497.509;
y = 335;
},
{
smooth = 0;
x = 486;
y = 363;
},
{
smooth = 0;
x = 397;
y = 407;
},
{
segmentType = curve;
smooth = 1;
x = 312;
y = 407;
},
{
smooth = 0;
x = 204;
y = 407;
},
{
smooth = 0;
x = 93;
y = 329;
},
{
segmentType = curve;
smooth = 1;
x = 93;
y = 201;
},
{
smooth = 0;
x = 93;
y = 112;
},
{
smooth = 0;
x = 161;
y = 64;
},
{
segmentType = curve;
smooth = 0;
x = 194.939;
y = 57;
},
{
segmentType = line;
smooth = 0;
x = 168.677;
y = 52;
},
{
smooth = 0;
x = 160;
y = 69;
},
{
smooth = 0;
x = 156;
y = 87;
},
{
segmentType = curve;
smooth = 1;
x = 156;
y = 105;
},
{
smooth = 0;
x = 156;
y = 157;
},
{
smooth = 0;
x = 192;
y = 207;
},
{
segmentType = curve;
smooth = 1;
x = 255.8;
y = 207;
},
{
smooth = 0;
x = 305.82901;
y = 206.72701;
},
{
smooth = 0;
x = 345.27899;
y = 161.00301;
},
{
segmentType = curve;
smooth = 1;
x = 340.45499;
y = 105;
},
{
smooth = 0;
x = 334.43799;
y = 35.152;
},
{
smooth = 0;
x = 291.009;
y = -18;
},
{
segmentType = curve;
smooth = 1;
x = 233;
y = -18;
},
{
smooth = 0;
x = 105;
y = -18;
},
{
smooth = 0;
x = 55;
y = 77;
}
);
},
{
points = (
{
segmentType = curve;
smooth = 1;
x = 195;
y = 101;
},
{
smooth = 0;
x = 195;
y = 78;
},
{
smooth = 0;
x = 206;
y = 59;
},
{
segmentType = curve;
smooth = 1;
x = 237;
y = 59;
},
{
smooth = 0;
x = 270;
y = 59;
},
{
smooth = 0;
x = 288;
y = 95;
},
{
segmentType = curve;
smooth = 1;
x = 288;
y = 125;
},
{
smooth = 0;
x = 288;
y = 153;
},
{
smooth = 0;
x = 268;
y = 164;
},
{
segmentType = curve;
smooth = 1;
x = 245.547;
y = 164;
},
{
smooth = 0;
x = 217;
y = 164;
},
{
smooth = 0;
x = 195;
y = 135;
}
);
}
);
lib = {
};
name = sinBa;
unicodes = (
);
width = 848;
};
};
};
},
{
glyphname = sinBha;
lastChange = "2019-01-05 05:02:50 +0000";
layers = (
{
layerId = "51BB9282-3B82-4DF1-A67A-294D3E37D73A";
paths = (
{
closed = 1;
nodes = (
"421 -8 OFFCURVE",
"495 81 OFFCURVE",
"495 172 CURVE SMOOTH",
"495 263 OFFCURVE",
"434 301 OFFCURVE",
"398 301 CURVE",
"388 253 LINE",
"408 253 OFFCURVE",
"461 239 OFFCURVE",
"461 185 CURVE SMOOTH",
"460 130 OFFCURVE",
"398 77 OFFCURVE",
"280 77 CURVE SMOOTH",
"198 77 OFFCURVE",
"125 114 OFFCURVE",
"125 168 CURVE SMOOTH",
"125 236 OFFCURVE",
"188 262 OFFCURVE",
"255 262 CURVE SMOOTH",
"279 262 OFFCURVE",
"303 259 OFFCURVE",
"325 253 CURVE",
"334 264 LINE",
"338 281 OFFCURVE",
"341 299 OFFCURVE",
"341 319 CURVE SMOOTH",
"341 385 OFFCURVE",
"310 456 OFFCURVE",
"222 456 CURVE SMOOTH",
"151 456 OFFCURVE",
"106 415 OFFCURVE",
"106 374 CURVE SMOOTH",
"106 340 OFFCURVE",
"134 324 OFFCURVE",
"165 323 CURVE",
"185 384 OFFCURVE",
"207 408 OFFCURVE",
"243 408 CURVE SMOOTH",
"273 408 OFFCURVE",
"298 396 OFFCURVE",
"298 358 CURVE SMOOTH",
"298 338 OFFCURVE",
"293 318 OFFCURVE",
"288 309 CURVE",
"181 310 OFFCURVE",
"90 262 OFFCURVE",
"90 158 CURVE SMOOTH",
"90 64 OFFCURVE",
"169 -8 OFFCURVE",
"295 -8 CURVE SMOOTH"
);
},
{
closed = 1;
nodes = (
"54 246 OFFCURVE",
"150 295 OFFCURVE",
"271 295 CURVE SMOOTH",
"281 295 OFFCURVE",
"291 295 OFFCURVE",
"301 294 CURVE",
"314 309 LINE",
"282 309 LINE SMOOTH",
"196 309 OFFCURVE",
"75 306 OFFCURVE",
"20 296 CURVE",
"10 275 OFFCURVE",
"6 253 OFFCURVE",
"5 230 CURVE",
"14 223 LINE"
);
},
{
closed = 1;
nodes = (
"673 -7 OFFCURVE",
"749 117 OFFCURVE",
"749 248 CURVE SMOOTH",
"749 371 OFFCURVE",
"667 454 OFFCURVE",
"575 454 CURVE SMOOTH",
"434 454 OFFCURVE",
"359 333 OFFCURVE",
"354 170 CURVE",
"359 169 OFFCURVE",
"363 169 OFFCURVE",
"368 169 CURVE SMOOTH",
"375 169 OFFCURVE",
"382 169 OFFCURVE",
"390 170 CURVE",
"388 177 OFFCURVE",
"387 190 OFFCURVE",
"387 197 CURVE SMOOTH",
"387 305 OFFCURVE",
"448 364 OFFCURVE",
"564 364 CURVE SMOOTH",
"628 364 OFFCURVE",
"703 322 OFFCURVE",
"703 224 CURVE SMOOTH",
"703 140 OFFCURVE",
"646 66 OFFCURVE",
"548 66 CURVE SMOOTH",
"532 66 OFFCURVE",
"510 69 OFFCURVE",
"493 73 CURVE",
"493 72 OFFCURVE",
"483 69 OFFCURVE",
"483 67 CURVE SMOOTH",
"483 50 OFFCURVE",
"503 7 OFFCURVE",
"522 -10 CURVE"
);
}
);
width = 799;
}
);
leftMetricsKey = sinBHa;
rightMetricsKey = sinBha;
unicode = 0DB7;
userData = {
public.markColor = "0.04,0.57,0.04,1";
};
},
{
glyphname = sinCa;
lastChange = "2019-01-05 04:56:29 +0000";
layers = (
{
layerId = "51BB9282-3B82-4DF1-A67A-294D3E37D73A";
paths = (
{
closed = 1;
nodes = (
"519 -23 OFFCURVE",
"607 131 OFFCURVE",
"607 293 CURVE SMOOTH",
"607 491 OFFCURVE",
"475 601 OFFCURVE",
"319 601 CURVE SMOOTH",
"257 601 OFFCURVE",
"195 584 OFFCURVE",
"159 566 CURVE",
"151 549 OFFCURVE",
"150 523 OFFCURVE",
"150 515 CURVE SMOOTH",
"150 507 OFFCURVE",
"151 499 OFFCURVE",
"152 496 CURVE",
"155 496 OFFCURVE",
"234 529 OFFCURVE",
"312 529 CURVE SMOOTH",
"420 529 OFFCURVE",
"565 472 OFFCURVE",
"565 294 CURVE SMOOTH",
"565 178 OFFCURVE",
"493 65 OFFCURVE",
"318 65 CURVE SMOOTH",
"231 65 OFFCURVE",
"137 91 OFFCURVE",
"137 151 CURVE SMOOTH",
"137 201 OFFCURVE",
"203 226 OFFCURVE",
"276 226 CURVE SMOOTH",
"296 226 OFFCURVE",
"316 224 OFFCURVE",
"336 221 CURVE",
"352 233 LINE",
"354 245 OFFCURVE",
"356 257 OFFCURVE",
"356 271 CURVE SMOOTH",
"356 340 OFFCURVE",
"309 420 OFFCURVE",
"216 420 CURVE SMOOTH",
"157 420 OFFCURVE",
"122 387 OFFCURVE",
"122 350 CURVE SMOOTH",
"122 325 OFFCURVE",
"139 309 OFFCURVE",
"169 309 CURVE SMOOTH",
"173 309 OFFCURVE",
"176 309 OFFCURVE",
"180 310 CURVE",
"181 318 OFFCURVE",
"200 362 OFFCURVE",
"248 362 CURVE SMOOTH",
"286 362 OFFCURVE",
"320 336 OFFCURVE",
"318 285 CURVE",
"312 283 OFFCURVE",
"301 283 OFFCURVE",
"295 283 CURVE SMOOTH",
"281 283 OFFCURVE",
"95 260 OFFCURVE",
"95 126 CURVE SMOOTH",
"95 33 OFFCURVE",
"200 -23 OFFCURVE",
"320 -23 CURVE SMOOTH"
);
},
{
closed = 1;
nodes = (
"78 219 OFFCURVE",
"175 264 OFFCURVE",
"313 271 CURVE",
"319 286 LINE",
"232 286 OFFCURVE",
"100 279 OFFCURVE",
"39 267 CURVE",
"32 253 OFFCURVE",
"26 224 OFFCURVE",
"26 202 CURVE",
"36 194 LINE"
);
}
);
width = 657;
}
);
unicode = 0DA0;
userData = {
com.typemytype.robofont.layerData = {
"Jan 19 17, 02:22" = {
anchors = (
{
name = rakaransaya;
x = 822;
y = 393;
}
);
components = (
);
contours = (
{
points = (
{
segmentType = curve;
smooth = 1;
x = 122.757;
y = 178;
},
{
smooth = 0;
x = 130.67;
y = 326.80099;
},
{
smooth = 0;
x = 299.59;
y = 351.43701;
},
{
segmentType = curve;
smooth = 1;
x = 408.55301;
y = 381;
},
{
smooth = 0;
x = 417.23001;
y = 381;
},
{
smooth = 0;
x = 430.55301;
y = 381;
},
{
segmentType = curve;
smooth = 0;
x = 438.5;
y = 383;
},
{
smooth = 0;
x = 440.95901;
y = 449;
},
{
smooth = 0;
x = 396.741;
y = 483;
},
{
segmentType = curve;
smooth = 1;
x = 347.741;
y = 483;
},
{
smooth = 0;
x = 285.741;
y = 483;
},
{
smooth = 0;
x = 260.754;
y = 426;
},
{
segmentType = curve;
smooth = 0;
x = 260.177;
y = 415;
},
{
smooth = 0;
x = 255;
y = 414;
},
{
smooth = 0;
x = 250;
y = 414;
},
{
segmentType = curve;
smooth = 1;
x = 245;
y = 414;
},
{
smooth = 0;
x = 206;
y = 414;
},
{
smooth = 0;
x = 184;
y = 436;
},
{
segmentType = curve;
smooth = 1;
x = 184;
y = 466;
},
{
smooth = 0;
x = 184;
y = 524;
},
{
smooth = 0;
x = 242;
y = 558;
},
{
segmentType = curve;
smooth = 1;
x = 300.67099;
y = 558;
},
{
smooth = 0;
x = 431;
y = 558;
},
{
smooth = 0;
x = 488;
y = 454;
},
{
segmentType = curve;
smooth = 1;
x = 488;
y = 364;
},
{
smooth = 0;
x = 488;
y = 347;
},
{
smooth = 0;
x = 486;
y = 331;
},
{
segmentType = curve;
smooth = 0;
x = 482.98801;
y = 316;
},
{
segmentType = line;
smooth = 0;
x = 462.14999;
y = 300;
},
{
smooth = 0;
x = 437.35901;
y = 304;
},
{
smooth = 0;
x = 410.465;
y = 306;
},
{
segmentType = curve;
smooth = 1;
x = 384.465;
y = 306;
},
{
smooth = 0;
x = 275;
y = 306;
},
{
smooth = 0;
x = 172;
y = 274;
},
{
segmentType = curve;
smooth = 1;
x = 172;
y = 198;
},
{
smooth = 0;
x = 172;
y = 138;
},
{
smooth = 0;
x = 286;
y = 96;
},
{
segmentType = curve;
smooth = 1;
x = 427;
y = 96;
},
{
smooth = 0;
x = 644;
y = 96;
},
{
smooth = 0;
x = 759;
y = 216;
},
{
segmentType = curve;
smooth = 1;
x = 770.59698;
y = 423;
},
{
smooth = 0;
x = 781;
y = 605;
},
{
smooth = 0;
x = 646.552;
y = 715;
},
{
segmentType = curve;
smooth = 1;
x = 464.89899;
y = 715;
},
{
smooth = 0;
x = 327.99399;
y = 715;
},
{
smooth = 0;
x = 233.94501;
y = 655;
},
{
segmentType = curve;
smooth = 0;
x = 231.755;
y = 655;
},
{
smooth = 0;
x = 231;
y = 658;
},
{
smooth = 0;
x = 230;
y = 662;
},
{
segmentType = curve;
smooth = 1;
x = 230;
y = 667;
},
{
smooth = 0;
x = 230;
y = 692;
},
{
smooth = 0;
x = 243;
y = 738;
},
{
segmentType = curve;
smooth = 0;
x = 252.048;
y = 756;
},
{
smooth = 0;
x = 297.86899;
y = 777.80798;
},
{
smooth = 0;
x = 370.62;
y = 798;
},
{
segmentType = curve;
smooth = 1;
x = 467.24899;
y = 798;
},
{
smooth = 0;
x = 686;
y = 798;
},
{
smooth = 0;
x = 827;
y = 651;
},
{
segmentType = curve;
smooth = 1;
x = 827;
y = 424;
},
{
smooth = 0;
x = 827;
y = 169;
},
{
smooth = 0;
x = 688;
y = -17;
},
{
segmentType = curve;
smooth = 1;
x = 442;
y = -17;
},
{
smooth = 0;
x = 260;
y = -17;
},
{
smooth = 0;
x = 116.258;
y = 54;
}
);
},
{
points = (
{
segmentType = line;
smooth = 0;
x = 34.312;
y = 275;
},
{
segmentType = line;
smooth = 0;
x = 49.767;
y = 360;
},
{
smooth = 0;
x = 130.35899;
y = 374.60901;
},
{
smooth = 0;
x = 327.42899;
y = 385.043;
},
{
segmentType = curve;
smooth = 0;
x = 439.97198;
y = 384;
},
{
segmentType = line;
smooth = 0;
x = 433.186;
y = 369;
},
{
smooth = 0;
x = 252.505;
y = 359.91299;
},
{
smooth = 0;
x = 100.774;
y = 298.32001;
},
{
segmentType = curve;
smooth = 0;
x = 46.787;
y = 265;
}
);
}
);
lib = {
};
name = sinCa;
unicodes = (
);
width = 877;
};
};
};
},
{
glyphname = sinCha;
lastChange = "2019-01-05 04:56:58 +0000";
layers = (
{
anchors = (
{
name = _si_MaU;
position = "{554, 196}";
}
);
layerId = "51BB9282-3B82-4DF1-A67A-294D3E37D73A";
paths = (
{
closed = 1;
nodes = (
"448 -20 OFFCURVE",
"565 70 OFFCURVE",
"565 193 CURVE SMOOTH",
"565 275 OFFCURVE",
"508 321 OFFCURVE",
"417 321 CURVE SMOOTH",
"392 321 OFFCURVE",
"367 316 OFFCURVE",
"345 305 CURVE",
"332 296 LINE",
"353 301 LINE",
"353 346 OFFCURVE",
"376 403 OFFCURVE",
"439 403 CURVE SMOOTH",
"475 403 OFFCURVE",
"516 372 OFFCURVE",
"516 317 CURVE SMOOTH",
"516 266 OFFCURVE",
"485 201 OFFCURVE",
"422 201 CURVE SMOOTH",
"349 201 OFFCURVE",
"353 287 OFFCURVE",
"353 317 CURVE",
"342 330 LINE",
"347 359 OFFCURVE",
"360 411 OFFCURVE",
"379 453 CURVE SMOOTH",
"435 576 OFFCURVE",
"534 665 OFFCURVE",
"534 665 CURVE",
"530 683 OFFCURVE",
"503 702 OFFCURVE",
"489 706 CURVE",
"489 706 OFFCURVE",
"414 630 OFFCURVE",
"352 489 CURVE SMOOTH",
"319 412 OFFCURVE",
"308 338 OFFCURVE",
"308 306 CURVE SMOOTH",
"308 188 OFFCURVE",
"371 156 OFFCURVE",
"414 156 CURVE SMOOTH",
"505 156 OFFCURVE",
"553 256 OFFCURVE",
"553 341 CURVE SMOOTH",
"553 402 OFFCURVE",
"512 454 OFFCURVE",
"456 454 CURVE SMOOTH",
"372 454 OFFCURVE",
"313 359 OFFCURVE",
"313 278 CURVE SMOOTH",
"313 270 OFFCURVE",
"313 263 OFFCURVE",
"314 256 CURVE",
"329 248 LINE",
"361 259 OFFCURVE",
"396 272 OFFCURVE",
"431 272 CURVE SMOOTH",
"485 272 OFFCURVE",
"527 251 OFFCURVE",
"527 199 CURVE SMOOTH",
"527 127 OFFCURVE",
"434 60 OFFCURVE",
"299 60 CURVE SMOOTH",
"144 60 OFFCURVE",
"69 116 OFFCURVE",
"69 179 CURVE SMOOTH",
"69 231 OFFCURVE",
"121 260 OFFCURVE",
"207 260 CURVE SMOOTH",
"226 260 OFFCURVE",
"247 259 OFFCURVE",
"269 256 CURVE",
"280 267 LINE",
"284 284 OFFCURVE",
"286 304 OFFCURVE",
"286 324 CURVE SMOOTH",
"286 387 OFFCURVE",
"261 454 OFFCURVE",
"168 454 CURVE SMOOTH",
"107 454 OFFCURVE",
"69 420 OFFCURVE",
"69 382 CURVE SMOOTH",
"69 345 OFFCURVE",
"96 332 OFFCURVE",
"122 330 CURVE",
"130 361 OFFCURVE",
"160 403 OFFCURVE",
"202 403 CURVE SMOOTH",
"236 403 OFFCURVE",
"251 379 OFFCURVE",
"251 348 CURVE SMOOTH",
"251 315 OFFCURVE",
"230 295 OFFCURVE",
"220 286 CURVE",
"257 316 LINE",
"246 317 OFFCURVE",
"234 318 OFFCURVE",
"223 318 CURVE SMOOTH",
"127 318 OFFCURVE",
"30 266 OFFCURVE",
"30 165 CURVE SMOOTH",
"30 78 OFFCURVE",
"101 -20 OFFCURVE",
"296 -20 CURVE SMOOTH"
);
}
);
width = 605;
},
{
anchors = (
{
name = _si_MaU;
position = "{570, 196}";
}
);
associatedMasterId = "51BB9282-3B82-4DF1-A67A-294D3E37D73A";
layerId = "17CAA28A-399C-4D44-88B0-9E245C0565BD";
name = "Sep 17 18, 02:11";
paths = (
{
closed = 1;
nodes = (
"581 70 OFFCURVE",
"581 193 CURVE SMOOTH",
"581 275 OFFCURVE",
"524 321 OFFCURVE",
"433 321 CURVE SMOOTH",
"408 321 OFFCURVE",
"383 316 OFFCURVE",
"361 305 CURVE",
"367 270 LINE",
"369 301 LINE",
"369 346 OFFCURVE",
"383 399 OFFCURVE",
"454 399 CURVE SMOOTH",
"491 399 OFFCURVE",
"532 372 OFFCURVE",
"532 317 CURVE SMOOTH",
"532 266 OFFCURVE",
"501 201 OFFCURVE",
"441 201 CURVE SMOOTH",
"358 201 OFFCURVE",
"369 287 OFFCURVE",
"369 317 CURVE SMOOTH",
"369 424 OFFCURVE",
"406 477 OFFCURVE",
"464 542 CURVE SMOOTH",
"506 591 OFFCURVE",
"596 640 OFFCURVE",
"596 640 CURVE",
"593 665 OFFCURVE",
"572 688 OFFCURVE",
"563 692 CURVE",
"419 605 OFFCURVE",
"325 476 OFFCURVE",
"325 295 CURVE SMOOTH",
"325 176 OFFCURVE",
"387 156 OFFCURVE",
"430 156 CURVE SMOOTH",
"521 156 OFFCURVE",
"569 256 OFFCURVE",
"569 341 CURVE SMOOTH",
"569 402 OFFCURVE",
"528 454 OFFCURVE",
"472 454 CURVE SMOOTH",
"380 454 OFFCURVE",
"318 341 OFFCURVE",
"330 256 CURVE",
"345 248 LINE",
"377 259 OFFCURVE",
"412 272 OFFCURVE",
"447 272 CURVE SMOOTH",
"501 272 OFFCURVE",
"545 251 OFFCURVE",
"545 199 CURVE SMOOTH",
"545 127 OFFCURVE",
"450 63 OFFCURVE",
"316 63 CURVE SMOOTH",
"160 63 OFFCURVE",
"78 116 OFFCURVE",
"78 179 CURVE SMOOTH",
"78 231 OFFCURVE",
"137 260 OFFCURVE",
"223 260 CURVE SMOOTH",
"242 260 OFFCURVE",
"263 259 OFFCURVE",
"285 256 CURVE",
"296 267 LINE",
"300 284 OFFCURVE",
"302 304 OFFCURVE",
"302 324 CURVE SMOOTH",
"302 387 OFFCURVE",
"277 454 OFFCURVE",
"184 454 CURVE SMOOTH",
"123 454 OFFCURVE",
"85 420 OFFCURVE",
"85 382 CURVE SMOOTH",
"85 345 OFFCURVE",
"112 332 OFFCURVE",
"138 330 CURVE",
"146 361 OFFCURVE",
"176 403 OFFCURVE",
"218 403 CURVE SMOOTH",
"252 403 OFFCURVE",
"267 379 OFFCURVE",
"267 348 CURVE SMOOTH",
"267 315 OFFCURVE",
"246 295 OFFCURVE",
"236 286 CURVE",
"273 316 LINE",
"262 317 OFFCURVE",
"250 318 OFFCURVE",
"239 318 CURVE SMOOTH",
"143 318 OFFCURVE",
"46 261 OFFCURVE",
"46 169 CURVE SMOOTH",
"46 78 OFFCURVE",
"117 -20 OFFCURVE",
"321 -20 CURVE SMOOTH",
"464 -20 OFFCURVE"
);
}
);
width = 605;
}
);
leftMetricsKey = sinPa;
unicode = 0DA1;
},
{
glyphname = sinDa;
lastChange = "2019-01-05 04:56:58 +0000";
layers = (
{
anchors = (
{
name = Virama;
position = "{334, 407}";
}
);
layerId = "51BB9282-3B82-4DF1-A67A-294D3E37D73A";
paths = (
{
closed = 1;
nodes = (
"290 -26 OFFCURVE",
"339 -15 OFFCURVE",
"372 -3 CURVE",
"380 14 OFFCURVE",
"385 43 OFFCURVE",
"385 72 CURVE",
"377 82 LINE",
"331 62 OFFCURVE",
"276 50 OFFCURVE",
"214 50 CURVE SMOOTH",
"118 50 OFFCURVE",
"69 85 OFFCURVE",
"69 135 CURVE SMOOTH",
"69 200 OFFCURVE",
"136 257 OFFCURVE",
"273 257 CURVE SMOOTH",
"295 257 OFFCURVE",
"344 254 OFFCURVE",
"370 250 CURVE",
"384 268 LINE",
"389 353 OFFCURVE",
"345 462 OFFCURVE",
"224 462 CURVE SMOOTH",
"150 462 OFFCURVE",
"98 426 OFFCURVE",
"98 373 CURVE SMOOTH",
"98 344 OFFCURVE",
"119 326 OFFCURVE",
"152 326 CURVE SMOOTH",
"162 326 OFFCURVE",
"172 328 OFFCURVE",
"184 330 CURVE",
"182 337 OFFCURVE",
"182 343 OFFCURVE",
"182 350 CURVE SMOOTH",
"182 391 OFFCURVE",
"217 413 OFFCURVE",
"252 413 CURVE SMOOTH",
"302 413 OFFCURVE",
"321 377 OFFCURVE",
"325 316 CURVE",
"313 319 OFFCURVE",
"301 320 OFFCURVE",
"276 320 CURVE SMOOTH",
"128 320 OFFCURVE",
"30 242 OFFCURVE",
"30 132 CURVE SMOOTH",
"30 45 OFFCURVE",
"102 -26 OFFCURVE",
"217 -26 CURVE SMOOTH"
);
},
{
closed = 1;
nodes = (
"325 -251 OFFCURVE",
"360 -236 OFFCURVE",
"372 -230 CURVE",
"377 -220 OFFCURVE",
"380 -194 OFFCURVE",
"380 -174 CURVE SMOOTH",
"380 -168 OFFCURVE",
"380 -162 OFFCURVE",
"379 -157 CURVE",
"344 -175 OFFCURVE",
"314 -180 OFFCURVE",
"279 -180 CURVE SMOOTH",
"221 -180 OFFCURVE",
"203 -149 OFFCURVE",
"203 -122 CURVE SMOOTH",
"203 -55 OFFCURVE",
"303 -24 OFFCURVE",
"339 -13 CURVE",
"293 2 LINE",
"239 -21 OFFCURVE",
"142 -59 OFFCURVE",
"142 -144 CURVE SMOOTH",
"142 -198 OFFCURVE",
"184 -251 OFFCURVE",
"277 -251 CURVE SMOOTH"
);
}
);
width = 438;
}
);
unicode = 0DAF;
},
{
glyphname = sinDda;
lastChange = "2019-01-05 04:56:43 +0000";
layers = (
{
layerId = "51BB9282-3B82-4DF1-A67A-294D3E37D73A";
paths = (
{
closed = 1;
nodes = (
"595 -19 OFFCURVE",
"652 127 OFFCURVE",
"652 255 CURVE SMOOTH",
"652 444 OFFCURVE",
"542 601 OFFCURVE",
"331 601 CURVE SMOOTH",
"282 601 OFFCURVE",
"216 590 OFFCURVE",
"176 571 CURVE",
"166 555 OFFCURVE",
"162 521 OFFCURVE",
"164 500 CURVE",
"172 504 OFFCURVE",
"244 533 OFFCURVE",
"331 533 CURVE SMOOTH",
"469 533 OFFCURVE",
"607 458 OFFCURVE",
"607 284 CURVE SMOOTH",
"607 182 OFFCURVE",
"559 63 OFFCURVE",
"462 63 CURVE SMOOTH",
"411 63 OFFCURVE",
"381 96 OFFCURVE",
"381 146 CURVE SMOOTH",
"381 155 OFFCURVE",
"382 160 OFFCURVE",
"383 167 CURVE",
"363 162 LINE",
"347 105 OFFCURVE",
"311 64 OFFCURVE",
"241 64 CURVE SMOOTH",
"174 64 OFFCURVE",
"138 102 OFFCURVE",
"138 147 CURVE SMOOTH",
"138 208 OFFCURVE",
"188 240 OFFCURVE",
"257 240 CURVE SMOOTH",
"307 240 OFFCURVE",
"326 236 OFFCURVE",
"347 227 CURVE",
"359 235 LINE",
"361 244 OFFCURVE",
"361 248 OFFCURVE",
"361 268 CURVE SMOOTH",
"361 356 OFFCURVE",
"304 424 OFFCURVE",
"217 424 CURVE SMOOTH",
"172 424 OFFCURVE",
"131 399 OFFCURVE",
"131 356 CURVE SMOOTH",
"131 333 OFFCURVE",
"149 310 OFFCURVE",
"191 314 CURVE",
"191 330 OFFCURVE",
"206 370 OFFCURVE",
"257 370 CURVE SMOOTH",
"279 370 OFFCURVE",
"316 358 OFFCURVE",
"316 311 CURVE SMOOTH",
"316 304 OFFCURVE",
"315 295 OFFCURVE",
"313 286 CURVE",
"308 284 OFFCURVE",
"306 282 OFFCURVE",
"295 282 CURVE",
"188 278 OFFCURVE",
"91 233 OFFCURVE",
"91 121 CURVE SMOOTH",
"91 37 OFFCURVE",
"147 -15 OFFCURVE",
"232 -15 CURVE SMOOTH",
"321 -15 OFFCURVE",
"363 49 OFFCURVE",
"366 93 CURVE",
"368 95 OFFCURVE",
"361 90 OFFCURVE",
"362 92 CURVE",
"361 86 OFFCURVE",
"361 80 OFFCURVE",
"361 75 CURVE SMOOTH",
"361 30 OFFCURVE",
"392 -19 OFFCURVE",
"466 -19 CURVE SMOOTH"
);
},
{
closed = 1;
nodes = (
"87 222 OFFCURVE",
"161 270 OFFCURVE",
"314 277 CURVE",
"348 289 LINE",
"260 290 OFFCURVE",
"116 281 OFFCURVE",
"52 269 CURVE",
"45 248 OFFCURVE",
"41 226 OFFCURVE",
"40 203 CURVE",
"50 196 LINE"
);
}
);
width = 696;
}
);
unicode = 0DA9;
},
{
glyphname = sinDdha;
lastChange = "2019-01-05 04:56:29 +0000";
layers = (
{
layerId = "51BB9282-3B82-4DF1-A67A-294D3E37D73A";
paths = (
{
closed = 1;
nodes = (
"595 -19 OFFCURVE",
"645 146 OFFCURVE",
"645 269 CURVE SMOOTH",
"645 487 OFFCURVE",
"451 630 OFFCURVE",
"290 630 CURVE",
"264 558 LINE",
"272 559 OFFCURVE",
"280 559 OFFCURVE",
"288 559 CURVE SMOOTH",
"437 559 OFFCURVE",
"605 451 OFFCURVE",
"605 268 CURVE SMOOTH",
"605 185 OFFCURVE",
"566 63 OFFCURVE",
"462 63 CURVE SMOOTH",
"411 63 OFFCURVE",
"381 96 OFFCURVE",
"381 146 CURVE SMOOTH",
"381 155 OFFCURVE",
"382 160 OFFCURVE",
"383 167 CURVE",
"363 162 LINE",
"347 105 OFFCURVE",
"311 64 OFFCURVE",
"233 64 CURVE SMOOTH",
"174 64 OFFCURVE",
"138 92 OFFCURVE",
"138 146 CURVE SMOOTH",
"138 207 OFFCURVE",
"198 240 OFFCURVE",
"257 240 CURVE SMOOTH",
"287 240 OFFCURVE",
"306 236 OFFCURVE",
"327 227 CURVE",
"339 235 LINE",
"341 244 OFFCURVE",
"341 248 OFFCURVE",
"341 268 CURVE SMOOTH",
"341 356 OFFCURVE",
"284 424 OFFCURVE",
"197 424 CURVE SMOOTH",
"152 424 OFFCURVE",
"111 399 OFFCURVE",
"111 356 CURVE SMOOTH",
"111 333 OFFCURVE",
"129 310 OFFCURVE",
"171 314 CURVE",
"171 330 OFFCURVE",
"186 370 OFFCURVE",
"237 370 CURVE SMOOTH",
"259 370 OFFCURVE",
"296 358 OFFCURVE",
"296 311 CURVE SMOOTH",
"296 304 OFFCURVE",
"295 295 OFFCURVE",
"293 286 CURVE",
"288 284 OFFCURVE",
"286 284 OFFCURVE",
"275 282 CURVE SMOOTH",
"198 268 OFFCURVE",
"91 240 OFFCURVE",
"91 118 CURVE SMOOTH",
"91 39 OFFCURVE",
"147 -15 OFFCURVE",
"232 -15 CURVE SMOOTH",
"321 -15 OFFCURVE",
"363 49 OFFCURVE",
"366 93 CURVE",
"362 92 LINE",
"361 86 OFFCURVE",
"361 80 OFFCURVE",
"361 75 CURVE SMOOTH",
"361 30 OFFCURVE",
"392 -19 OFFCURVE",
"466 -19 CURVE SMOOTH"
);
},
{
closed = 1;
nodes = (
"67 222 OFFCURVE",
"171 270 OFFCURVE",
"294 277 CURVE",
"328 289 LINE",
"240 290 OFFCURVE",
"96 281 OFFCURVE",
"32 269 CURVE",
"25 248 OFFCURVE",
"21 226 OFFCURVE",
"20 203 CURVE",
"30 196 LINE"
);
},
{
closed = 1;
nodes = (
"479 417 OFFCURVE",
"535 440 OFFCURVE",
"552 452 CURVE",
"543 476 LINE",
"522 467 OFFCURVE",
"489 461 OFFCURVE",
"453 461 CURVE SMOOTH",
"318 461 OFFCURVE",
"290 538 OFFCURVE",
"290 630 CURVE",
"260 614 LINE",
"258 606 OFFCURVE",
"255 585 OFFCURVE",
"255 567 CURVE SMOOTH",
"255 466 OFFCURVE",
"314 417 OFFCURVE",
"412 417 CURVE SMOOTH"
);
}
);
width = 695;
}
);
rightMetricsKey = "=sinTta";
unicode = 0DAA;
},
{
glyphname = sinDha;
lastChange = "2019-01-05 04:56:58 +0000";
layers = (
{
layerId = "51BB9282-3B82-4DF1-A67A-294D3E37D73A";
paths = (
{
closed = 1;
nodes = (
"525 -16 OFFCURVE",
"578 116 OFFCURVE",
"578 257 CURVE SMOOTH",
"578 459 OFFCURVE",
"460 597 OFFCURVE",
"248 597 CURVE SMOOTH",
"198 597 OFFCURVE",
"144 587 OFFCURVE",
"114 574 CURVE",
"105 559 OFFCURVE",
"100 537 OFFCURVE",
"100 519 CURVE SMOOTH",
"100 511 OFFCURVE",
"101 504 OFFCURVE",
"103 499 CURVE",
"123 509 OFFCURVE",
"176 525 OFFCURVE",
"243 525 CURVE SMOOTH",
"386 525 OFFCURVE",
"532 473 OFFCURVE",
"532 274 CURVE SMOOTH",
"532 151 OFFCURVE",
"484 65 OFFCURVE",
"404 65 CURVE SMOOTH",
"372 65 OFFCURVE",
"321 79 OFFCURVE",
"321 149 CURVE",
"322 158 LINE",
"303 154 LINE",
"285 108 OFFCURVE",
"256 69 OFFCURVE",
"187 69 CURVE SMOOTH",
"116 69 OFFCURVE",
"68 111 OFFCURVE",
"68 172 CURVE SMOOTH",
"68 242 OFFCURVE",
"133 291 OFFCURVE",
"231 291 CURVE SMOOTH",
"255 291 OFFCURVE",
"281 288 OFFCURVE",
"308 282 CURVE",
"319 295 LINE",
"317 317 OFFCURVE",
"309 343 OFFCURVE",
"299 362 CURVE",
"288 363 OFFCURVE",
"276 364 OFFCURVE",
"263 364 CURVE SMOOTH",
"144 364 OFFCURVE",
"30 289 OFFCURVE",
"30 152 CURVE SMOOTH",
"30 50 OFFCURVE",
"94 -15 OFFCURVE",
"182 -15 CURVE SMOOTH",
"268 -15 OFFCURVE",
"304 48 OFFCURVE",
"309 83 CURVE",
"301 105 LINE",
"300 99 OFFCURVE",
"299 93 OFFCURVE",
"299 85 CURVE SMOOTH",
"299 29 OFFCURVE",
"348 -16 OFFCURVE",
"413 -16 CURVE SMOOTH"
);
}
);
width = 628;
}
);
unicode = 0DB0;
userData = {
public.markColor = "0.04,0.57,0.04,1";
};
},
{
glyphname = sinE;
lastChange = "2019-01-05 04:56:58 +0000";
layers = (
{
layerId = "51BB9282-3B82-4DF1-A67A-294D3E37D73A";
paths = (
{
closed = 1;
nodes = (
"505 -32 OFFCURVE",
"615 105 OFFCURVE",
"615 283 CURVE SMOOTH",
"615 488 OFFCURVE",
"426 631 OFFCURVE",
"265 631 CURVE",
"239 567 LINE",
"383 567 OFFCURVE",
"571 465 OFFCURVE",
"571 298 CURVE SMOOTH",
"571 170 OFFCURVE",
"492 60 OFFCURVE",
"343 56 CURVE SMOOTH",
"233 53 OFFCURVE",
"142 78 OFFCURVE",
"142 135 CURVE SMOOTH",
"142 192 OFFCURVE",
"215 220 OFFCURVE",
"293 220 CURVE SMOOTH",
"313 220 OFFCURVE",
"334 219 OFFCURVE",
"354 216 CURVE",
"369 228 LINE",
"370 235 OFFCURVE",
"371 246 OFFCURVE",
"371 256 CURVE SMOOTH",
"371 327 OFFCURVE",
"323 414 OFFCURVE",
"219 414 CURVE SMOOTH",
"174 414 OFFCURVE",
"133 389 OFFCURVE",
"133 346 CURVE SMOOTH",
"133 319 OFFCURVE",
"154 300 OFFCURVE",
"193 304 CURVE",
"193 313 OFFCURVE",
"210 357 OFFCURVE",
"258 357 CURVE SMOOTH",
"296 357 OFFCURVE",
"331 326 OFFCURVE",
"332 275 CURVE",
"219 272 OFFCURVE",
"101 225 OFFCURVE",
"101 122 CURVE SMOOTH",
"101 36 OFFCURVE",
"184 -32 OFFCURVE",
"325 -32 CURVE SMOOTH"
);
},
{
closed = 1;
nodes = (
"67 208 OFFCURVE",
"171 256 OFFCURVE",
"294 263 CURVE",
"338 275 LINE",
"250 275 OFFCURVE",
"94 271 OFFCURVE",
"30 259 CURVE",
"24 242 OFFCURVE",
"21 212 OFFCURVE",
"20 189 CURVE",
"30 181 LINE"
);
},
{
closed = 1;
nodes = (
"444 418 OFFCURVE",
"522 434 OFFCURVE",
"546 455 CURVE",
"538 476 LINE",
"517 467 OFFCURVE",
"464 462 OFFCURVE",
"428 462 CURVE SMOOTH",
"377 462 OFFCURVE",
"324 475 OFFCURVE",
"294 514 CURVE SMOOTH",
"268 548 OFFCURVE",
"269 604 OFFCURVE",
"265 631 CURVE",
"234 615 LINE",
"232 606 OFFCURVE",
"229 585 OFFCURVE",
"229 566 CURVE SMOOTH",
"229 538 OFFCURVE",
"235 509 OFFCURVE",
"248 483 CURVE SMOOTH",
"272 435 OFFCURVE",
"329 418 OFFCURVE",
"387 418 CURVE SMOOTH"
);
}
);
width = 667;
}
);
unicode = 0D91;
},
{
glyphname = sinEe;
lastChange = "2019-01-05 04:56:58 +0000";
layers = (
{
components = (
{
name = sinVirama;
transform = "{1, 0, 0, 1, 556, 17}";
}
);
layerId = "51BB9282-3B82-4DF1-A67A-294D3E37D73A";
paths = (
{
closed = 1;
nodes = (
"496 -32 OFFCURVE",
"595 105 OFFCURVE",
"595 273 CURVE SMOOTH",
"595 488 OFFCURVE",
"366 631 OFFCURVE",
"205 631 CURVE",
"179 567 LINE",
"323 567 OFFCURVE",
"551 465 OFFCURVE",
"551 288 CURVE SMOOTH",
"551 170 OFFCURVE",
"482 60 OFFCURVE",
"323 56 CURVE SMOOTH",
"223 53 OFFCURVE",
"122 78 OFFCURVE",
"122 135 CURVE SMOOTH",
"122 192 OFFCURVE",
"195 220 OFFCURVE",
"273 220 CURVE SMOOTH",
"293 220 OFFCURVE",
"314 219 OFFCURVE",
"334 216 CURVE",
"349 228 LINE",
"350 235 OFFCURVE",
"351 246 OFFCURVE",
"351 256 CURVE SMOOTH",
"351 327 OFFCURVE",
"293 414 OFFCURVE",
"189 414 CURVE SMOOTH",
"144 414 OFFCURVE",
"113 389 OFFCURVE",
"113 346 CURVE SMOOTH",
"113 319 OFFCURVE",
"134 300 OFFCURVE",
"173 304 CURVE",
"173 313 OFFCURVE",
"190 357 OFFCURVE",
"238 357 CURVE SMOOTH",
"276 357 OFFCURVE",
"311 326 OFFCURVE",
"312 275 CURVE",
"199 272 OFFCURVE",
"81 225 OFFCURVE",
"81 122 CURVE SMOOTH",
"81 36 OFFCURVE",
"174 -32 OFFCURVE",
"305 -32 CURVE SMOOTH"
);
},
{
closed = 1;
nodes = (
"47 208 OFFCURVE",
"151 256 OFFCURVE",
"274 263 CURVE",
"318 275 LINE",
"230 275 OFFCURVE",
"74 271 OFFCURVE",
"10 259 CURVE",
"4 242 OFFCURVE",
"1 212 OFFCURVE",
"0 189 CURVE",
"10 181 LINE"
);
},
{
closed = 1;
nodes = (
"386 413 OFFCURVE",
"462 429 OFFCURVE",
"486 450 CURVE",
"478 476 LINE",
"457 467 OFFCURVE",
"404 462 OFFCURVE",
"368 462 CURVE SMOOTH",
"317 462 OFFCURVE",
"264 475 OFFCURVE",
"234 514 CURVE SMOOTH",
"208 548 OFFCURVE",
"209 604 OFFCURVE",
"205 631 CURVE",
"174 615 LINE",
"172 606 OFFCURVE",
"169 585 OFFCURVE",
"169 566 CURVE SMOOTH",
"169 538 OFFCURVE",
"175 509 OFFCURVE",
"188 483 CURVE SMOOTH",
"212 435 OFFCURVE",
"278 413 OFFCURVE",
"336 413 CURVE SMOOTH"
);
}
);
width = 673;
}
);
unicode = 0D92;
},
{
glyphname = sinFa;
lastChange = "2019-01-05 04:56:58 +0000";
layers = (
{
layerId = "51BB9282-3B82-4DF1-A67A-294D3E37D73A";
paths = (
{
closed = 1;
nodes = (
"269 -14 OFFCURVE",
"292 -11 OFFCURVE",
"317 0 CURVE",
"319 6 OFFCURVE",
"320 18 OFFCURVE",
"320 30 CURVE SMOOTH",
"320 47 OFFCURVE",
"318 66 OFFCURVE",
"316 76 CURVE",
"285 63 OFFCURVE",
"252 63 OFFCURVE",
"230 64 CURVE SMOOTH",
"153 67 OFFCURVE",
"64 116 OFFCURVE",
"64 202 CURVE SMOOTH",
"64 291 OFFCURVE",
"121 349 OFFCURVE",
"203 349 CURVE SMOOTH",
"274 349 OFFCURVE",
"335 291 OFFCURVE",
"335 243 CURVE SMOOTH",
"335 239 OFFCURVE",
"335 235 OFFCURVE",
"334 232 CURVE",
"341 232 OFFCURVE",
"350 233 OFFCURVE",
"357 236 CURVE",
"376 307 OFFCURVE",
"435 346 OFFCURVE",
"488 346 CURVE SMOOTH",
"550 346 OFFCURVE",
"617 308 OFFCURVE",
"617 228 CURVE SMOOTH",
"617 172 OFFCURVE",
"583 61 OFFCURVE",
"414 64 CURVE",
"408 54 LINE",
"412 31 OFFCURVE",
"428 -1 OFFCURVE",
"438 -13 CURVE",
"599 -11 OFFCURVE",
"654 133 OFFCURVE",
"654 239 CURVE SMOOTH",
"654 387 OFFCURVE",
"566 439 OFFCURVE",
"505 439 CURVE SMOOTH",
"425 439 OFFCURVE",
"370 372 OFFCURVE",
"348 313 CURVE",
"354 309 LINE",
"355 312 OFFCURVE",
"355 316 OFFCURVE",
"355 319 CURVE SMOOTH",
"355 371 OFFCURVE",
"300 440 OFFCURVE",
"224 440 CURVE SMOOTH",
"115 440 OFFCURVE",
"30 334 OFFCURVE",
"30 214 CURVE SMOOTH",
"30 81 OFFCURVE",
"113 -14 OFFCURVE",
"243 -14 CURVE SMOOTH"
);
}
);
width = 689;
}
);
rightMetricsKey = sinYa;
unicode = 0DC6;
},
{
glyphname = sinGa;
lastChange = "2019-01-05 04:56:29 +0000";
layers = (
{
layerId = "51BB9282-3B82-4DF1-A67A-294D3E37D73A";
paths = (
{
closed = 1;
nodes = (
"638 -3 OFFCURVE",
"713 117 OFFCURVE",
"713 248 CURVE SMOOTH",
"713 371 OFFCURVE",
"628 454 OFFCURVE",
"519 454 CURVE SMOOTH",
"378 454 OFFCURVE",
"293 333 OFFCURVE",
"288 170 CURVE",
"293 169 OFFCURVE",
"297 169 OFFCURVE",
"302 169 CURVE SMOOTH",
"309 169 OFFCURVE",
"316 169 OFFCURVE",
"324 170 CURVE",
"322 177 OFFCURVE",
"321 190 OFFCURVE",
"321 197 CURVE SMOOTH",
"321 305 OFFCURVE",
"382 366 OFFCURVE",
"498 366 CURVE SMOOTH",
"576 366 OFFCURVE",
"670 323 OFFCURVE",
"671 226 CURVE SMOOTH",
"671 132 OFFCURVE",
"612 76 OFFCURVE",
"513 76 CURVE SMOOTH",
"497 76 OFFCURVE",
"475 78 OFFCURVE",
"458 82 CURVE",
"448 76 LINE",
"448 59 OFFCURVE",
"468 11 OFFCURVE",
"487 -6 CURVE"
);
},
{
closed = 1;
nodes = (
"372 -9 OFFCURVE",
"439 79 OFFCURVE",
"439 173 CURVE SMOOTH",
"439 247 OFFCURVE",
"388 302 OFFCURVE",
"323 301 CURVE",
"319 249 LINE",
"349 248 OFFCURVE",
"405 230 OFFCURVE",
"405 180 CURVE SMOOTH",
"405 113 OFFCURVE",
"320 80 OFFCURVE",
"252 80 CURVE SMOOTH",
"155 80 OFFCURVE",
"80 130 OFFCURVE",
"80 215 CURVE SMOOTH",
"80 297 OFFCURVE",
"142 356 OFFCURVE",
"251 356 CURVE",
"256 363 OFFCURVE",
"261 408 OFFCURVE",
"261 432 CURVE SMOOTH",
"261 438 OFFCURVE",
"261 444 OFFCURVE",
"260 447 CURVE",
"154 446 OFFCURVE",
"44 357 OFFCURVE",
"44 194 CURVE SMOOTH",
"44 71 OFFCURVE",
"124 -9 OFFCURVE",
"248 -9 CURVE SMOOTH"
);
}
);
width = 758;
}
);
unicode = 0D9C;
userData = {
public.markColor = "0.04,0.57,0.04,1";
};
},
{
glyphname = sinGha;
lastChange = "2019-01-05 04:56:29 +0000";
layers = (
{
layerId = "51BB9282-3B82-4DF1-A67A-294D3E37D73A";
paths = (
{
closed = 1;
nodes = (
"587 -19 OFFCURVE",
"653 50 OFFCURVE",
"653 161 CURVE SMOOTH",
"653 256 OFFCURVE",
"585 317 OFFCURVE",
"495 317 CURVE SMOOTH",
"446 317 OFFCURVE",
"432 309 OFFCURVE",
"401 298 CURVE",
"456 285 LINE",
"449 293 OFFCURVE",
"436 315 OFFCURVE",
"436 338 CURVE SMOOTH",
"436 393 OFFCURVE",
"467 420 OFFCURVE",
"509 420 CURVE SMOOTH",
"547 420 OFFCURVE",
"584 395 OFFCURVE",
"584 353 CURVE SMOOTH",
"584 325 OFFCURVE",
"561 291 OFFCURVE",
"557 285 CURVE",
"575 279 LINE",
"604 293 OFFCURVE",
"640 328 OFFCURVE",
"640 371 CURVE SMOOTH",
"640 422 OFFCURVE",
"605 465 OFFCURVE",
"533 465 CURVE SMOOTH",
"432 465 OFFCURVE",
"376 377 OFFCURVE",
"378 255 CURVE",
"389 246 LINE",
"421 258 OFFCURVE",
"461 259 OFFCURVE",
"493 259 CURVE SMOOTH",
"549 259 OFFCURVE",
"617 241 OFFCURVE",
"617 174 CURVE SMOOTH",
"617 103 OFFCURVE",
"556 59 OFFCURVE",
"494 59 CURVE SMOOTH",
"429 59 OFFCURVE",
"411 92 OFFCURVE",
"411 120 CURVE SMOOTH",
"411 136 OFFCURVE",
"414 152 OFFCURVE",
"417 166 CURVE",
"403 172 OFFCURVE",
"386 175 OFFCURVE",
"368 175 CURVE SMOOTH",
"343 175 OFFCURVE",
"319 170 OFFCURVE",
"302 159 CURVE",
"303 113 OFFCURVE",
"272 62 OFFCURVE",
"196 62 CURVE SMOOTH",
"139 62 OFFCURVE",
"107 92 OFFCURVE",
"107 137 CURVE SMOOTH",
"107 193 OFFCURVE",
"153 251 OFFCURVE",
"261 251 CURVE SMOOTH",
"280 251 OFFCURVE",
"300 250 OFFCURVE",
"323 246 CURVE",
"335 257 LINE",
"340 275 OFFCURVE",
"343 295 OFFCURVE",
"343 316 CURVE SMOOTH",
"343 388 OFFCURVE",
"308 466 OFFCURVE",
"219 466 CURVE SMOOTH",
"156 466 OFFCURVE",
"109 427 OFFCURVE",
"109 385 CURVE SMOOTH",
"109 353 OFFCURVE",
"140 336 OFFCURVE",
"164 335 CURVE",
"172 373 OFFCURVE",
"196 412 OFFCURVE",
"239 412 CURVE SMOOTH",
"276 412 OFFCURVE",
"300 389 OFFCURVE",
"300 349 CURVE SMOOTH",
"300 326 OFFCURVE",
"290 313 OFFCURVE",
"283 303 CURVE",
"213 302 LINE",
"210 301 OFFCURVE",
"212 305 OFFCURVE",
"210 304 CURVE",
"137 277 OFFCURVE",
"72 209 OFFCURVE",
"72 125 CURVE SMOOTH",
"72 43 OFFCURVE",
"116 -17 OFFCURVE",
"199 -17 CURVE SMOOTH",
"323 -17 OFFCURVE",
"329 106 OFFCURVE",
"330 115 CURVE",
"332 116 OFFCURVE",
"342 120 OFFCURVE",
"358 120 CURVE SMOOTH",
"361 120 OFFCURVE",
"374 119 OFFCURVE",
"377 116 CURVE",
"374 102 OFFCURVE",
"373 90 OFFCURVE",
"373 74 CURVE SMOOTH",
"373 36 OFFCURVE",
"404 -19 OFFCURVE",
"494 -19 CURVE SMOOTH"
);
},
{
closed = 1;
nodes = (
"55 246 OFFCURVE",
"152 286 OFFCURVE",
"274 286 CURVE SMOOTH",
"303 286 LINE",
"316 308 LINE",
"290 308 LINE SMOOTH",
"204 308 OFFCURVE",
"78 305 OFFCURVE",
"22 295 CURVE",
"7 229 LINE",
"16 222 LINE"
);
}
);
width = 697;
}
);
unicode = 0D9D;
},
{
glyphname = sinHa;
lastChange = "2019-01-05 04:56:29 +0000";
layers = (
{
anchors = (
{
name = Virama;
position = "{623, 413}";
}
);
layerId = "51BB9282-3B82-4DF1-A67A-294D3E37D73A";
paths = (
{
closed = 1;
nodes = (
"658 -5 OFFCURVE",
"721 96 OFFCURVE",
"721 243 CURVE SMOOTH",
"721 370 OFFCURVE",
"651 454 OFFCURVE",
"529 454 CURVE SMOOTH",
"406 454 OFFCURVE",
"316 344 OFFCURVE",
"305 170 CURVE",
"310 169 OFFCURVE",
"319 169 OFFCURVE",
"323 169 CURVE SMOOTH",
"330 169 OFFCURVE",
"334 169 OFFCURVE",
"341 170 CURVE",
"335 286 OFFCURVE",
"390 373 OFFCURVE",
"502 373 CURVE SMOOTH",
"601 373 OFFCURVE",
"676 306 OFFCURVE",
"676 223 CURVE SMOOTH",
"676 139 OFFCURVE",
"624 79 OFFCURVE",
"535 75 CURVE SMOOTH",
"503 74 OFFCURVE",
"489 75 OFFCURVE",
"464 79 CURVE",
"455 73 LINE",
"454 55 OFFCURVE",
"461 9 OFFCURVE",
"479 -8 CURVE"
);
},
{
closed = 1;
nodes = (
"338 -8 OFFCURVE",
"434 63 OFFCURVE",
"434 166 CURVE SMOOTH",
"434 245 OFFCURVE",
"380 276 OFFCURVE",
"340 275 CURVE",
"332 227 LINE",
"347 226 OFFCURVE",
"405 211 OFFCURVE",
"405 166 CURVE SMOOTH",
"405 104 OFFCURVE",
"315 78 OFFCURVE",
"232 78 CURVE SMOOTH",
"151 78 OFFCURVE",
"68 104 OFFCURVE",
"68 166 CURVE SMOOTH",
"68 227 OFFCURVE",
"128 263 OFFCURVE",
"212 263 CURVE SMOOTH",
"230 263 OFFCURVE",
"250 260 OFFCURVE",
"271 257 CURVE",
"281 269 LINE",
"283 282 OFFCURVE",
"285 297 OFFCURVE",
"285 313 CURVE SMOOTH",
"285 379 OFFCURVE",
"259 455 OFFCURVE",
"160 455 CURVE SMOOTH",
"97 455 OFFCURVE",
"64 417 OFFCURVE",
"64 380 CURVE SMOOTH",
"64 347 OFFCURVE",
"95 333 OFFCURVE",
"119 332 CURVE",
"126 363 OFFCURVE",
"154 405 OFFCURVE",
"196 405 CURVE SMOOTH",
"228 405 OFFCURVE",
"244 384 OFFCURVE",
"244 350 CURVE SMOOTH",
"244 315 OFFCURVE",
"227 297 OFFCURVE",
"215 279 CURVE",
"248 317 LINE",
"236 320 OFFCURVE",
"225 320 OFFCURVE",
"213 320 CURVE SMOOTH",
"114 320 OFFCURVE",
"31 255 OFFCURVE",
"31 152 CURVE SMOOTH",
"31 52 OFFCURVE",
"114 -8 OFFCURVE",
"225 -8 CURVE SMOOTH"
);
}
);
width = 751;
}
);
unicode = 0DC4;
userData = {
public.markColor = "0.04,0.57,0.04,1";
};
},
{
glyphname = sinI;
lastChange = "2019-01-05 04:56:58 +0000";
layers = (
{
layerId = "51BB9282-3B82-4DF1-A67A-294D3E37D73A";
paths = (
{
closed = 1;
nodes = (
"488 -31 OFFCURVE",
"621 64 OFFCURVE",
"621 244 CURVE SMOOTH",
"621 402 OFFCURVE",
"508 490 OFFCURVE",
"359 490 CURVE SMOOTH",
"229 490 OFFCURVE",
"99 407 OFFCURVE",
"99 255 CURVE SMOOTH",
"99 171 OFFCURVE",
"155 78 OFFCURVE",
"278 78 CURVE SMOOTH",
"412 78 OFFCURVE",
"458 160 OFFCURVE",
"458 230 CURVE SMOOTH",
"458 301 OFFCURVE",
"407 333 OFFCURVE",
"358 333 CURVE SMOOTH",
"301 333 OFFCURVE",
"264 295 OFFCURVE",
"264 245 CURVE SMOOTH",
"264 207 OFFCURVE",
"287 174 OFFCURVE",
"345 174 CURVE SMOOTH",
"410 174 OFFCURVE",
"430 213 OFFCURVE",
"432 218 CURVE",
"434 245 LINE",
"434 245 OFFCURVE",
"397 213 OFFCURVE",
"354 213 CURVE SMOOTH",
"321 213 OFFCURVE",
"296 230 OFFCURVE",
"296 246 CURVE SMOOTH",
"296 269 OFFCURVE",
"320 279 OFFCURVE",
"351 279 CURVE SMOOTH",
"385 279 OFFCURVE",
"428 259 OFFCURVE",
"428 217 CURVE SMOOTH",
"428 178 OFFCURVE",
"366 144 OFFCURVE",
"288 144 CURVE SMOOTH",
"185 144 OFFCURVE",
"135 197 OFFCURVE",
"135 273 CURVE SMOOTH",
"135 364 OFFCURVE",
"220 412 OFFCURVE",
"343 412 CURVE SMOOTH",
"528 412 OFFCURVE",
"585 316 OFFCURVE",
"585 228 CURVE SMOOTH",
"585 101 OFFCURVE",
"416 5 OFFCURVE",
"255 8 CURVE",
"254 -14 OFFCURVE",
"262 -38 OFFCURVE",
"271 -58 CURVE"
);
},
{
closed = 1;
nodes = (
"461 -253 OFFCURVE",
"515 -173 OFFCURVE",
"515 -115 CURVE SMOOTH",
"515 -51 OFFCURVE",
"465 -36 OFFCURVE",
"413 -36 CURVE SMOOTH",
"393 -36 OFFCURVE",
"373 -39 OFFCURVE",
"355 -41 CURVE",
"268 -30 LINE",
"271 -58 LINE",
"349 -58 OFFCURVE",
"463 -83 OFFCURVE",
"463 -140 CURVE SMOOTH",
"463 -170 OFFCURVE",
"441 -191 OFFCURVE",
"365 -191 CURVE SMOOTH",
"311 -191 OFFCURVE",
"261 -174 OFFCURVE",
"233 -165 CURVE",
"232 -173 OFFCURVE",
"231 -182 OFFCURVE",
"231 -190 CURVE SMOOTH",
"231 -212 OFFCURVE",
"235 -234 OFFCURVE",
"242 -249 CURVE",
"265 -252 OFFCURVE",
"286 -255 OFFCURVE",
"307 -255 CURVE SMOOTH"
);
}
);
width = 668;
}
);
unicode = 0D89;
userData = {
com.typemytype.robofont.layerData = {
"Regular Nov 5 16, 14:31" = {
anchors = (
);
components = (
);
contours = (
{
points = (
{
segmentType = curve;
smooth = 0;
x = 275.133;
y = -320;
},
{
smooth = 0;
x = 493.48999;
y = -351.21201;
},
{
smooth = 0;
x = 638.40997;
y = -272.79501;
},
{
segmentType = curve;
smooth = 1;
x = 643.20398;
y = -166;
},
{
smooth = 0;
x = 648.672;
y = -44.881;
},
{
smooth = 0;
x = 507.43701;
y = -28;
},
{
segmentType = curve;
smooth = 0;
x = 507.43701;
y = -28;
},
{
segmentType = line;
smooth = 0;
x = 368.43201;
y = -19;
},
{
segmentType = line;
smooth = 0;
x = 363.54999;
y = -74;
},
{
smooth = 0;
x = 491.87399;
y = -73.686;
},
{
smooth = 0;
x = 543.52698;
y = -89.077;
},
{
segmentType = curve;
smooth = 1;
x = 542.93799;
y = -152;
},
{
smooth = 0;
x = 542.34399;
y = -215.45799;
},
{
smooth = 0;
x = 439.44299;
y = -280.771;
},
{
segmentType = curve;
smooth = 0;
x = 263.32599;
y = -240;
},
{
smooth = 0;
x = 252.42999;
y = -267.33801;
},
{
smooth = 0;
x = 267.87;
y = -310.09;
}
);
},
{
points = (
{
segmentType = curve;
smooth = 1;
x = 104.774;
y = 321;
},
{
smooth = 0;
x = 105;
y = 162;
},
{
smooth = 0;
x = 202.18401;
y = 78.812;
},
{
segmentType = curve;
smooth = 1;
x = 338.56299;
y = 78;
},
{
smooth = 0;
x = 496.36301;
y = 77.06;
},
{
smooth = 0;
x = 575.31299;
y = 169.41299;
},
{
segmentType = curve;
smooth = 1;
x = 582.10199;
y = 260;
},
{
smooth = 0;
x = 588.84003;
y = 349.07401;
},
{
smooth = 0;
x = 531.98499;
y = 414.07999;
},
{
segmentType = curve;
smooth = 1;
x = 462.22601;
y = 415;
},
{
smooth = 0;
x = 388.60501;
y = 416.035;
},
{
smooth = 0;
x = 335.71301;
y = 367.065;
},
{
segmentType = curve;
smooth = 1;
x = 332.35501;
y = 303;
},
{
smooth = 0;
x = 329.211;
y = 243;
},
{
smooth = 0;
x = 366.59799;
y = 194.619;
},
{
segmentType = curve;
smooth = 1;
x = 445.64301;
y = 194;
},
{
smooth = 0;
x = 532.39398;
y = 193.32001;
},
{
smooth = 0;
x = 559.25;
y = 263;
},
{
segmentType = curve;
smooth = 0;
x = 560.62598;
y = 270;
},
{
segmentType = line;
smooth = 1;
x = 549.77899;
y = 292;
},
{
smooth = 0;
x = 549.77899;
y = 292;
},
{
smooth = 0;
x = 515.55603;
y = 239;
},
{
segmentType = curve;
smooth = 1;
x = 460.00101;
y = 239;
},
{
smooth = 0;
x = 415.79599;
y = 239;
},
{
smooth = 0;
x = 385.15399;
y = 261;
},
{
segmentType = curve;
smooth = 1;
x = 387.04099;
y = 297;
},
{
smooth = 0;
x = 388.57001;
y = 326.177;
},
{
smooth = 0;
x = 417.233;
y = 349;
},
{
segmentType = curve;
smooth = 1;
x = 455.767;
y = 349;
},
{
smooth = 0;
x = 501.46301;
y = 349;
},
{
smooth = 0;
x = 545.69202;
y = 309.436;
},
{
segmentType = curve;
smooth = 1;
x = 542.68298;
y = 252;
},
{
smooth = 0;
x = 539.83197;
y = 197.604;
},
{
smooth = 0;
x = 446.91901;
y = 157.347;
},
{
segmentType = curve;
smooth = 1;
x = 335.28;
y = 168;
},
{
smooth = 0;
x = 240.73399;
y = 177.022;
},
{
smooth = 0;
x = 161;
y = 226;
},
{
segmentType = curve;
smooth = 1;
x = 159;
y = 339;
},
{
smooth = 0;
x = 156;
y = 457;
},
{
smooth = 0;
x = 316;
y = 529;
},
{
segmentType = curve;
smooth = 1;
x = 487;
y = 522;
},
{
smooth = 0;
x = 662;
y = 515;
},
{
smooth = 0;
x = 733.90698;
y = 388.63501;
},
{
segmentType = curve;
smooth = 1;
x = 728.72998;
y = 262;
},
{
smooth = 0;
x = 722.05298;
y = 98.634;
},
{
smooth = 0;
x = 552.276;
y = -7.808;
},
{
segmentType = curve;
smooth = 0;
x = 331.16599;
y = -5;
},
{
smooth = 0;
x = 326.07001;
y = -25.909;
},
{
smooth = 0;
x = 334.116;
y = -63.182;
},
{
segmentType = curve;
smooth = 0;
x = 352.49701;
y = -75;
},
{
smooth = 0;
x = 630.95599;
y = -66.199;
},
{
smooth = 0;
x = 806;
y = 80;
},
{
segmentType = curve;
smooth = 1;
x = 806.93201;
y = 314;
},
{
smooth = 0;
x = 808;
y = 522;
},
{
smooth = 0;
x = 643.64301;
y = 623;
},
{
segmentType = curve;
smooth = 1;
x = 464.64999;
y = 623;
},
{
smooth = 0;
x = 278.05801;
y = 623;
},
{
smooth = 0;
x = 105;
y = 515;
}
);
}
);
lib = {
};
name = sinI;
unicodes = (
);
width = 867;
};
};
};
},
{
glyphname = sinIi;
lastChange = "2019-01-05 04:56:58 +0000";
layers = (
{
components = (
{
name = sinRa;
}
);
layerId = "51BB9282-3B82-4DF1-A67A-294D3E37D73A";
paths = (
{
closed = 1;
nodes = (
"176 541 OFFCURVE",
"197 564 OFFCURVE",
"197 591 CURVE SMOOTH",
"197 613 OFFCURVE",
"177 631 OFFCURVE",
"154 631 CURVE SMOOTH",
"129 631 OFFCURVE",
"107 608 OFFCURVE",
"107 581 CURVE SMOOTH",
"107 559 OFFCURVE",
"128 541 OFFCURVE",
"151 541 CURVE SMOOTH"
);
},
{
closed = 1;
nodes = (
"473 468 OFFCURVE",
"493 490 OFFCURVE",
"493 516 CURVE SMOOTH",
"493 538 OFFCURVE",
"477 554 OFFCURVE",
"455 554 CURVE SMOOTH",
"429 554 OFFCURVE",
"407 532 OFFCURVE",
"407 506 CURVE SMOOTH",
"407 484 OFFCURVE",
"425 468 OFFCURVE",
"447 468 CURVE SMOOTH"
);
}
);
width = 528;
}
);
leftMetricsKey = sinRa;
rightMetricsKey = sinRa;
unicode = 0D8A;
userData = {
public.markColor = "0.67,0.95,0.38,1";
};
},
{
glyphname = sinJa;
lastChange = "2019-01-05 04:56:29 +0000";
layers = (
{
anchors = (
{
name = rakar;
position = "{558, 175}";
}
);
components = (
{
name = sinPa;
}
);
layerId = "51BB9282-3B82-4DF1-A67A-294D3E37D73A";
paths = (
{
closed = 1;
nodes = (
"442 284 OFFCURVE",
"445 360 OFFCURVE",
"484 437 CURVE SMOOTH",
"546 560 OFFCURVE",
"632 655 OFFCURVE",
"632 655 CURVE",
"630 671 OFFCURVE",
"602 698 OFFCURVE",
"588 697 CURVE",
"588 697 OFFCURVE",
"515 614 OFFCURVE",
"453 473 CURVE SMOOTH",
"418 393 OFFCURVE",
"410 303 OFFCURVE",
"410 303 CURVE",
"442 284 LINE"
);
}
);
width = 642;
}
);
unicode = 0DA2;
},
